{"glyphs":{"0":{"ha":828,"x_min":43,"x_max":790,"o":"m 790 507 q 761 272 790 371 q 682 108 732 174 q 564 12 632 43 q 417 -19 496 -19 q 269 12 338 -19 q 151 108 201 43 q 72 272 100 174 q 43 507 43 371 q 72 742 43 643 q 151 907 100 842 q 269 1003 201 972 q 417 1035 338 1035 q 564 1003 496 1035 q 682 907 632 972 q 761 742 732 842 q 790 507 790 643 m 663 507 q 642 708 663 626 q 588 838 622 789 q 510 909 554 888 q 417 931 465 931 q 324 909 368 931 q 246 838 279 888 q 192 708 213 789 q 172 507 172 626 q 192 308 172 389 q 246 176 213 226 q 324 105 279 126 q 417 83 368 83 q 510 105 465 83 q 588 176 554 126 q 642 308 622 226 q 663 507 663 389 z "},"1":{"ha":828,"x_min":156,"x_max":731,"o":"m 731 103 l 731 0 l 181 0 l 181 103 l 407 103 l 407 800 q 407 835 407 815 q 408 871 407 856 l 224 706 l 156 788 l 429 1024 l 531 1024 l 531 103 l 731 103 z "},"2":{"ha":828,"x_min":74,"x_max":757,"o":"m 757 113 l 757 0 l 74 0 l 74 89 l 425 426 q 499 508 465 469 q 558 585 533 546 q 596 663 582 624 q 610 747 610 703 q 594 826 608 793 q 555 882 581 860 q 495 915 529 904 q 422 926 461 926 q 350 915 383 926 q 292 883 317 904 q 249 835 267 863 q 225 775 232 808 q 219 726 219 747 l 94 747 q 133 872 104 818 q 206 962 163 925 q 307 1017 250 999 q 429 1036 364 1036 q 550 1017 493 1036 q 649 960 607 997 q 714 871 690 924 q 738 750 738 818 q 720 644 738 693 q 674 551 703 594 q 606 464 644 507 q 525 378 568 421 l 240 96 q 299 108 269 104 q 356 113 329 113 l 757 113 z "},"3":{"ha":828,"x_min":67,"x_max":758,"o":"m 99 744 q 138 868 108 814 q 210 959 167 922 q 311 1015 254 996 q 433 1035 368 1035 q 555 1015 500 1035 q 650 961 610 996 q 713 878 690 926 q 735 771 735 831 q 722 683 735 722 q 686 616 710 644 q 629 567 663 588 q 556 533 596 547 q 707 445 656 508 q 758 288 758 382 q 731 161 758 218 q 657 65 704 104 q 548 3 610 25 q 414 -18 486 -18 q 275 3 332 -18 q 177 60 218 24 q 110 144 136 96 q 67 250 85 193 l 181 297 q 201 235 185 274 q 251 160 222 192 q 317 110 281 128 q 413 92 354 92 q 508 110 467 92 q 575 155 549 128 q 615 216 601 182 q 629 285 629 250 q 618 361 629 326 q 578 421 607 396 q 498 460 550 446 q 365 475 446 475 l 365 567 q 478 581 432 568 q 554 619 525 594 q 596 676 583 643 q 608 750 608 710 q 595 826 608 793 q 558 881 582 860 q 499 913 533 901 q 426 924 465 924 q 355 912 388 924 q 297 880 322 900 q 254 832 271 860 q 231 771 238 804 q 225 724 225 743 l 99 744 z "},"4":{"ha":828,"x_min":31,"x_max":806,"o":"m 539 371 l 539 796 q 540 837 539 814 q 544 882 542 860 l 169 371 l 539 371 m 806 371 l 806 271 l 651 271 l 651 0 l 539 0 l 539 271 l 31 271 l 31 365 l 532 1029 l 651 1029 l 651 371 l 806 371 z "},"5":{"ha":828,"x_min":85,"x_max":742,"o":"m 265 639 q 411 657 344 657 q 554 633 493 657 q 657 567 615 610 q 720 469 699 525 q 742 346 742 414 q 713 199 742 264 q 634 85 683 133 q 517 13 585 38 q 372 -12 449 -12 q 285 -3 326 -12 q 207 21 243 6 q 140 56 171 36 q 85 97 108 75 l 153 190 q 191 163 172 174 q 235 138 210 151 q 295 113 261 124 q 378 101 329 101 q 475 119 431 101 q 551 165 519 136 q 601 239 583 193 q 619 339 619 285 q 603 427 619 388 q 558 493 586 467 q 486 535 529 519 q 388 550 443 550 q 306 541 347 550 q 221 517 265 532 l 139 540 l 222 1022 l 710 1022 l 710 906 l 311 906 l 265 639 z "},"6":{"ha":828,"x_min":72,"x_max":767,"o":"m 411 89 q 503 106 461 89 q 576 152 546 122 q 622 222 606 182 q 639 308 639 261 q 623 399 639 358 q 577 468 607 439 q 507 512 547 497 q 419 526 467 526 q 327 509 368 526 q 256 462 286 492 q 211 392 226 432 q 196 311 196 353 q 210 221 196 261 q 253 151 225 181 q 320 105 281 121 q 411 89 360 89 m 335 639 q 286 572 299 589 q 367 611 324 597 q 461 625 410 625 q 579 605 524 625 q 676 545 635 585 q 742 448 718 506 q 767 318 767 390 q 741 185 767 246 q 669 79 715 125 q 556 8 622 33 q 414 -18 490 -18 q 272 7 335 -18 q 165 78 210 32 q 97 188 121 124 q 72 332 72 253 q 102 477 72 400 q 199 642 132 554 l 482 1024 l 526 1024 l 642 1024 l 335 639 z "},"7":{"ha":828,"x_min":96,"x_max":765,"o":"m 765 1018 l 765 936 l 306 0 l 165 0 l 581 832 l 628 910 l 96 910 l 96 1018 l 765 1018 z "},"8":{"ha":828,"x_min":61,"x_max":764,"o":"m 414 81 q 505 94 464 81 q 573 134 546 108 q 615 195 600 160 q 629 275 629 231 q 612 367 629 329 q 565 430 594 406 q 496 466 535 454 q 414 478 457 478 q 331 466 371 478 q 261 430 290 454 q 214 367 232 406 q 196 275 196 329 q 210 195 196 231 q 253 134 225 160 q 322 94 281 108 q 414 81 363 81 m 414 942 q 331 928 368 942 q 271 890 294 914 q 236 834 247 865 q 225 765 225 803 q 235 697 225 731 q 267 638 244 664 q 326 596 289 613 q 414 579 363 579 q 500 596 464 579 q 559 638 536 613 q 591 697 582 664 q 600 765 600 731 q 589 834 600 803 q 554 890 578 865 q 495 928 531 914 q 414 942 460 942 m 563 531 q 712 439 660 504 q 764 274 764 374 q 739 150 764 204 q 667 57 714 96 q 555 -3 619 18 q 414 -24 490 -24 q 270 -3 335 -24 q 160 57 206 18 q 88 150 114 96 q 61 274 61 204 q 115 439 61 374 q 263 531 168 504 q 141 622 183 561 q 99 769 99 683 q 121 876 99 826 q 185 963 143 925 q 284 1022 226 1000 q 414 1043 342 1043 q 541 1022 483 1043 q 642 963 599 1000 q 707 876 685 925 q 729 769 729 826 q 687 622 729 683 q 563 531 644 561 z "},"9":{"ha":828,"x_min":74,"x_max":751,"o":"m 203 725 q 217 636 203 675 q 258 570 231 597 q 324 530 285 543 q 408 517 363 517 q 501 533 461 517 q 570 578 542 550 q 613 644 599 606 q 628 721 628 682 q 612 810 628 771 q 568 877 596 850 q 501 919 540 904 q 418 933 463 933 q 330 918 369 933 q 262 876 290 903 q 218 810 233 849 q 203 725 203 771 m 507 404 q 563 482 550 463 q 472 433 522 450 q 367 417 422 417 q 253 436 307 417 q 160 494 200 456 q 97 588 121 532 q 74 715 74 643 q 99 843 74 783 q 171 947 125 903 q 280 1017 217 992 q 419 1043 343 1043 q 556 1018 494 1043 q 660 949 617 993 q 728 842 704 904 q 751 706 751 781 q 743 620 751 661 q 719 540 735 579 q 681 464 703 501 q 629 385 658 426 l 350 0 l 190 0 l 507 404 z "}," ":{"ha":311,"x_min":0,"x_max":0,"o":""},"#":{"ha":771,"x_min":56,"x_max":724,"o":"m 178 311 l 56 311 l 56 406 l 189 406 l 218 636 l 86 636 l 86 731 l 229 731 l 264 1008 l 353 1008 l 319 731 l 511 731 l 547 1008 l 635 1008 l 601 731 l 724 731 l 724 636 l 590 636 l 561 406 l 693 406 l 693 311 l 550 311 l 513 0 l 422 0 l 460 311 l 268 311 l 229 0 l 140 0 l 178 311 m 471 406 l 500 636 l 307 636 l 279 406 l 471 406 z "},"$":{"ha":832,"x_min":54,"x_max":751,"o":"m 746 233 q 725 164 740 193 q 658 79 701 118 q 610 45 638 60 q 557 21 582 31 q 508 7 532 11 q 461 0 485 3 l 461 -119 l 375 -119 l 375 -3 q 207 33 289 1 q 124 77 163 53 q 54 135 86 101 l 122 222 q 179 174 147 194 q 245 138 211 153 q 310 115 279 122 q 375 106 342 107 l 375 482 l 299 511 q 226 544 244 533 q 190 566 208 554 q 151 600 172 578 q 117 645 129 622 q 95 697 104 668 q 86 754 86 725 q 92 808 86 783 q 108 858 97 833 q 135 903 119 882 q 171 940 151 924 q 250 990 213 975 q 317 1011 288 1006 q 375 1018 346 1017 l 375 1132 l 461 1132 l 461 1018 q 564 994 517 1013 q 640 953 611 975 q 694 904 668 931 l 638 833 q 536 900 589 878 q 498 913 515 910 q 461 918 481 917 l 461 567 l 525 543 q 578 517 554 531 q 634 484 603 504 q 691 433 665 464 q 730 372 717 401 q 747 310 743 343 q 746 233 751 278 m 347 601 l 375 593 l 375 919 q 307 908 338 918 q 249 878 276 897 q 207 830 222 858 q 192 774 192 801 q 197 728 192 746 q 211 692 201 710 q 236 662 221 675 q 271 636 251 649 q 347 601 290 624 m 572 138 q 640 261 635 182 q 639 302 642 283 q 623 347 636 321 q 581 395 610 372 q 514 433 551 418 q 461 453 476 447 l 461 107 q 572 138 531 110 z "},"%":{"ha":1279,"x_min":53,"x_max":1224,"o":"m 285 421 q 116 499 179 421 q 53 732 53 576 q 116 963 53 888 q 285 1039 179 1039 q 456 963 392 1039 q 519 732 519 888 q 456 499 519 576 q 285 421 392 421 m 285 507 q 379 560 343 507 q 415 732 415 613 q 379 902 415 851 q 285 953 343 953 q 192 901 228 953 q 156 732 156 850 q 192 560 156 613 q 285 507 228 507 m 865 1039 l 975 1039 l 414 -17 l 303 -17 l 865 1039 m 990 -14 q 820 63 885 -14 q 756 296 756 140 q 820 527 756 451 q 990 603 885 603 q 1160 527 1096 603 q 1224 296 1224 451 q 1160 63 1224 140 q 990 -14 1096 -14 m 990 72 q 1084 124 1049 72 q 1119 296 1119 176 q 1084 467 1119 415 q 990 518 1049 518 q 896 467 932 518 q 860 296 860 415 q 896 124 860 176 q 990 72 932 72 z "},"&":{"ha":914,"x_min":38,"x_max":908,"o":"m 908 10 l 771 10 l 661 128 q 524 38 601 71 q 350 0 447 4 q 130 70 207 0 q 43 258 53 140 q 94 437 38 361 q 251 558 151 513 l 243 569 q 174 665 206 613 q 139 779 142 717 q 194 947 136 888 q 363 1010 251 1006 l 369 1010 q 454 996 415 1010 q 522 956 493 982 q 569 891 551 929 q 588 806 586 853 q 572 713 589 754 q 527 640 556 672 q 464 582 499 607 q 396 539 429 557 l 656 268 q 701 348 678 294 q 742 493 724 401 l 849 493 q 789 313 825 382 q 721 200 753 243 l 908 10 m 238 829 q 247 731 225 775 q 314 628 268 688 l 313 628 l 335 606 q 390 644 363 624 q 440 688 418 664 q 474 740 461 713 q 486 801 488 768 q 452 888 483 854 q 369 921 421 921 l 363 921 q 311 909 333 918 q 273 887 289 900 q 249 858 257 874 q 238 829 240 843 m 314 486 q 250 446 281 468 q 197 395 219 424 q 160 333 174 367 q 147 258 147 300 q 163 194 147 224 q 205 144 178 165 q 269 110 232 122 q 351 99 307 99 q 485 128 428 101 q 590 201 543 156 l 314 486 z "},"'":{"ha":386,"x_min":125,"x_max":258,"o":"m 128 928 l 125 1071 l 258 1071 l 256 928 l 231 671 l 153 671 l 128 928 z "},"(":{"ha":469,"x_min":128,"x_max":411,"o":"m 332 -199 q 182 129 236 -43 q 128 507 128 301 q 182 883 128 711 q 332 1211 236 1056 l 411 1175 q 276 855 319 1025 q 233 507 233 685 q 276 158 233 329 q 411 -161 319 -12 l 332 -199 l 332 -199 z "},")":{"ha":469,"x_min":60,"x_max":343,"o":"m 60 -153 q 194 167 150 -4 q 238 515 238 338 q 194 863 238 693 q 60 1183 150 1033 l 138 1219 q 289 892 235 1064 q 343 515 343 719 q 289 138 343 310 q 138 -190 235 -35 l 60 -153 z "},"*":{"ha":649,"x_min":89,"x_max":557,"o":"m 153 699 l 240 843 l 89 906 l 114 976 l 272 938 l 286 1106 l 361 1106 l 375 939 l 533 976 l 557 906 l 406 843 l 494 699 l 433 654 l 324 786 l 214 654 l 153 699 z "},"+":{"ha":771,"x_min":53,"x_max":718,"o":"m 335 465 l 53 465 l 53 560 l 335 560 l 335 863 l 436 863 l 436 560 l 718 560 l 718 465 l 436 465 l 436 161 l 335 161 l 335 465 z "},",":{"ha":274,"x_min":28,"x_max":215,"o":"m 78 176 l 215 176 l 131 -104 l 28 -104 l 78 176 z "},".":{"ha":386,"x_min":101,"x_max":285,"o":"m 193 -18 q 128 8 156 -18 q 101 78 101 35 q 128 149 101 121 q 193 176 156 176 q 258 149 231 176 q 285 78 285 121 q 258 8 285 35 q 193 -18 231 -18 z "},"/":{"ha":544,"x_min":15,"x_max":524,"o":"m 432 1171 l 524 1171 l 108 -179 l 15 -179 l 432 1171 z "},":":{"ha":386,"x_min":101,"x_max":285,"o":"m 193 639 q 128 666 156 639 q 101 735 101 693 q 128 806 101 779 q 193 833 156 833 q 258 806 231 833 q 285 735 285 779 q 258 666 285 693 q 193 639 231 639 m 193 79 q 128 106 156 79 q 101 175 101 132 q 128 246 101 218 q 193 274 156 274 q 258 246 231 274 q 285 175 285 218 q 258 106 285 132 q 193 79 231 79 z "},";":{"ha":386,"x_min":74,"x_max":307,"o":"m 193 639 q 128 666 156 639 q 101 735 101 693 q 128 806 101 779 q 193 833 156 833 q 258 806 231 833 q 285 735 285 779 q 258 666 285 693 q 193 639 231 639 m 74 -92 q 175 -15 139 -64 q 213 97 211 33 q 197 96 207 96 q 133 118 161 96 q 104 185 104 140 q 133 249 104 225 q 200 274 161 274 q 278 234 250 274 q 307 124 307 194 q 253 -51 307 24 q 104 -167 199 -126 l 74 -92 z "},"<":{"ha":699,"x_min":53,"x_max":613,"o":"m 53 451 l 53 544 l 613 935 l 613 808 l 163 496 l 613 201 l 613 74 l 53 451 z "},"=":{"ha":771,"x_min":53,"x_max":718,"o":"m 53 725 l 718 725 l 718 631 l 53 631 l 53 725 m 53 393 l 718 393 l 718 299 l 53 299 l 53 393 z "},">":{"ha":700,"x_min":88,"x_max":647,"o":"m 88 74 l 88 201 l 538 496 l 88 808 l 88 935 l 647 544 l 647 451 l 88 74 z "},"?":{"ha":658,"x_min":56,"x_max":599,"o":"m 276 272 q 285 402 272 350 q 322 490 299 454 q 372 553 344 526 q 425 610 400 581 q 467 677 450 639 q 486 774 485 715 q 477 841 488 808 q 447 897 467 874 q 397 935 426 921 q 331 950 368 950 q 276 941 304 950 q 224 909 249 932 q 183 848 200 886 q 163 751 167 810 l 56 751 q 91 903 61 844 q 163 997 121 963 q 252 1044 204 1032 q 344 1057 300 1057 q 450 1035 403 1057 q 531 976 497 1013 q 581 889 564 939 q 599 782 599 839 q 581 672 599 717 q 538 592 564 626 q 483 528 513 557 q 428 464 453 499 q 390 383 404 429 q 381 272 376 338 l 276 272 m 326 -18 q 262 8 289 -18 q 235 78 235 35 q 262 149 235 121 q 326 176 289 176 q 392 149 365 176 q 419 78 419 121 q 392 8 419 35 q 326 -18 365 -18 z "},"@":{"ha":1314,"x_min":78,"x_max":1235,"o":"m 625 -240 q 411 -204 511 -240 q 238 -98 311 -168 q 121 76 164 -28 q 78 315 78 179 q 131 598 78 471 q 272 815 183 725 q 478 953 361 904 q 725 1003 596 1003 q 936 965 842 1003 q 1097 860 1031 928 q 1199 698 1164 793 q 1235 489 1235 603 q 1206 310 1235 388 q 1133 181 1178 233 q 1033 103 1088 129 q 925 76 978 76 q 817 106 861 76 q 765 194 772 135 l 761 194 q 674 119 724 150 q 572 88 624 88 q 440 144 493 88 q 386 308 386 201 q 407 433 386 369 q 467 549 428 497 q 561 635 506 601 q 685 668 617 668 q 808 592 767 668 l 811 592 l 829 656 l 913 656 l 851 346 q 851 208 829 251 q 936 164 872 164 q 1010 185 974 164 q 1078 248 1047 207 q 1127 349 1108 289 q 1146 483 1146 408 q 1118 658 1146 578 q 1036 795 1090 738 q 901 885 982 853 q 715 918 821 918 q 514 876 611 918 q 340 755 417 833 q 218 566 264 676 q 172 319 172 456 q 207 117 172 206 q 303 -31 242 29 q 450 -124 365 -92 q 633 -156 535 -156 q 769 -136 704 -156 q 886 -86 833 -117 l 919 -161 q 778 -221 851 -201 q 625 -240 706 -240 m 597 175 q 665 197 629 175 q 740 267 700 218 l 785 514 q 740 565 763 550 q 685 579 717 579 q 602 554 639 579 q 540 491 565 529 q 501 406 515 453 q 488 315 488 358 q 519 208 488 240 q 597 175 550 175 z "},"A":{"ha":843,"x_min":4,"x_max":839,"o":"m 574 414 l 525 569 q 472 741 497 657 q 422 914 447 825 l 417 914 q 368 740 393 824 q 315 569 343 657 l 265 414 l 574 414 m 606 311 l 233 311 l 135 0 l 4 0 l 350 1018 l 493 1018 l 839 0 l 703 0 l 606 311 z "},"B":{"ha":913,"x_min":139,"x_max":850,"o":"m 139 1018 l 442 1018 q 584 1004 519 1018 q 694 960 649 990 q 766 883 740 931 q 792 769 792 836 q 753 633 792 693 q 642 549 714 572 l 642 542 q 792 463 733 524 q 850 299 850 403 q 822 167 850 224 q 742 74 793 111 q 620 19 692 38 q 464 0 549 0 l 139 0 l 139 1018 m 419 585 q 608 630 551 585 q 665 753 665 675 q 605 880 665 843 q 425 917 544 917 l 268 917 l 268 585 l 419 585 m 446 103 q 651 151 578 103 q 724 303 724 199 q 652 442 724 399 q 446 486 581 486 l 268 486 l 268 103 l 446 103 z "},"C":{"ha":886,"x_min":81,"x_max":836,"o":"m 524 -18 q 348 17 429 -18 q 207 121 267 53 q 114 287 147 189 q 81 508 81 385 q 115 730 81 632 q 209 897 149 828 q 352 1001 269 965 q 532 1038 435 1038 q 619 1027 578 1038 q 697 999 661 1017 q 760 958 732 981 q 811 911 789 936 l 742 828 q 651 898 701 871 q 533 925 600 925 q 402 897 461 925 q 301 815 343 868 q 235 685 258 761 q 213 513 213 608 q 235 339 213 417 q 298 207 257 261 q 397 124 339 153 q 529 94 456 94 q 660 125 603 94 q 765 208 717 156 l 836 128 q 699 19 775 57 q 524 -18 624 -18 z "},"D":{"ha":954,"x_min":139,"x_max":875,"o":"m 139 1018 l 394 1018 q 753 888 631 1018 q 875 513 875 757 q 844 297 875 392 q 752 135 813 201 q 603 35 692 69 q 400 0 515 0 l 139 0 l 139 1018 m 383 106 q 653 213 564 106 q 742 513 742 319 q 653 810 742 707 q 383 914 565 914 l 268 914 l 268 106 l 383 106 z "},"E":{"ha":817,"x_min":139,"x_max":742,"o":"m 139 1018 l 726 1018 l 726 910 l 268 910 l 268 590 l 654 590 l 654 481 l 268 481 l 268 110 l 742 110 l 742 0 l 139 0 l 139 1018 z "},"F":{"ha":767,"x_min":139,"x_max":726,"o":"m 139 1018 l 726 1018 l 726 910 l 268 910 l 268 565 l 657 565 l 657 457 l 268 457 l 268 0 l 139 0 l 139 1018 z "},"G":{"ha":957,"x_min":81,"x_max":854,"o":"m 539 -18 q 354 17 439 -18 q 209 121 269 53 q 115 287 149 189 q 81 508 81 385 q 115 730 81 632 q 213 897 150 828 q 360 1001 275 965 q 547 1038 446 1038 q 644 1026 600 1038 q 725 998 689 1015 q 790 958 761 981 q 840 911 818 935 l 771 828 q 681 897 732 868 q 550 925 629 925 q 411 897 474 925 q 305 815 349 868 q 237 685 261 761 q 213 513 213 608 q 235 339 213 417 q 300 207 257 261 q 406 124 343 153 q 551 94 469 94 q 656 110 607 94 q 736 154 706 126 l 736 421 l 521 421 l 521 528 l 854 528 l 854 100 q 724 15 806 49 q 539 -18 643 -18 z "},"H":{"ha":1011,"x_min":139,"x_max":871,"o":"m 139 1018 l 268 1018 l 268 592 l 743 592 l 743 1018 l 871 1018 l 871 0 l 743 0 l 743 481 l 268 481 l 268 0 l 139 0 l 139 1018 z "},"I":{"ha":407,"x_min":139,"x_max":268,"o":"m 139 1018 l 268 1018 l 268 0 l 139 0 l 139 1018 z "},"J":{"ha":744,"x_min":49,"x_max":608,"o":"m 329 -18 q 163 23 232 -18 q 49 143 93 64 l 140 208 q 218 121 175 147 q 317 94 261 94 q 440 144 400 94 q 481 311 481 194 l 481 1018 l 608 1018 l 608 299 q 592 176 608 233 q 543 75 576 118 q 457 7 510 32 q 329 -18 404 -18 z "},"K":{"ha":897,"x_min":139,"x_max":892,"o":"m 139 1018 l 268 1018 l 268 507 l 272 507 l 697 1018 l 842 1018 l 524 631 l 892 0 l 747 0 l 443 531 l 268 322 l 268 0 l 139 0 l 139 1018 z "},"L":{"ha":753,"x_min":139,"x_max":713,"o":"m 139 1018 l 268 1018 l 268 110 l 713 110 l 713 0 l 139 0 l 139 1018 z "},"M":{"ha":1128,"x_min":139,"x_max":989,"o":"m 139 1018 l 294 1018 l 490 474 q 526 367 508 421 q 563 261 543 314 l 569 261 q 604 367 588 314 q 639 474 621 421 l 833 1018 l 989 1018 l 989 0 l 868 0 l 868 564 q 869 635 868 597 q 874 713 871 674 q 879 792 876 753 q 885 864 882 831 l 879 864 l 799 632 l 606 103 l 519 103 l 326 632 l 246 864 l 240 864 q 244 792 242 831 q 250 713 247 753 q 254 635 253 674 q 256 564 256 597 l 256 0 l 139 0 l 139 1018 z "},"N":{"ha":1003,"x_min":139,"x_max":864,"o":"m 139 1018 l 272 1018 l 643 376 l 751 167 l 758 167 q 747 327 753 244 q 742 489 742 410 l 742 1018 l 864 1018 l 864 0 l 732 0 l 361 643 l 251 853 l 246 853 q 256 695 250 775 q 261 535 261 615 l 261 0 l 139 0 l 139 1018 z "},"O":{"ha":1031,"x_min":81,"x_max":950,"o":"m 515 -18 q 340 19 419 -18 q 202 124 260 56 q 113 292 144 193 q 81 513 81 390 q 113 732 81 635 q 202 897 144 829 q 340 1001 260 965 q 515 1038 419 1038 q 691 1001 611 1038 q 828 897 771 965 q 918 732 886 829 q 950 513 950 635 q 918 292 950 390 q 828 124 886 193 q 691 19 771 56 q 515 -18 611 -18 m 515 94 q 640 124 583 94 q 735 208 696 154 q 797 340 775 263 q 818 513 818 417 q 797 685 818 608 q 735 815 775 761 q 640 897 696 868 q 515 925 583 925 q 390 897 446 925 q 295 815 335 868 q 234 685 256 761 q 213 513 213 608 q 234 340 213 417 q 295 208 256 263 q 390 124 335 154 q 515 94 446 94 z "},"P":{"ha":878,"x_min":139,"x_max":811,"o":"m 139 1018 l 429 1018 q 585 1003 515 1018 q 706 952 656 988 q 783 860 756 917 q 811 719 811 803 q 784 579 811 639 q 707 481 757 519 q 588 423 657 442 q 436 404 519 404 l 268 404 l 268 0 l 139 0 l 139 1018 m 419 508 q 619 559 554 508 q 683 719 683 610 q 616 872 683 829 q 414 914 549 914 l 268 914 l 268 508 l 419 508 z "},"Q":{"ha":1031,"x_min":81,"x_max":951,"o":"m 639 0 q 515 -18 583 -18 q 340 19 419 -18 q 202 124 260 56 q 113 292 144 193 q 81 513 81 390 q 113 732 81 635 q 202 897 144 829 q 340 1001 260 965 q 515 1038 419 1038 q 691 1001 611 1038 q 828 897 771 965 q 918 732 886 829 q 950 513 950 635 q 897 235 950 353 q 751 53 843 118 l 951 -179 l 783 -179 l 639 0 m 515 94 q 640 124 583 94 q 735 208 696 154 q 797 340 775 263 q 818 513 818 417 q 797 685 818 608 q 735 815 775 761 q 640 897 696 868 q 515 925 583 925 q 390 897 446 925 q 295 815 335 868 q 234 685 256 761 q 213 513 213 608 q 234 340 213 417 q 295 208 256 263 q 390 124 335 154 q 515 94 446 94 z "},"R":{"ha":882,"x_min":139,"x_max":844,"o":"m 268 536 l 439 536 q 623 584 560 536 q 686 732 686 632 q 623 874 686 833 q 439 914 560 914 l 268 914 l 268 536 m 699 0 l 451 432 l 268 432 l 268 0 l 139 0 l 139 1018 l 458 1018 q 601 1003 536 1018 q 714 955 667 989 q 788 866 761 921 q 814 732 814 811 q 751 542 814 613 q 583 446 688 471 l 844 0 l 699 0 z "},"S":{"ha":829,"x_min":65,"x_max":768,"o":"m 422 -18 q 223 22 314 -18 q 65 133 132 63 l 142 221 q 271 128 197 163 q 424 94 344 94 q 581 140 524 94 q 638 261 638 186 q 624 327 638 300 q 588 374 611 354 q 535 410 565 394 q 468 442 504 425 l 321 506 q 249 542 285 521 q 182 595 213 564 q 133 669 151 626 q 114 767 114 711 q 138 875 114 825 q 205 961 163 925 q 306 1017 247 997 q 435 1038 365 1038 q 603 1003 526 1038 q 735 911 681 968 l 667 829 q 563 899 619 874 q 435 925 506 925 q 296 885 347 925 q 244 775 244 844 q 260 711 244 738 q 299 665 275 685 q 353 632 322 646 q 413 606 383 618 l 558 543 q 641 500 603 524 q 708 444 679 476 q 752 370 736 413 q 768 271 768 328 q 744 158 768 210 q 675 66 719 106 q 566 4 631 26 q 422 -18 501 -18 z "},"T":{"ha":832,"x_min":43,"x_max":789,"o":"m 351 910 l 43 910 l 43 1018 l 789 1018 l 789 910 l 481 910 l 481 0 l 351 0 l 351 910 z "},"U":{"ha":1001,"x_min":135,"x_max":867,"o":"m 500 -18 q 356 4 422 -18 q 240 78 289 26 q 163 214 190 131 q 135 421 135 297 l 135 1018 l 264 1018 l 264 417 q 282 263 264 325 q 332 164 300 201 q 407 110 364 126 q 500 94 450 94 q 596 110 551 94 q 673 164 640 126 q 724 263 706 201 q 743 417 743 325 l 743 1018 l 867 1018 l 867 421 q 839 214 867 297 q 762 78 811 131 q 645 4 713 26 q 500 -18 578 -18 z "},"V":{"ha":799,"x_min":1,"x_max":799,"o":"m 1 1018 l 136 1018 l 301 467 q 326 381 315 422 q 349 299 338 339 q 373 217 361 258 q 400 131 385 175 l 406 131 q 432 217 419 175 q 456 299 444 258 q 478 381 467 339 q 504 467 490 422 l 668 1018 l 799 1018 l 475 0 l 326 0 l 1 1018 z "},"W":{"ha":1219,"x_min":35,"x_max":1182,"o":"m 35 1018 l 168 1018 l 275 464 q 305 299 290 381 q 335 135 319 218 l 340 135 q 376 299 358 218 q 414 464 394 381 l 554 1018 l 671 1018 l 814 464 q 851 300 833 382 q 886 135 868 218 l 893 135 q 951 464 922 301 l 1058 1018 l 1182 1018 l 971 0 l 817 0 l 663 614 q 637 731 649 675 q 613 846 625 788 l 607 846 q 581 731 594 788 q 556 614 568 675 l 404 0 l 251 0 l 35 1018 z "},"X":{"ha":796,"x_min":24,"x_max":772,"o":"m 321 526 l 43 1018 l 185 1018 l 324 758 q 361 688 343 722 q 404 610 379 654 l 410 610 q 447 688 431 654 q 482 758 463 722 l 618 1018 l 753 1018 l 475 519 l 772 0 l 631 0 l 481 275 q 440 353 461 313 q 393 439 418 393 l 388 439 q 306 275 344 349 l 158 0 l 24 0 l 321 526 z "},"Y":{"ha":738,"x_min":-1,"x_max":739,"o":"m 304 396 l -1 1018 l 136 1018 l 267 731 q 315 620 292 674 q 367 508 339 567 l 372 508 q 425 620 400 567 q 474 731 450 674 l 606 1018 l 739 1018 l 433 396 l 433 0 l 304 0 l 304 396 z "},"Z":{"ha":838,"x_min":69,"x_max":771,"o":"m 69 76 l 607 910 l 118 910 l 118 1018 l 765 1018 l 765 943 l 228 110 l 771 110 l 771 0 l 69 0 l 69 76 z "},"[":{"ha":469,"x_min":146,"x_max":422,"o":"m 146 1175 l 422 1175 l 422 1104 l 242 1104 l 242 -87 l 422 -87 l 422 -160 l 146 -160 l 146 1175 z "},"\\":{"ha":544,"x_min":21,"x_max":528,"o":"m 21 1171 l 113 1171 l 528 -179 l 436 -179 l 21 1171 z "},"]":{"ha":469,"x_min":47,"x_max":324,"o":"m 47 -90 l 228 -90 l 228 1101 l 47 1101 l 47 1172 l 324 1172 l 324 -162 l 47 -162 l 47 -90 z "},"^":{"ha":647,"x_min":61,"x_max":586,"o":"m 281 1019 l 367 1019 l 586 629 l 471 629 l 324 889 l 176 629 l 61 629 l 281 1019 z "},"_":{"ha":776,"x_min":18,"x_max":757,"o":"m 18 10 l 757 10 l 757 -75 l 18 -75 l 18 10 z "},"`":{"ha":842,"x_min":200,"x_max":508,"o":"m 200 1126 l 289 1211 l 508 953 l 443 890 l 200 1126 z "},"a":{"ha":783,"x_min":81,"x_max":671,"o":"m 300 -18 q 213 -3 253 -18 q 143 41 172 13 q 97 110 114 69 q 81 203 81 151 q 201 412 81 349 q 544 478 321 475 q 538 549 544 514 q 513 610 531 583 q 465 652 496 636 q 389 668 435 668 q 261 647 322 668 q 156 594 200 625 l 106 685 q 238 746 158 718 q 410 774 318 774 q 528 751 478 774 q 609 688 578 729 q 656 590 640 647 q 671 464 671 533 l 671 0 l 567 0 l 556 81 l 551 81 q 434 9 497 36 q 300 -18 371 -18 m 336 83 q 440 103 392 83 q 544 171 489 122 l 544 394 q 378 374 444 388 q 274 339 313 361 q 219 285 235 317 q 204 211 204 254 q 242 115 204 146 q 336 83 279 83 z "},"b":{"ha":858,"x_min":128,"x_max":788,"o":"m 460 -18 q 351 7 407 -18 q 244 78 294 32 l 240 78 l 229 0 l 128 0 l 128 1106 l 254 1106 l 254 803 l 250 667 q 363 742 301 711 q 486 774 424 774 q 616 746 560 774 q 710 668 672 718 q 768 547 749 618 q 788 390 788 476 q 760 217 788 293 q 688 88 733 140 q 584 9 643 36 q 460 -18 525 -18 m 439 88 q 526 108 486 88 q 594 167 565 129 q 640 261 624 206 q 656 388 656 317 q 644 501 656 450 q 610 590 633 553 q 549 647 586 626 q 457 667 511 667 q 358 640 408 667 q 254 563 308 614 l 254 167 q 353 105 304 122 q 439 88 401 88 z "},"c":{"ha":707,"x_min":71,"x_max":668,"o":"m 425 -18 q 285 8 350 -18 q 173 85 221 35 q 98 209 125 136 q 71 376 71 282 q 101 544 71 471 q 181 669 131 618 q 297 747 231 721 q 435 774 363 774 q 563 747 510 774 q 656 685 615 721 l 590 600 q 521 649 557 631 q 439 668 485 668 q 344 647 388 668 q 270 588 301 626 q 221 495 239 549 q 203 376 203 442 q 219 258 203 311 q 267 167 236 204 q 341 108 299 129 q 436 88 383 88 q 533 109 489 88 q 614 163 578 131 l 668 78 q 556 7 618 32 q 425 -18 493 -18 z "},"d":{"ha":861,"x_min":74,"x_max":732,"o":"m 385 -18 q 256 8 314 -18 q 158 85 199 35 q 96 208 118 135 q 74 376 74 282 q 101 542 74 468 q 172 667 128 615 q 276 746 217 718 q 400 774 335 774 q 515 750 467 774 q 613 685 563 726 l 606 815 l 606 1106 l 732 1106 l 732 0 l 629 0 l 617 89 l 614 89 q 511 13 569 44 q 385 -18 453 -18 m 413 88 q 512 113 465 88 q 606 192 558 139 l 606 588 q 513 649 557 631 q 422 667 469 667 q 337 646 376 667 q 267 587 297 625 q 221 495 238 549 q 204 378 204 442 q 258 164 204 240 q 413 88 313 88 z "},"e":{"ha":769,"x_min":71,"x_max":711,"o":"m 432 -18 q 291 8 357 -18 q 176 85 225 35 q 99 210 128 136 q 71 376 71 283 q 99 542 71 468 q 175 667 128 615 q 284 746 222 718 q 411 774 346 774 q 539 749 483 774 q 633 677 594 724 q 691 565 671 631 q 711 419 711 500 q 710 380 711 399 q 706 347 708 361 l 197 347 q 272 154 204 225 q 447 83 339 83 q 549 99 503 83 q 636 143 594 115 l 682 60 q 571 5 632 28 q 432 -18 510 -18 m 600 438 q 551 613 600 553 q 413 672 501 672 q 335 656 372 672 q 269 610 299 640 q 221 537 240 581 q 196 438 201 493 l 600 438 z "},"f":{"ha":451,"x_min":46,"x_max":494,"o":"m 467 1003 q 382 1022 424 1022 q 275 874 275 1022 l 275 754 l 435 754 l 435 651 l 275 651 l 275 0 l 149 0 l 149 651 l 46 651 l 46 747 l 149 754 l 149 875 q 202 1057 149 990 q 368 1124 256 1124 q 435 1117 403 1124 q 494 1099 467 1110 l 467 1003 z "},"g":{"ha":782,"x_min":69,"x_max":763,"o":"m 382 -347 q 255 -334 313 -347 q 156 -295 197 -321 q 92 -231 115 -269 q 69 -144 69 -193 q 99 -52 69 -96 q 182 26 129 -8 l 182 32 q 132 81 151 50 q 113 156 113 111 q 140 239 113 203 q 197 296 168 275 l 197 301 q 129 384 160 332 q 99 504 99 436 q 122 616 99 567 q 183 701 144 665 q 274 755 222 736 q 382 774 325 774 q 441 767 414 774 q 488 754 468 761 l 750 754 l 750 657 l 596 657 q 640 590 624 631 q 657 501 657 550 q 635 392 657 440 q 576 310 614 344 q 489 257 539 275 q 382 239 439 239 q 269 265 322 239 q 235 227 249 247 q 221 175 221 207 q 249 116 221 139 q 353 93 276 93 l 500 93 q 697 50 632 93 q 763 -86 763 7 q 736 -186 763 -139 q 660 -269 710 -233 q 540 -326 610 -306 q 382 -347 469 -347 m 382 325 q 443 338 414 325 q 494 374 472 350 q 528 430 515 397 q 542 504 542 463 q 495 634 542 588 q 382 681 449 681 q 268 634 315 681 q 221 504 221 588 q 234 430 221 463 q 269 374 247 397 q 319 338 290 350 q 382 325 349 325 m 400 -261 q 499 -248 454 -261 q 574 -213 543 -235 q 623 -163 606 -192 q 640 -106 640 -135 q 601 -33 640 -53 q 486 -12 561 -12 l 356 -12 q 309 -10 335 -12 q 258 0 283 -7 q 199 -62 218 -29 q 181 -128 181 -94 q 238 -225 181 -189 q 400 -261 296 -261 z "},"h":{"ha":843,"x_min":128,"x_max":731,"o":"m 128 1106 l 254 1106 l 254 803 l 250 647 q 363 737 303 700 q 500 774 422 774 q 675 699 619 774 q 731 478 731 624 l 731 0 l 604 0 l 604 461 q 570 615 604 568 q 461 663 536 663 q 357 633 403 663 q 254 547 311 604 l 254 0 l 128 0 l 128 1106 z "},"i":{"ha":382,"x_min":104,"x_max":279,"o":"m 128 754 l 254 754 l 254 0 l 128 0 l 128 754 m 192 910 q 129 933 154 910 q 104 992 104 956 q 129 1052 104 1031 q 192 1074 154 1074 q 254 1052 229 1074 q 279 992 279 1031 q 254 933 279 956 q 192 910 229 910 z "},"j":{"ha":382,"x_min":-61,"x_max":281,"o":"m 50 -337 q -13 -331 15 -337 q -61 -318 -42 -325 l -36 -221 q -3 -231 -21 -226 q 35 -235 15 -235 q 110 -195 92 -235 q 129 -86 129 -156 l 129 754 l 256 754 l 256 -86 q 208 -269 256 -201 q 50 -337 161 -337 m 193 910 q 131 933 156 910 q 106 992 106 956 q 131 1052 106 1031 q 193 1074 156 1074 q 255 1052 229 1074 q 281 992 281 1031 q 255 933 281 956 q 193 910 229 910 z "},"k":{"ha":767,"x_min":128,"x_max":753,"o":"m 128 1106 l 253 1106 l 253 356 l 256 356 l 579 754 l 719 754 l 467 451 l 753 0 l 615 0 l 394 364 l 253 199 l 253 0 l 128 0 l 128 1106 z "},"l":{"ha":379,"x_min":128,"x_max":254,"o":"m 128 0 l 128 1106 l 254 1106 l 254 0 l 128 0 z "},"m":{"ha":1286,"x_min":128,"x_max":1168,"o":"m 128 754 l 232 754 l 243 644 l 247 644 q 355 736 296 699 q 482 774 414 774 q 618 735 569 774 q 690 629 667 696 q 809 733 749 693 q 939 774 869 774 q 1113 699 1057 774 q 1168 478 1168 624 l 1168 0 l 1042 0 l 1042 461 q 1008 615 1042 568 q 901 663 974 663 q 711 547 817 663 l 711 0 l 585 0 l 585 461 q 551 615 585 568 q 444 663 517 663 q 254 547 357 663 l 254 0 l 128 0 l 128 754 z "},"n":{"ha":849,"x_min":128,"x_max":731,"o":"m 128 754 l 232 754 l 243 646 l 247 646 q 362 736 301 699 q 500 774 422 774 q 675 699 619 774 q 731 478 731 624 l 731 0 l 604 0 l 604 461 q 570 615 604 568 q 461 663 536 663 q 357 633 403 663 q 254 547 311 604 l 254 0 l 128 0 l 128 754 z "},"o":{"ha":842,"x_min":71,"x_max":771,"o":"m 421 -18 q 288 8 351 -18 q 176 85 225 35 q 99 209 128 136 q 71 376 71 282 q 99 544 71 471 q 176 669 128 618 q 288 747 225 721 q 421 774 351 774 q 553 747 490 774 q 665 669 617 721 q 742 544 714 618 q 771 376 771 471 q 742 209 771 282 q 665 85 714 136 q 553 8 617 35 q 421 -18 490 -18 m 421 88 q 510 108 469 88 q 579 167 550 129 q 624 258 608 204 q 640 376 640 311 q 624 495 640 442 q 579 588 608 549 q 510 647 550 626 q 421 668 469 668 q 332 647 372 668 q 263 588 292 626 q 219 495 235 549 q 203 376 203 442 q 219 258 203 311 q 263 167 235 204 q 332 108 292 129 q 421 88 372 88 z "},"p":{"ha":861,"x_min":128,"x_max":788,"o":"m 128 754 l 232 754 l 243 668 l 247 668 q 360 742 299 710 q 488 774 421 774 q 616 746 560 774 q 710 668 672 718 q 768 547 749 618 q 788 389 788 476 q 760 216 788 292 q 688 88 733 140 q 584 9 643 36 q 460 -18 525 -18 q 356 5 408 -18 q 251 69 303 28 l 254 -62 l 254 -318 l 128 -318 l 128 754 m 439 88 q 526 108 486 88 q 594 167 565 129 q 640 261 624 206 q 656 388 656 317 q 644 501 656 450 q 610 590 633 553 q 549 647 586 626 q 457 667 511 667 q 359 640 408 667 q 254 563 310 614 l 254 167 q 353 105 306 122 q 439 88 401 88 z "},"q":{"ha":861,"x_min":74,"x_max":732,"o":"m 606 -50 l 613 88 q 509 13 567 43 q 385 -18 451 -18 q 256 8 314 -18 q 158 85 199 35 q 96 208 118 135 q 74 376 74 282 q 101 542 74 468 q 172 667 128 615 q 276 746 217 718 q 400 774 335 774 q 517 750 467 774 q 615 682 567 726 l 619 682 l 632 754 l 732 754 l 732 -318 l 606 -318 l 606 -50 m 413 88 q 512 113 465 88 q 606 192 558 139 l 606 588 q 513 649 557 631 q 422 667 469 667 q 337 646 376 667 q 267 587 297 625 q 221 495 238 549 q 204 378 204 442 q 258 164 204 240 q 413 88 313 88 z "},"r":{"ha":539,"x_min":128,"x_max":542,"o":"m 128 754 l 232 754 l 243 617 l 247 617 q 342 731 288 689 q 461 774 397 774 q 505 770 486 774 q 542 757 524 767 l 518 646 q 483 656 499 653 q 444 658 468 658 q 395 649 421 658 q 344 620 369 640 q 296 567 319 600 q 254 485 272 533 l 254 0 l 128 0 l 128 754 z "},"s":{"ha":650,"x_min":43,"x_max":600,"o":"m 325 -18 q 171 12 244 -18 q 43 86 97 42 l 106 169 q 208 105 154 129 q 329 81 261 81 q 441 115 404 81 q 478 199 478 150 q 463 249 478 228 q 423 286 447 269 q 367 316 399 303 q 306 342 336 329 q 226 374 265 356 q 153 417 186 392 q 101 477 121 443 q 81 560 81 511 q 98 643 81 604 q 149 711 115 682 q 231 757 182 740 q 340 774 279 774 q 471 749 411 774 q 575 689 531 724 l 514 607 q 433 655 474 636 q 340 674 392 674 q 236 642 269 674 q 203 565 203 610 q 217 519 203 538 q 254 485 231 500 q 308 459 278 471 q 369 435 338 447 q 452 401 411 419 q 526 358 493 383 q 579 296 558 332 q 600 206 600 260 q 582 119 600 160 q 529 48 564 78 q 443 0 494 18 q 325 -18 392 -18 z "},"t":{"ha":524,"x_min":38,"x_max":504,"o":"m 365 -18 q 263 0 304 -18 q 197 51 222 18 q 161 130 172 83 q 150 233 150 176 l 150 651 l 38 651 l 38 747 l 156 754 l 171 965 l 276 965 l 276 754 l 481 754 l 481 651 l 276 651 l 276 231 q 301 122 276 160 q 393 85 326 85 q 436 91 413 85 q 479 104 460 97 l 504 10 q 436 -10 472 -1 q 365 -18 400 -18 z "},"u":{"ha":843,"x_min":118,"x_max":717,"o":"m 347 -18 q 173 57 228 -18 q 118 276 118 132 l 118 754 l 244 754 l 244 292 q 278 139 244 186 q 386 92 311 92 q 490 122 444 92 q 590 219 536 151 l 590 754 l 717 754 l 717 0 l 611 0 l 601 118 l 597 118 q 485 19 544 57 q 347 -18 425 -18 z "},"v":{"ha":724,"x_min":18,"x_max":706,"o":"m 18 754 l 150 754 l 292 325 q 327 213 310 269 q 363 103 344 156 l 368 103 q 403 213 385 156 q 438 325 421 269 l 581 754 l 706 754 l 438 0 l 290 0 l 18 754 z "},"w":{"ha":1114,"x_min":38,"x_max":1076,"o":"m 38 754 l 167 754 l 279 318 q 301 212 290 264 q 324 107 313 160 l 331 107 q 355 213 343 160 q 382 318 367 265 l 499 754 l 622 754 l 740 318 q 767 212 754 264 q 793 107 779 160 l 799 107 q 822 212 811 160 q 846 318 833 264 l 957 754 l 1076 754 l 874 0 l 721 0 l 611 407 q 585 513 596 460 q 560 624 574 565 l 553 624 q 528 512 540 565 q 501 404 517 458 l 396 0 l 247 0 l 38 754 z "},"x":{"ha":692,"x_min":21,"x_max":671,"o":"m 269 393 l 40 754 l 176 754 l 278 588 q 315 525 296 556 q 353 463 333 494 l 358 463 q 393 525 376 494 q 426 588 410 556 l 519 754 l 651 754 l 422 381 l 671 0 l 532 0 l 421 176 q 381 245 401 211 q 340 311 361 279 l 333 311 q 294 245 314 279 q 256 176 275 211 l 154 0 l 21 0 l 269 393 z "},"y":{"ha":724,"x_min":19,"x_max":707,"o":"m 204 -325 l 322 7 l 19 754 l 151 754 l 306 343 q 341 239 322 294 q 378 132 360 183 l 385 132 q 417 238 400 183 q 449 343 433 293 l 583 754 l 707 754 l 322 -325 l 204 -325 z "},"z":{"ha":658,"x_min":49,"x_max":619,"o":"m 49 68 l 446 651 l 92 651 l 92 754 l 606 754 l 606 686 l 208 103 l 619 103 l 619 0 l 49 0 l 49 68 z "},"{":{"ha":469,"x_min":53,"x_max":422,"o":"m 354 -162 q 274 -153 308 -162 q 217 -119 239 -143 q 183 -56 194 -96 q 172 44 172 -17 q 174 124 172 86 q 179 197 176 161 q 184 268 182 232 q 186 343 186 304 q 180 388 186 365 q 159 426 174 410 q 118 454 144 443 q 53 465 92 465 l 53 544 q 118 556 92 544 q 159 583 144 567 q 180 622 174 600 q 186 665 186 643 q 184 740 186 704 q 179 813 182 776 q 174 886 176 849 q 172 965 172 924 q 183 1065 172 1025 q 217 1129 194 1106 q 274 1163 239 1153 q 354 1172 308 1172 l 422 1172 l 422 1101 l 382 1101 q 298 1067 319 1101 q 276 958 276 1033 q 281 822 276 888 q 285 676 285 757 q 264 562 285 601 q 192 508 243 522 l 192 503 q 264 448 243 488 q 285 333 285 408 q 281 188 285 254 q 276 51 276 122 q 298 -57 276 -24 q 382 -90 319 -90 l 422 -90 l 422 -162 l 354 -162 l 354 -162 z "},"|":{"ha":374,"x_min":143,"x_max":232,"o":"m 143 1176 l 232 1176 l 232 -187 l 143 -187 l 143 1176 z "},"}":{"ha":469,"x_min":47,"x_max":417,"o":"m 47 -90 l 88 -90 q 172 -57 151 -90 q 193 51 193 -24 q 190 188 193 122 q 186 333 186 254 q 207 448 186 408 q 278 503 228 488 l 278 508 q 207 562 228 522 q 186 676 186 601 q 190 822 186 757 q 193 958 193 888 q 172 1067 193 1033 q 88 1101 151 1101 l 47 1101 l 47 1172 l 117 1172 q 197 1163 163 1172 q 253 1129 231 1153 q 286 1065 275 1106 q 297 965 297 1025 q 295 886 297 924 q 291 813 293 849 q 287 740 289 776 q 285 665 285 704 q 290 622 285 643 q 311 583 296 600 q 351 556 326 567 q 417 544 376 544 l 417 465 q 351 454 376 465 q 311 426 326 443 q 290 388 296 410 q 285 343 285 365 q 287 268 285 304 q 291 197 289 232 q 295 124 293 161 q 297 44 297 86 q 286 -56 297 -17 q 253 -119 275 -96 q 197 -153 231 -143 q 117 -162 163 -162 l 47 -162 l 47 -90 z "},"~":{"ha":771,"x_min":56,"x_max":715,"o":"m 522 399 q 440 419 476 399 q 371 465 403 440 q 309 510 339 489 q 246 531 279 531 q 183 508 213 531 q 126 436 154 486 l 56 486 q 149 592 99 560 q 250 625 199 625 q 332 605 296 625 q 400 560 368 585 q 462 515 432 535 q 525 494 492 494 q 588 517 558 494 q 643 589 617 539 l 715 538 q 622 431 672 464 q 522 399 572 399 z "},"¡":{"ha":449,"x_min":132,"x_max":315,"o":"m 164 -140 l 181 447 l 268 447 l 285 -140 l 289 -285 l 160 -285 l 164 -140 m 224 579 q 159 606 186 579 q 132 676 132 632 q 159 747 132 719 q 224 774 186 774 q 289 747 263 774 q 315 676 315 719 q 289 606 315 632 q 224 579 263 579 z "},"¤":{"ha":771,"x_min":42,"x_max":729,"o":"m 42 229 l 140 331 q 85 510 85 406 q 140 692 85 619 l 42 794 l 108 864 l 214 756 q 386 814 288 814 q 476 799 432 814 q 557 756 521 783 l 663 864 l 729 794 l 629 692 q 672 610 657 656 q 686 510 686 565 q 672 412 686 457 q 629 331 657 367 l 729 229 l 663 160 l 557 267 q 476 224 521 239 q 386 208 432 208 q 214 267 289 208 l 108 160 l 42 229 m 386 303 q 457 318 424 303 q 515 360 490 333 q 555 426 540 388 q 569 510 569 464 q 555 594 569 556 q 515 661 540 633 q 457 704 490 689 q 386 719 424 719 q 315 704 349 719 q 256 661 281 689 q 216 594 231 633 q 201 510 201 556 q 216 426 201 464 q 256 360 231 388 q 315 318 281 333 q 386 303 349 303 z "},"¥":{"ha":833,"x_min":11,"x_max":817,"o":"m 351 240 l 88 240 l 88 319 l 351 319 l 351 415 l 88 415 l 88 493 l 319 493 l 11 1001 l 144 1001 q 264 788 218 871 q 338 653 310 706 q 382 571 365 601 q 414 514 399 540 l 421 514 q 451 572 435 540 q 497 656 468 603 q 570 790 525 708 q 688 1001 615 872 l 817 1001 l 510 493 l 743 493 l 743 415 l 478 415 l 478 319 l 743 319 l 743 240 l 478 240 l 478 0 l 351 0 l 351 240 z "},"§":{"ha":1389,"x_min":371,"x_max":1017,"o":"m 929 929 q 842 969 900 949 q 706 990 783 990 q 634 980 665 990 q 580 952 603 969 q 545 913 557 935 q 533 869 533 892 q 549 815 533 838 q 594 776 565 793 q 663 747 624 760 q 749 721 703 733 q 945 633 874 688 q 1017 485 1017 579 q 991 374 1017 425 q 925 289 965 322 q 965 235 946 272 q 983 151 983 199 q 959 53 983 97 q 892 -23 935 8 q 793 -72 850 -54 q 672 -89 736 -89 q 523 -72 589 -89 q 413 -19 457 -54 l 451 65 q 536 19 481 42 q 675 -3 592 -3 q 818 38 767 -3 q 869 139 869 79 q 860 188 869 165 q 825 228 850 210 q 758 265 800 247 q 651 303 715 283 q 530 346 582 324 q 442 396 478 368 q 389 460 407 424 q 371 544 371 496 q 396 635 371 585 q 478 726 421 685 q 436 783 451 746 q 422 853 421 819 q 443 941 422 900 q 503 1013 464 982 q 597 1060 542 1043 q 719 1078 651 1078 q 862 1058 800 1078 q 964 1015 924 1039 l 929 929 m 543 683 q 491 623 507 654 q 475 561 475 592 q 481 522 475 540 q 508 485 488 504 q 565 449 528 467 q 664 410 601 431 q 793 365 749 382 q 858 335 838 347 q 899 392 885 358 q 913 460 913 425 q 893 522 913 496 q 842 568 874 549 q 772 602 811 588 q 691 629 732 617 q 611 654 650 642 q 543 683 572 667 z "},"¨":{"ha":842,"x_min":194,"x_max":646,"o":"m 272 911 q 217 933 239 911 q 194 988 194 956 q 217 1043 194 1021 q 272 1065 239 1065 q 327 1043 306 1065 q 349 988 349 1021 q 327 933 349 956 q 272 911 306 911 m 569 911 q 515 933 536 911 q 493 988 493 956 q 515 1043 493 1021 q 569 1065 536 1065 q 624 1043 603 1065 q 646 988 646 1021 q 624 933 646 956 q 569 911 603 911 z "},"«":{"ha":665,"x_min":69,"x_max":611,"o":"m 69 368 l 69 414 l 303 681 l 365 626 l 165 389 q 267 272 214 333 q 367 153 321 210 l 303 103 l 69 368 m 314 368 l 314 414 l 547 681 l 610 626 l 410 389 q 512 272 458 333 q 611 153 565 210 l 547 103 l 314 368 z "},"°":{"ha":514,"x_min":63,"x_max":451,"o":"m 257 667 q 183 681 218 667 q 122 720 149 694 q 78 783 94 746 q 63 864 63 819 q 78 946 63 910 q 122 1008 94 982 q 183 1049 149 1035 q 257 1063 218 1063 q 331 1049 296 1063 q 393 1008 367 1035 q 435 946 419 982 q 451 864 451 910 q 435 783 451 819 q 393 720 419 746 q 331 681 367 694 q 257 667 296 667 m 257 738 q 342 773 310 738 q 374 864 374 808 q 342 956 374 921 q 257 992 310 992 q 172 956 204 992 q 140 864 140 921 q 172 773 140 808 q 257 738 204 738 z "},"±":{"ha":1389,"x_min":190,"x_max":1204,"o":"m 1199 640 l 742 640 l 742 258 l 647 258 l 647 640 l 190 640 l 190 736 l 647 736 l 647 1117 l 742 1117 l 742 736 l 1199 736 l 1199 640 m 1204 121 l 1204 25 l 190 25 l 190 121 l 1204 121 z "},"²":{"ha":569,"x_min":61,"x_max":496,"o":"m 81 669 q 205 784 151 733 q 295 877 258 835 q 350 956 332 919 q 368 1026 368 992 q 336 1120 368 1086 q 251 1154 304 1154 q 180 1128 213 1154 q 121 1065 147 1103 l 61 1119 q 150 1204 97 1172 q 265 1236 203 1236 q 410 1187 356 1236 q 465 1040 465 1138 q 449 957 465 997 q 401 875 432 917 q 330 790 371 833 q 240 697 289 747 l 496 697 l 496 613 l 81 613 l 81 669 z "},"³":{"ha":569,"x_min":56,"x_max":494,"o":"m 281 594 q 148 628 206 594 q 56 713 90 661 l 121 763 q 188 697 149 721 q 274 672 226 672 q 360 701 324 672 q 396 781 396 729 q 347 862 396 833 q 207 890 297 890 l 207 953 q 329 984 286 953 q 372 1063 372 1015 q 342 1132 372 1106 q 263 1158 313 1158 q 197 1138 229 1158 q 139 1085 165 1117 l 81 1138 q 166 1209 118 1182 q 276 1236 214 1236 q 351 1225 315 1236 q 413 1193 386 1214 q 456 1142 440 1172 q 471 1074 471 1111 q 441 983 471 1019 q 364 925 411 947 q 456 874 417 911 q 494 775 494 836 q 477 700 494 733 q 431 643 460 667 q 363 607 401 619 q 281 594 324 594 z "},"´":{"ha":842,"x_min":333,"x_max":642,"o":"m 333 953 l 553 1211 l 642 1126 l 399 890 l 333 953 z "},"¶":{"ha":1389,"x_min":335,"x_max":958,"o":"m 663 408 l 650 408 q 547 426 601 408 q 445 482 492 444 q 367 576 399 519 q 336 711 336 633 q 354 835 335 772 q 423 947 374 897 q 558 1029 472 997 q 775 1061 643 1061 q 888 1058 846 1061 q 958 1049 931 1056 l 958 -79 l 869 -79 l 869 974 l 751 974 l 751 -79 l 663 -79 l 663 408 z "},"·":{"ha":779,"x_min":292,"x_max":475,"o":"m 383 408 q 319 435 346 408 q 292 504 292 463 q 319 576 292 549 q 383 603 346 603 q 448 576 421 603 q 475 504 475 549 q 448 435 475 463 q 383 408 421 408 z "},"¸":{"ha":842,"x_min":285,"x_max":551,"o":"m 285 -289 q 417 -264 382 -282 q 453 -211 453 -246 q 426 -165 453 -182 q 333 -136 400 -147 l 400 4 l 483 4 l 439 -100 q 522 -137 492 -112 q 551 -208 551 -161 q 485 -310 551 -276 q 297 -351 419 -344 l 285 -289 z "},"¹":{"ha":569,"x_min":136,"x_max":367,"o":"m 267 1092 l 136 1092 l 136 1156 q 219 1180 186 1165 q 285 1218 253 1194 l 367 1218 l 367 613 l 267 613 l 267 1092 z "},"»":{"ha":665,"x_min":54,"x_max":596,"o":"m 596 410 l 596 364 l 363 97 l 300 151 l 500 389 q 398 506 451 444 q 299 625 344 568 l 363 675 l 596 410 m 351 410 l 351 364 l 118 97 l 56 151 l 256 389 q 153 506 207 444 q 54 625 100 568 l 118 675 l 351 410 z "},"¼":{"ha":1211,"x_min":99,"x_max":1163,"o":"m 229 414 l 229 892 l 99 892 l 99 957 q 182 981 149 967 q 247 1018 215 994 l 328 1018 l 328 414 l 229 414 m 928 1038 l 365 -18 l 281 -18 l 842 1038 l 928 1038 m 982 232 l 982 343 l 990 511 l 983 511 l 906 385 l 810 232 l 982 232 m 1163 163 l 1072 163 l 1072 0 l 982 0 l 982 163 l 707 163 l 707 213 l 961 606 l 1072 606 l 1072 232 l 1163 232 l 1163 163 z "},"½":{"ha":1254,"x_min":99,"x_max":1181,"o":"m 229 892 l 99 892 l 99 957 q 182 981 149 967 q 247 1018 215 994 l 328 1018 l 328 414 l 229 414 l 229 892 m 810 1038 l 896 1038 l 333 -18 l 249 -18 l 810 1038 m 765 57 q 890 172 836 121 q 979 265 943 222 q 1033 343 1015 307 q 1051 414 1051 379 q 1020 507 1051 472 q 935 542 989 542 q 863 516 896 542 q 806 453 831 490 l 746 507 q 833 592 781 560 q 947 624 885 624 q 1094 574 1039 624 q 1149 428 1149 524 q 1132 343 1149 383 q 1085 262 1115 303 q 1013 178 1054 221 q 924 85 972 135 l 1181 85 l 1181 0 l 765 0 l 765 57 z "},"¾":{"ha":1235,"x_min":53,"x_max":1185,"o":"m 78 938 q 164 1010 117 983 q 275 1038 211 1038 q 349 1026 314 1038 q 411 994 385 1015 q 453 943 438 974 q 468 875 468 913 q 438 784 468 821 q 363 726 408 747 q 453 675 414 713 q 492 576 492 638 q 475 501 492 535 q 429 444 458 468 q 361 407 400 419 q 278 394 322 394 q 145 428 203 394 q 53 513 88 461 l 118 564 q 185 498 146 522 q 272 474 225 474 q 358 501 322 474 q 393 582 393 529 q 344 663 393 635 q 206 690 296 690 l 206 753 q 328 784 285 753 q 371 863 371 815 q 340 933 371 906 q 261 960 310 960 q 194 938 226 960 q 138 885 163 917 l 78 938 m 986 1038 l 424 -18 l 339 -18 l 901 1038 l 986 1038 m 1006 232 l 1006 343 l 1014 511 l 1007 511 l 929 385 l 833 232 l 1006 232 m 1185 163 l 1094 163 l 1094 0 l 1006 0 l 1006 163 l 731 163 l 731 213 l 985 606 l 1094 606 l 1094 232 l 1185 232 l 1185 163 z "},"¿":{"ha":658,"x_min":74,"x_max":600,"o":"m 333 -304 q 227 -287 275 -304 q 145 -237 179 -269 q 92 -160 111 -206 q 74 -57 74 -114 q 92 36 74 -6 q 137 116 110 78 q 195 190 164 154 q 251 265 226 226 q 290 349 276 304 q 299 447 304 393 l 411 447 q 407 338 419 386 q 371 248 394 289 q 317 171 347 207 q 260 100 286 135 q 215 29 233 65 q 197 -47 197 -7 q 235 -156 197 -111 q 347 -200 272 -200 q 445 -176 400 -200 q 526 -110 490 -151 l 600 -176 q 484 -268 550 -232 q 333 -304 418 -304 m 351 579 q 287 606 314 579 q 260 676 260 632 q 287 747 260 719 q 351 774 314 774 q 416 747 389 774 q 443 676 443 719 q 416 606 443 632 q 351 579 389 579 z "},"×":{"ha":1389,"x_min":247,"x_max":1142,"o":"m 1075 75 l 694 456 l 315 75 l 247 142 l 628 522 l 247 901 l 315 969 l 694 589 l 1075 969 l 1142 903 l 763 522 l 1142 142 l 1075 75 z "},"÷":{"ha":1389,"x_min":190,"x_max":1199,"o":"m 594 875 q 624 947 594 917 q 694 976 653 976 q 765 947 736 976 q 794 875 794 917 q 765 805 794 835 q 694 775 736 775 q 624 805 653 775 q 594 875 594 835 m 1199 569 l 1199 474 l 190 474 l 190 569 l 1199 569 m 594 168 q 624 238 594 208 q 694 268 653 268 q 765 238 736 268 q 794 168 794 208 q 765 97 794 126 q 694 67 736 67 q 624 97 653 67 q 594 168 594 126 z "},"ˇ":{"ha":1389,"x_min":325,"x_max":1061,"o":"m 1061 753 l 694 192 l 325 753 l 457 753 l 694 379 l 922 753 l 1061 753 z "},"˙":{"ha":1389,"x_min":563,"x_max":822,"o":"m 693 403 q 599 442 635 403 q 563 531 564 481 q 572 580 563 556 q 597 623 581 604 q 638 653 614 642 q 693 665 663 665 q 747 654 724 665 q 788 624 771 643 q 813 581 804 606 q 822 531 822 557 q 788 440 822 478 q 693 403 754 403 z "},"‘":{"ha":386,"x_min":88,"x_max":289,"o":"m 289 1158 q 201 1076 231 1119 q 171 965 172 1032 q 185 967 175 967 q 242 947 217 967 q 267 889 267 926 q 244 826 267 849 q 185 804 221 804 q 113 840 139 804 q 88 943 88 876 q 130 1103 88 1036 q 253 1218 172 1171 l 289 1158 z "},"’":{"ha":386,"x_min":97,"x_max":299,"o":"m 97 867 q 184 950 156 907 q 214 1060 213 993 q 200 1058 210 1058 q 144 1078 168 1058 q 119 1138 119 1099 q 142 1200 119 1178 q 200 1222 164 1222 q 272 1185 246 1222 q 299 1082 299 1149 q 256 922 299 989 q 133 807 214 854 l 97 867 z "},"“":{"ha":660,"x_min":88,"x_max":561,"o":"m 289 1157 q 201 1074 231 1118 q 171 964 172 1031 q 185 965 175 965 q 242 945 217 965 q 267 888 267 925 q 244 825 267 847 q 185 803 221 803 q 113 839 139 803 q 88 942 88 875 q 130 1102 88 1035 q 253 1217 172 1169 l 289 1157 m 561 1157 q 475 1074 504 1118 q 444 964 446 1031 q 457 965 449 965 q 515 945 489 965 q 540 888 540 925 q 517 825 540 847 q 457 803 493 803 q 386 839 411 803 q 361 942 361 875 q 403 1102 361 1035 q 525 1217 446 1169 l 561 1157 z "},"”":{"ha":660,"x_min":97,"x_max":571,"o":"m 97 864 q 184 947 156 904 q 214 1057 213 990 q 200 1056 210 1056 q 144 1076 168 1056 q 119 1135 119 1096 q 142 1197 119 1175 q 200 1219 164 1219 q 272 1183 246 1219 q 299 1079 299 1146 q 256 919 299 986 q 133 804 214 851 l 97 864 m 369 864 q 457 947 428 904 q 488 1057 486 990 q 474 1056 483 1056 q 417 1076 442 1056 q 392 1135 392 1096 q 415 1197 392 1175 q 474 1219 438 1219 q 545 1183 519 1219 q 571 1079 571 1146 q 528 919 571 986 q 406 804 486 851 l 369 864 z "},"†":{"ha":1389,"x_min":363,"x_max":1026,"o":"m 744 725 l 1026 732 l 1026 626 l 744 635 l 754 -78 l 635 -78 l 644 635 l 363 626 l 363 732 l 644 725 l 635 1061 l 754 1061 l 744 725 z "},"‡":{"ha":1389,"x_min":363,"x_max":1026,"o":"m 744 742 l 1026 750 l 1026 644 l 744 653 l 744 331 l 1026 339 l 1026 232 l 744 240 l 754 -78 l 635 -78 l 644 240 l 363 232 l 363 339 l 644 331 l 644 653 l 363 644 l 363 750 l 644 742 l 635 1061 l 754 1061 l 744 742 z "},"‥":{"ha":1389,"x_min":256,"x_max":1133,"o":"m 256 528 q 282 593 256 567 q 347 619 308 619 q 413 593 386 619 q 439 528 439 567 q 413 463 439 489 q 347 436 386 436 q 282 463 308 436 q 256 528 256 489 m 950 528 q 976 593 950 567 q 1042 619 1003 619 q 1107 593 1081 619 q 1133 528 1133 567 q 1107 463 1133 489 q 1042 436 1081 436 q 976 463 1003 436 q 950 528 950 489 z "},"…":{"ha":1389,"x_min":140,"x_max":1249,"o":"m 140 528 q 167 593 140 567 q 232 619 193 619 q 297 593 271 619 q 324 528 324 567 q 297 463 324 489 q 232 436 271 436 q 167 463 193 436 q 140 528 140 489 m 603 528 q 629 593 603 567 q 694 619 656 619 q 760 593 733 619 q 786 528 786 567 q 760 463 786 489 q 694 436 733 436 q 629 463 656 436 q 603 528 603 489 m 1065 528 q 1092 593 1065 567 q 1157 619 1118 619 q 1222 593 1196 619 q 1249 528 1249 567 q 1222 463 1249 489 q 1157 436 1196 436 q 1092 463 1118 436 q 1065 528 1065 489 z "},"‰":{"ha":1389,"x_min":47,"x_max":1342,"o":"m 710 1042 l 781 1042 l 246 -22 l 174 -22 l 710 1042 m 47 725 q 61 857 47 799 q 100 955 75 915 q 158 1015 125 994 q 229 1035 192 1035 q 302 1013 269 1035 q 358 949 335 990 q 393 851 381 908 q 406 725 406 794 q 390 587 406 644 q 350 492 375 529 q 293 436 325 454 q 228 418 261 418 q 154 440 188 418 q 97 501 121 461 q 60 599 74 542 q 47 725 47 656 m 325 725 q 321 806 325 764 q 306 885 317 849 q 276 944 296 921 q 225 967 256 967 q 177 944 196 967 q 148 885 158 921 q 133 808 138 850 q 129 726 129 765 q 133 642 129 685 q 148 565 138 600 q 177 508 158 531 q 226 486 196 486 q 276 509 257 486 q 306 567 296 532 q 321 644 317 601 q 325 725 325 686 m 550 294 q 564 426 550 368 q 603 524 578 485 q 661 585 628 564 q 732 606 694 606 q 805 583 772 606 q 860 520 838 561 q 896 422 883 479 q 908 296 908 365 q 893 157 908 215 q 853 61 878 99 q 796 6 828 24 q 731 -12 764 -12 q 657 9 690 -12 q 600 71 624 31 q 563 168 576 111 q 550 294 550 225 m 983 294 q 997 426 983 368 q 1035 524 1011 485 q 1093 585 1060 564 q 1164 606 1126 606 q 1238 583 1204 606 q 1294 520 1271 561 q 1329 422 1317 479 q 1342 296 1342 365 q 1326 157 1342 215 q 1286 61 1311 99 q 1229 6 1261 24 q 1163 -12 1197 -12 q 1090 9 1122 -12 q 1033 71 1057 31 q 997 168 1010 111 q 983 294 983 225 m 828 294 q 824 376 828 333 q 809 456 819 419 q 778 515 799 492 q 728 538 758 538 q 680 515 699 538 q 651 456 661 492 q 636 378 640 421 q 632 296 632 335 q 636 212 632 254 q 651 135 640 169 q 680 78 661 100 q 729 56 699 56 q 779 78 760 56 q 809 137 799 101 q 824 214 819 172 q 828 294 828 256 m 1260 294 q 1256 375 1260 332 q 1242 454 1253 418 q 1211 514 1231 490 q 1161 538 1192 538 q 1113 515 1132 538 q 1083 456 1094 492 q 1068 378 1072 421 q 1064 296 1064 335 q 1067 213 1064 256 q 1082 135 1071 171 q 1112 78 1093 100 q 1163 56 1131 56 q 1213 78 1193 56 q 1242 137 1232 101 q 1256 214 1253 172 q 1260 294 1260 256 z "},"′":{"ha":386,"x_min":126,"x_max":285,"o":"m 161 1071 l 285 1069 l 264 929 l 210 699 l 126 700 l 161 1071 z "},"″":{"ha":660,"x_min":126,"x_max":558,"o":"m 161 1071 l 285 1069 l 264 929 l 210 699 l 126 700 l 161 1071 m 433 1071 l 558 1069 l 536 929 l 483 699 l 400 700 l 433 1071 z "},"‹":{"ha":419,"x_min":68,"x_max":365,"o":"m 68 368 l 68 414 l 301 681 l 364 626 l 164 389 q 266 272 213 333 q 365 153 319 210 l 301 103 l 68 368 z "},"›":{"ha":419,"x_min":53,"x_max":350,"o":"m 350 411 l 350 365 l 117 99 l 54 153 l 254 389 q 152 508 206 446 q 53 626 99 569 l 117 676 l 350 411 z "},"※":{"ha":1285,"x_min":160,"x_max":1136,"o":"m 258 424 q 190 453 219 424 q 160 522 160 483 q 188 592 160 565 q 258 619 215 619 q 329 592 297 619 q 361 522 361 565 q 331 453 361 483 q 258 424 301 424 m 1121 119 l 1049 42 l 640 454 q 439 249 543 354 q 238 42 335 143 l 165 114 l 574 522 q 371 724 476 619 q 165 925 265 828 l 238 1003 l 646 589 l 1054 1003 l 1121 931 l 713 522 l 1121 119 m 631 801 q 561 831 590 801 q 532 899 532 860 q 561 969 532 942 q 631 997 590 997 q 703 969 672 997 q 733 899 733 942 q 703 831 733 860 q 631 801 672 801 m 635 31 q 567 60 596 31 q 538 129 538 90 q 565 200 538 172 q 635 228 592 228 q 703 200 674 228 q 733 129 733 172 q 706 60 733 90 q 635 31 678 31 m 1038 424 q 967 451 999 424 q 935 517 935 478 q 965 592 935 564 q 1033 619 994 619 q 1106 592 1076 619 q 1136 517 1136 564 q 1107 451 1136 478 q 1038 424 1078 424 z "},"₩":{"ha":1157,"x_min":-11,"x_max":1122,"o":"m 1122 471 l 958 471 l 857 0 l 735 0 l 628 471 l 486 471 l 382 0 l 268 0 l 158 471 l -11 471 l -11 546 l 146 546 l 39 996 l 156 996 l 247 546 l 411 546 l 494 936 l 622 936 l 710 546 l 881 546 l 967 996 l 1074 996 l 976 546 l 1122 546 l 1122 471 m 396 471 l 260 471 l 290 314 l 328 118 l 365 314 l 396 471 m 615 546 l 561 840 l 501 546 l 615 546 m 865 471 l 725 471 l 758 314 l 793 118 l 836 314 l 865 471 z "},"℃":{"ha":1389,"x_min":65,"x_max":1331,"o":"m 261 663 q 185 676 221 663 q 124 717 150 690 q 81 780 97 743 q 65 861 65 817 q 81 944 65 907 q 124 1006 97 981 q 185 1046 150 1032 q 261 1060 221 1060 q 335 1046 300 1060 q 397 1006 371 1032 q 440 944 424 981 q 456 861 456 907 q 440 780 456 817 q 397 717 424 743 q 335 676 371 690 q 261 663 300 663 m 261 735 q 345 770 313 735 q 378 861 378 806 q 345 953 378 918 q 261 988 313 988 q 176 953 208 988 q 144 861 144 918 q 176 770 144 806 q 261 735 208 735 m 1021 -18 q 843 17 925 -18 q 701 120 761 53 q 608 285 642 188 q 574 507 574 383 q 608 728 574 631 q 703 894 642 826 q 847 999 764 963 q 1028 1035 929 1035 q 1114 1024 1074 1035 q 1190 997 1154 1014 q 1255 956 1225 979 q 1307 910 1285 933 l 1232 826 q 1142 894 1192 869 q 1029 918 1093 918 q 899 890 957 918 q 799 808 840 861 q 734 680 757 756 q 711 510 711 604 q 733 339 711 415 q 795 209 754 263 q 894 127 836 156 q 1024 99 951 99 q 1151 127 1097 99 q 1254 210 1206 156 l 1331 128 q 1194 19 1269 57 q 1021 -18 1118 -18 z "},"℉":{"ha":1389,"x_min":115,"x_max":1294,"o":"m 311 663 q 235 676 271 663 q 174 717 200 690 q 131 780 147 743 q 115 861 115 817 q 131 944 115 907 q 174 1006 147 981 q 235 1046 200 1032 q 311 1060 271 1060 q 385 1046 350 1060 q 447 1006 421 1032 q 490 944 474 981 q 506 861 506 907 q 490 780 506 817 q 447 717 474 743 q 385 676 421 690 q 311 663 350 663 m 311 735 q 395 770 363 735 q 428 861 428 806 q 395 953 428 918 q 311 988 363 988 q 226 953 258 988 q 194 861 194 918 q 226 770 194 806 q 311 735 258 735 m 706 1017 l 1294 1017 l 1294 904 l 838 904 l 838 565 l 1225 565 l 1225 453 l 838 453 l 838 0 l 706 0 l 706 1017 z "},"№":{"ha":1385,"x_min":92,"x_max":1364,"o":"m 142 -18 q 121 -17 128 -18 q 103 -14 114 -17 l 92 88 q 132 101 119 88 q 144 151 144 114 l 144 990 l 286 990 q 426 672 357 831 q 563 353 496 513 l 650 150 l 656 150 q 647 284 650 224 q 642 398 644 344 q 640 502 640 451 q 639 608 639 553 l 639 857 q 667 971 639 933 q 757 1008 694 1008 q 779 1007 772 1008 q 797 1003 786 1006 l 807 903 q 767 890 779 903 q 754 839 754 876 l 754 0 l 613 0 q 473 318 542 160 q 338 639 404 476 l 249 840 l 243 840 q 251 706 249 767 q 256 592 254 646 q 259 488 258 539 q 260 382 260 438 l 260 133 q 232 19 260 57 q 142 -18 204 -18 m 1125 429 q 1033 446 1076 429 q 958 494 990 463 q 906 572 925 526 q 888 678 888 618 q 906 785 888 738 q 958 863 925 832 q 1033 911 990 894 q 1125 928 1076 928 q 1217 911 1174 928 q 1294 863 1261 894 q 1345 785 1326 832 q 1364 678 1364 738 q 1345 572 1364 618 q 1294 494 1326 526 q 1217 446 1261 463 q 1125 429 1174 429 m 1125 513 q 1224 556 1188 513 q 1260 678 1260 600 q 1224 801 1260 757 q 1125 844 1188 844 q 1027 801 1064 844 q 990 678 990 757 q 1027 556 990 600 q 1125 513 1064 513 m 929 310 l 1321 310 l 1321 233 l 929 233 l 929 310 z "},"℡":{"ha":1389,"x_min":36,"x_max":1347,"o":"m 207 917 l 36 917 l 36 1017 l 488 1017 l 488 917 l 317 917 l 317 0 l 207 0 l 207 917 m 556 803 l 903 803 l 903 710 l 664 710 l 664 463 l 846 463 l 846 375 l 664 375 l 664 93 l 918 93 l 918 0 l 556 0 l 556 803 m 1010 803 l 1119 803 l 1119 97 l 1347 97 l 1347 0 l 1010 0 l 1010 803 z "},"™":{"ha":988,"x_min":4,"x_max":944,"o":"m 160 965 l 4 965 l 4 1050 l 406 1050 l 406 965 l 250 965 l 250 568 l 160 568 l 160 965 m 482 1050 l 594 1050 l 667 869 l 711 747 l 717 747 l 760 869 l 831 1050 l 944 1050 l 944 568 l 858 568 l 858 782 l 868 944 l 863 944 l 749 642 l 676 642 l 564 944 l 557 944 l 568 782 l 568 568 l 482 568 l 482 1050 z "},"Å":{"ha":1389,"x_min":276,"x_max":1113,"o":"m 843 413 l 796 565 q 744 735 768 651 q 694 908 719 819 l 688 908 q 589 565 642 733 l 540 413 l 843 413 m 692 1263 q 610 1230 643 1263 q 576 1143 576 1197 q 610 1053 576 1085 q 692 1022 643 1022 q 771 1053 738 1022 q 804 1143 804 1085 q 771 1230 804 1197 q 692 1263 738 1263 m 876 307 l 508 307 l 411 0 l 276 0 l 606 981 q 524 1045 554 1001 q 493 1150 493 1089 q 549 1283 493 1233 q 692 1332 604 1332 q 769 1319 733 1332 q 833 1282 806 1306 q 875 1225 860 1258 q 890 1150 890 1192 q 860 1047 890 1090 q 779 982 829 1003 l 1113 0 l 972 0 l 876 307 z "},"Ⅰ":{"ha":1389,"x_min":628,"x_max":761,"o":"m 628 1017 l 761 1017 l 761 0 l 628 0 l 628 1017 z "},"Ⅱ":{"ha":1389,"x_min":424,"x_max":965,"o":"m 424 1017 l 557 1017 l 557 0 l 424 0 l 424 1017 m 833 1017 l 965 1017 l 965 0 l 833 0 l 833 1017 z "},"Ⅲ":{"ha":1389,"x_min":218,"x_max":1171,"o":"m 218 1017 l 351 1017 l 351 0 l 218 0 l 218 1017 m 628 1017 l 761 1017 l 761 0 l 628 0 l 628 1017 m 1038 1017 l 1171 1017 l 1171 0 l 1038 0 l 1038 1017 z "},"Ⅳ":{"ha":1389,"x_min":228,"x_max":1299,"o":"m 228 1017 l 361 1017 l 361 0 l 228 0 l 228 1017 m 499 1017 l 639 1017 l 803 469 q 827 383 815 425 q 850 301 839 342 q 873 220 861 261 q 899 135 885 179 l 906 135 q 931 220 919 179 q 955 301 943 261 q 978 383 967 342 q 1003 469 989 425 l 1164 1017 l 1299 1017 l 976 0 l 822 0 l 499 1017 z "},"Ⅴ":{"ha":1389,"x_min":296,"x_max":1094,"o":"m 296 1017 l 435 1017 l 599 469 q 645 301 624 379 q 694 135 667 224 l 701 135 q 727 220 715 179 q 751 301 739 261 q 774 383 763 342 q 799 469 785 425 l 960 1017 l 1094 1017 l 772 0 l 618 0 l 296 1017 z "},"Ⅵ":{"ha":1389,"x_min":90,"x_max":1160,"o":"m 90 1017 l 229 1017 l 393 469 q 440 301 419 379 q 489 135 461 224 l 496 135 q 522 220 510 179 q 546 301 535 261 q 569 383 557 342 q 594 469 581 425 l 756 1017 l 889 1017 l 568 0 l 414 0 l 90 1017 m 1026 1017 l 1160 1017 l 1160 0 l 1026 0 l 1026 1017 z "},"Ⅶ":{"ha":1389,"x_min":11,"x_max":1281,"o":"m 11 1017 l 151 1017 l 278 469 q 299 383 289 424 q 317 301 308 342 q 338 220 326 261 q 361 135 349 179 l 367 135 q 411 301 393 224 q 450 469 429 379 l 578 1017 l 713 1017 l 443 0 l 281 0 l 11 1017 m 824 1017 l 957 1017 l 957 0 l 824 0 l 824 1017 m 1147 1017 l 1281 1017 l 1281 0 l 1147 0 l 1147 1017 z "},"Ⅷ":{"ha":1389,"x_min":6,"x_max":1289,"o":"m 6 1017 l 128 1017 l 217 469 q 245 301 232 379 q 274 135 258 224 l 279 135 q 309 301 296 224 q 336 469 322 379 l 422 1017 l 539 1017 l 349 0 l 204 0 l 6 1017 m 656 1017 l 771 1017 l 771 0 l 656 0 l 656 1017 m 915 1017 l 1031 1017 l 1031 0 l 915 0 l 915 1017 m 1174 1017 l 1289 1017 l 1289 0 l 1174 0 l 1174 1017 z "},"Ⅸ":{"ha":1389,"x_min":229,"x_max":1274,"o":"m 229 1017 l 363 1017 l 363 0 l 229 0 l 229 1017 m 818 525 l 542 1017 l 689 1017 l 825 758 q 863 689 844 722 q 906 611 881 656 l 911 611 q 947 689 931 656 q 982 758 964 722 l 1115 1017 l 1256 1017 l 978 518 l 1274 0 l 1128 0 l 981 272 q 939 349 960 310 q 894 435 918 389 l 889 435 q 846 349 865 389 q 807 272 826 310 l 663 0 l 524 0 l 818 525 z "},"Ⅹ":{"ha":1389,"x_min":318,"x_max":1069,"o":"m 613 525 l 336 1017 l 483 1017 l 621 758 q 658 689 640 722 q 700 611 675 656 l 706 611 q 742 689 726 656 q 776 758 758 722 l 911 1017 l 1050 1017 l 772 518 l 1069 0 l 922 0 l 775 272 q 734 349 756 310 q 689 435 713 389 l 683 435 q 642 349 661 389 q 603 272 622 310 l 457 0 l 318 0 l 613 525 z "},"ⅰ":{"ha":1389,"x_min":606,"x_max":785,"o":"m 628 753 l 760 753 l 760 0 l 628 0 l 628 753 m 696 907 q 631 931 657 907 q 606 990 606 954 q 631 1051 606 1028 q 696 1074 657 1074 q 758 1051 732 1074 q 785 990 785 1028 q 758 931 785 954 q 696 907 732 907 z "},"ⅱ":{"ha":1389,"x_min":414,"x_max":976,"o":"m 438 753 l 568 753 l 568 0 l 438 0 l 438 753 m 504 907 q 440 931 465 907 q 414 990 414 954 q 440 1051 414 1028 q 504 1074 465 1074 q 567 1051 542 1074 q 593 990 593 1028 q 567 931 593 954 q 504 907 542 907 m 821 753 l 951 753 l 951 0 l 821 0 l 821 753 m 888 907 q 823 931 849 907 q 797 990 797 954 q 823 1051 797 1028 q 888 1074 849 1074 q 951 1051 925 1074 q 976 990 976 1028 q 951 931 976 954 q 888 907 925 907 z "},"ⅲ":{"ha":1389,"x_min":222,"x_max":1167,"o":"m 246 753 l 378 753 l 378 0 l 246 0 l 246 753 m 313 907 q 249 931 275 907 q 222 990 222 954 q 249 1051 222 1028 q 313 1074 275 1074 q 376 1051 350 1074 q 401 990 401 1028 q 376 931 401 954 q 313 907 350 907 m 628 753 l 760 753 l 760 0 l 628 0 l 628 753 m 696 907 q 631 931 657 907 q 606 990 606 954 q 631 1051 606 1028 q 696 1074 657 1074 q 758 1051 732 1074 q 785 990 785 1028 q 758 931 785 954 q 696 907 732 907 m 1011 753 l 1143 753 l 1143 0 l 1011 0 l 1011 753 m 1078 907 q 1013 931 1039 907 q 988 990 988 954 q 1013 1051 988 1028 q 1078 1074 1039 1074 q 1141 1051 1115 1074 q 1167 990 1167 1028 q 1141 931 1167 954 q 1078 907 1115 907 z "},"ⅳ":{"ha":1389,"x_min":243,"x_max":1231,"o":"m 265 753 l 397 753 l 397 0 l 265 0 l 265 753 m 333 907 q 269 931 294 907 q 243 990 243 954 q 269 1051 243 1028 q 333 1074 294 1074 q 396 1051 371 1074 q 421 990 421 1028 q 396 931 421 954 q 333 907 371 907 m 542 753 l 676 753 l 817 328 q 851 215 833 272 q 886 106 869 158 l 892 106 q 926 215 908 158 q 960 328 944 272 l 1101 753 l 1231 753 l 965 0 l 813 0 l 542 753 z "},"ⅴ":{"ha":1389,"x_min":350,"x_max":1039,"o":"m 350 753 l 485 753 l 625 328 q 660 215 643 272 q 696 106 678 158 l 701 106 q 736 215 718 158 q 769 328 754 272 l 911 753 l 1039 753 l 774 0 l 621 0 l 350 753 z "},"ⅵ":{"ha":1389,"x_min":158,"x_max":1146,"o":"m 158 753 l 293 753 l 435 328 q 468 215 450 272 q 503 106 486 158 l 508 106 q 544 215 526 158 q 578 328 563 272 l 719 753 l 847 753 l 582 0 l 431 0 l 158 753 m 992 753 l 1122 753 l 1122 0 l 992 0 l 992 753 m 1058 907 q 994 931 1019 907 q 968 990 968 954 q 994 1051 968 1028 q 1058 1074 1019 1074 q 1121 1051 1096 1074 q 1146 990 1146 1028 q 1121 931 1146 954 q 1058 907 1096 907 z "},"ⅶ":{"ha":1389,"x_min":18,"x_max":1296,"o":"m 18 753 l 153 753 l 282 328 q 313 215 297 272 q 347 106 329 158 l 353 106 q 385 215 369 158 q 417 328 401 272 l 546 753 l 674 753 l 425 0 l 272 0 l 18 753 m 792 753 l 924 753 l 924 0 l 792 0 l 792 753 m 858 907 q 794 931 819 907 q 768 990 768 954 q 794 1051 768 1028 q 858 1074 819 1074 q 922 1051 896 1074 q 947 990 947 1028 q 922 931 947 954 q 858 907 896 907 m 1140 753 l 1271 753 l 1271 0 l 1140 0 l 1140 753 m 1207 907 q 1142 931 1168 907 q 1117 990 1117 954 q 1142 1051 1117 1028 q 1207 1074 1168 1074 q 1270 1051 1244 1074 q 1296 990 1296 1028 q 1270 931 1296 954 q 1207 907 1244 907 z "},"ⅷ":{"ha":1389,"x_min":8,"x_max":1326,"o":"m 8 753 l 135 753 l 218 328 q 242 215 232 272 q 265 106 251 158 l 271 106 q 294 215 283 158 q 317 328 306 272 l 400 753 l 519 753 l 339 0 l 196 0 l 8 753 m 640 753 l 754 753 l 754 0 l 640 0 l 640 753 m 699 907 q 640 931 663 907 q 617 990 617 954 q 640 1051 617 1028 q 699 1074 663 1074 q 755 1051 732 1074 q 778 990 778 1028 q 755 931 778 954 q 699 907 732 907 m 914 753 l 1028 753 l 1028 0 l 914 0 l 914 753 m 972 907 q 914 931 938 907 q 890 990 890 954 q 914 1051 890 1028 q 972 1074 938 1074 q 1029 1051 1006 1074 q 1053 990 1053 1028 q 1029 931 1053 954 q 972 907 1006 907 m 1188 753 l 1303 753 l 1303 0 l 1188 0 l 1188 753 m 1247 907 q 1189 931 1213 907 q 1165 990 1165 954 q 1189 1051 1165 1028 q 1247 1074 1213 1074 q 1303 1051 1281 1074 q 1326 990 1326 1028 q 1303 931 1326 954 q 1247 907 1281 907 z "},"ⅸ":{"ha":1389,"x_min":258,"x_max":1211,"o":"m 282 753 l 413 753 l 413 0 l 282 0 l 282 753 m 349 907 q 284 931 310 907 q 258 990 258 954 q 284 1051 258 1028 q 349 1074 310 1074 q 410 1051 385 1074 q 436 990 436 1028 q 410 931 436 954 q 349 907 385 907 m 807 393 l 578 753 l 719 753 l 819 589 q 855 527 836 558 q 893 464 874 496 l 899 464 q 933 527 917 496 q 965 589 949 558 l 1057 753 l 1193 753 l 965 379 l 1211 0 l 1069 0 l 960 174 q 920 242 940 207 q 879 308 900 276 l 872 308 q 834 242 853 276 q 796 174 815 208 l 696 0 l 560 0 l 807 393 z "},"ⅹ":{"ha":1389,"x_min":368,"x_max":1019,"o":"m 615 393 l 386 753 l 528 753 l 628 589 q 665 527 646 558 q 703 464 683 496 l 708 464 q 742 527 725 496 q 775 589 758 558 l 865 753 l 1003 753 l 775 379 l 1019 0 l 879 0 l 768 174 q 729 242 749 207 q 688 308 710 276 l 681 308 q 643 242 661 276 q 606 174 625 208 l 504 0 l 368 0 l 615 393 z "},"←":{"ha":1389,"x_min":49,"x_max":1333,"o":"m 263 481 q 319 434 289 460 q 378 378 349 408 q 436 317 408 349 q 488 253 464 285 l 404 204 q 327 295 369 250 q 238 382 285 340 q 143 461 192 424 q 49 528 94 499 q 143 594 94 557 q 238 674 192 632 q 327 760 285 715 q 404 851 369 806 l 488 803 q 436 739 464 771 q 378 677 408 707 q 319 622 349 647 q 263 575 289 596 l 1333 575 l 1333 481 l 263 481 z "},"↑":{"ha":1389,"x_min":371,"x_max":1018,"o":"m 647 960 q 601 903 626 933 q 545 844 575 874 q 483 786 515 814 q 419 735 451 758 l 371 818 q 462 895 417 853 q 549 984 507 938 q 628 1079 590 1031 q 694 1174 665 1128 q 761 1079 724 1128 q 840 984 799 1031 q 927 895 882 938 q 1018 818 972 853 l 969 735 q 906 786 938 758 q 844 844 874 814 q 788 903 814 874 q 742 960 763 933 l 742 -111 l 647 -111 l 647 960 z "},"→":{"ha":1389,"x_min":56,"x_max":1340,"o":"m 56 575 l 1126 575 q 1070 622 1100 596 q 1010 677 1040 647 q 953 739 981 707 q 901 803 925 771 l 985 851 q 1062 760 1019 806 q 1151 674 1104 715 q 1246 594 1197 632 q 1340 528 1294 557 q 1246 461 1294 499 q 1151 382 1197 424 q 1062 295 1104 340 q 985 204 1019 250 l 901 253 q 953 317 925 285 q 1010 378 981 349 q 1070 434 1040 408 q 1126 481 1100 460 l 56 481 l 56 575 z "},"↓":{"ha":1389,"x_min":371,"x_max":1018,"o":"m 742 96 q 788 152 763 122 q 844 212 814 182 q 906 269 874 242 q 969 321 938 297 l 1018 238 q 927 160 972 203 q 840 72 882 118 q 761 -24 799 25 q 694 -118 724 -72 q 628 -24 665 -72 q 549 72 590 25 q 462 160 507 118 q 371 238 417 203 l 419 321 q 483 269 451 297 q 545 212 515 242 q 601 152 575 182 q 647 96 626 122 l 647 1167 l 742 1167 l 742 96 z "},"↔":{"ha":1389,"x_min":49,"x_max":1340,"o":"m 263 475 q 319 428 289 454 q 378 373 349 403 q 436 311 408 343 q 488 247 464 279 l 404 199 q 327 290 369 244 q 238 376 285 335 q 143 456 192 418 q 49 522 94 493 q 143 589 94 551 q 238 668 192 626 q 327 755 285 710 q 404 846 369 800 l 488 797 q 436 733 464 765 q 378 672 408 701 q 319 616 349 642 q 263 569 289 590 l 1126 569 q 1070 616 1100 590 q 1010 672 1040 642 q 953 733 981 701 q 901 797 925 765 l 985 846 q 1062 755 1019 800 q 1151 668 1104 710 q 1246 589 1197 626 q 1340 522 1294 551 q 1246 456 1294 493 q 1151 376 1197 418 q 1062 290 1104 335 q 985 199 1019 244 l 901 247 q 953 311 925 279 q 1010 373 981 343 q 1070 428 1040 403 q 1126 475 1100 454 l 263 475 z "},"↕":{"ha":1389,"x_min":371,"x_max":1018,"o":"m 742 96 q 788 152 763 122 q 844 212 814 182 q 906 269 874 242 q 969 321 938 297 l 1018 238 q 927 160 972 203 q 840 72 882 118 q 761 -24 799 25 q 694 -118 724 -72 q 628 -24 665 -72 q 549 72 590 25 q 462 160 507 118 q 371 238 417 203 l 419 321 q 483 269 451 297 q 545 212 515 242 q 601 152 575 182 q 647 96 626 122 l 647 960 q 601 903 626 933 q 545 844 575 874 q 483 786 515 814 q 419 735 451 758 l 371 818 q 462 895 417 853 q 549 984 507 938 q 628 1079 590 1031 q 694 1174 665 1128 q 761 1079 724 1128 q 840 984 799 1031 q 927 895 882 938 q 1018 818 972 853 l 969 735 q 906 786 938 758 q 844 844 874 814 q 788 903 814 874 q 742 960 763 933 l 742 96 z "},"↖":{"ha":1389,"x_min":238,"x_max":1181,"o":"m 354 800 q 365 646 365 733 q 354 479 365 558 l 261 503 q 269 748 276 619 q 238 985 261 876 q 474 953 346 961 q 719 961 603 946 l 743 868 q 576 857 664 857 q 422 868 489 857 l 1181 110 l 1113 42 l 354 800 z "},"↗":{"ha":1389,"x_min":208,"x_max":1151,"o":"m 967 868 q 813 857 900 857 q 646 868 725 857 l 669 961 q 915 953 786 946 q 1151 985 1043 961 q 1120 748 1128 876 q 1128 503 1113 619 l 1035 479 q 1024 646 1024 558 q 1035 800 1024 733 l 276 42 l 208 110 l 967 868 z "},"↘":{"ha":1389,"x_min":208,"x_max":1151,"o":"m 1035 256 q 1024 410 1024 322 q 1035 576 1024 497 l 1128 553 q 1120 308 1113 436 q 1151 71 1128 179 q 915 102 1043 94 q 669 94 786 110 l 646 188 q 813 199 725 199 q 967 188 900 199 l 208 946 l 276 1014 l 1035 256 z "},"↙":{"ha":1389,"x_min":238,"x_max":1181,"o":"m 422 188 q 576 199 489 199 q 743 188 664 199 l 719 94 q 474 102 603 110 q 238 71 346 94 q 269 308 261 179 q 261 553 276 436 l 354 576 q 365 410 365 497 q 354 256 365 322 l 1113 1014 l 1181 946 l 422 188 z "},"⇒":{"ha":1389,"x_min":56,"x_max":1356,"o":"m 1032 376 q 1115 457 1074 419 q 1196 522 1157 494 q 1115 587 1157 550 q 1032 667 1074 624 l 56 667 l 56 763 l 949 763 q 878 850 911 806 q 819 935 844 894 l 901 982 q 994 853 942 918 q 1107 727 1047 788 q 1230 614 1167 667 q 1356 522 1293 561 q 1230 429 1293 482 q 1107 316 1167 376 q 994 190 1047 256 q 901 61 942 125 l 819 108 q 878 193 844 149 q 949 281 911 238 l 56 281 l 56 376 l 1032 376 l 1032 376 z "},"⇔":{"ha":1389,"x_min":33,"x_max":1356,"o":"m 538 935 q 483 850 514 894 q 415 763 451 806 l 974 763 q 906 850 938 806 q 851 935 875 894 l 932 982 q 1019 853 969 918 q 1124 727 1068 788 q 1238 614 1179 667 q 1356 522 1297 561 q 1238 429 1297 482 q 1124 316 1179 376 q 1019 190 1068 256 q 932 61 969 125 l 851 108 q 906 193 875 149 q 974 281 938 238 l 415 281 q 483 193 451 238 q 538 108 514 149 l 457 61 q 370 190 419 125 q 265 316 321 256 q 151 429 210 376 q 33 522 92 482 q 151 614 92 561 q 265 727 210 667 q 370 853 321 788 q 457 982 419 918 l 538 935 m 339 667 q 259 587 299 624 q 182 522 219 550 q 259 457 219 494 q 339 376 299 419 l 1050 376 q 1130 457 1090 419 q 1207 522 1169 494 q 1130 587 1169 550 q 1050 667 1090 624 l 339 667 z "},"∀":{"ha":1389,"x_min":157,"x_max":1232,"o":"m 1232 1018 l 697 -21 l 692 -21 l 157 1018 l 242 1061 l 425 701 l 964 701 l 1147 1061 l 1232 1018 m 693 179 l 696 179 l 914 607 l 475 607 l 693 179 z "},"∂":{"ha":1389,"x_min":301,"x_max":1090,"o":"m 981 678 q 919 894 981 821 q 753 967 857 967 q 678 955 713 967 q 615 926 644 943 q 563 887 586 908 q 525 844 540 865 l 457 919 q 516 971 483 946 q 587 1016 549 996 q 669 1048 625 1036 q 763 1060 713 1060 q 894 1035 833 1060 q 998 962 954 1010 q 1066 843 1042 914 q 1090 681 1090 772 q 1076 515 1090 599 q 1034 354 1063 432 q 965 209 1006 276 q 870 92 924 142 q 750 13 817 42 q 606 -17 683 -17 q 475 7 532 -17 q 380 72 418 31 q 322 170 342 114 q 301 292 301 226 q 332 439 301 371 q 412 557 363 507 q 524 635 461 607 q 653 663 588 663 q 758 648 711 663 q 841 608 804 633 q 905 550 878 583 q 951 478 932 517 l 954 478 q 974 579 967 526 q 981 678 981 632 m 408 292 q 463 140 408 197 q 610 82 517 82 q 782 150 706 83 q 907 347 858 217 q 878 439 900 397 q 824 510 857 481 q 749 556 790 540 q 663 572 708 572 q 569 551 614 572 q 488 492 524 529 q 430 403 451 454 q 408 292 408 351 z "},"∃":{"ha":1389,"x_min":271,"x_max":1110,"o":"m 1110 1026 l 1110 17 l 271 17 l 271 113 l 1014 113 l 1014 475 l 271 475 l 271 569 l 1014 569 l 1014 931 l 271 931 l 271 1026 l 1110 1026 z "},"∇":{"ha":1389,"x_min":210,"x_max":1176,"o":"m 210 918 l 210 996 l 1176 996 l 1176 918 l 768 -22 l 621 -22 l 210 918 m 1028 886 l 357 886 l 556 419 l 689 92 l 696 92 l 828 419 l 1028 886 z "},"∈":{"ha":1389,"x_min":172,"x_max":1211,"o":"m 639 874 q 503 851 565 874 q 392 787 440 828 q 313 690 343 746 q 274 569 282 635 l 1211 569 l 1211 474 l 274 474 q 313 353 282 408 q 392 256 343 297 q 503 192 440 215 q 639 169 565 169 l 1211 169 l 1211 74 l 639 74 q 455 108 540 74 q 307 203 369 143 q 208 346 244 264 q 172 522 172 428 q 208 698 172 617 q 307 840 244 779 q 455 935 369 900 q 639 969 540 969 l 1211 969 l 1211 874 l 639 874 z "},"∋":{"ha":1389,"x_min":178,"x_max":1217,"o":"m 178 874 l 178 969 l 750 969 q 934 935 849 969 q 1082 840 1019 900 q 1181 698 1144 779 q 1217 522 1217 617 q 1181 346 1217 428 q 1082 203 1144 264 q 934 108 1019 143 q 750 74 849 74 l 178 74 l 178 169 l 750 169 q 885 192 822 169 q 997 256 949 215 q 1076 353 1046 297 q 1115 474 1107 408 l 178 474 l 178 569 l 1115 569 q 1076 690 1107 635 q 997 787 1046 746 q 885 851 949 828 q 750 874 822 874 l 178 874 z "},"∏":{"ha":1389,"x_min":289,"x_max":1101,"o":"m 289 990 l 1101 990 l 1101 -186 l 971 -186 l 971 878 l 417 878 l 417 -186 l 289 -186 l 289 990 z "},"∑":{"ha":1389,"x_min":279,"x_max":1110,"o":"m 453 104 l 1110 104 l 1110 0 l 279 0 l 279 74 l 678 503 l 301 931 l 301 1008 l 1058 1008 l 1058 906 l 475 906 l 475 900 l 821 506 l 453 110 l 453 104 z "},"√":{"ha":1389,"x_min":47,"x_max":1389,"o":"m 1389 1222 l 1389 1165 l 818 1165 l 372 -119 l 331 -119 l 181 269 l 83 132 l 47 158 l 238 426 l 375 65 l 778 1222 l 1389 1222 z "},"∝":{"ha":1389,"x_min":47,"x_max":1183,"o":"m 756 522 q 890 391 815 442 q 1060 340 964 340 q 1149 353 1108 340 l 1183 263 q 1057 244 1129 244 q 945 260 997 244 q 849 304 893 276 q 766 368 804 332 q 694 446 728 404 q 623 368 661 404 q 540 304 585 332 q 443 260 496 276 q 331 244 390 244 q 230 262 281 244 q 138 314 179 279 q 72 401 97 349 q 47 522 47 453 q 72 642 47 590 q 138 729 97 694 q 230 781 179 764 q 331 799 281 799 q 443 783 390 799 q 540 739 496 767 q 623 675 585 711 q 694 597 661 639 q 766 675 728 639 q 849 739 804 711 q 945 783 893 767 q 1057 799 997 799 q 1183 781 1129 799 l 1149 692 q 1060 704 1108 704 q 890 653 964 704 q 756 522 815 601 m 143 522 q 158 444 143 478 q 199 388 174 411 q 259 352 225 364 q 329 340 293 340 q 499 391 425 340 q 633 522 574 442 q 499 653 574 601 q 329 704 425 704 q 259 692 293 704 q 199 656 225 679 q 158 599 174 633 q 143 522 143 565 z "},"∞":{"ha":1389,"x_min":47,"x_max":1340,"o":"m 694 597 q 766 675 728 639 q 849 739 804 711 q 945 783 893 767 q 1057 799 997 799 q 1158 781 1107 799 q 1249 729 1208 764 q 1315 642 1290 694 q 1340 522 1340 590 q 1315 401 1340 453 q 1249 314 1290 349 q 1158 262 1208 279 q 1057 244 1107 244 q 945 260 997 244 q 849 304 893 276 q 766 368 804 332 q 694 446 728 404 q 623 368 661 404 q 540 304 585 332 q 442 260 494 276 q 331 244 390 244 q 230 262 281 244 q 138 314 179 279 q 72 401 97 349 q 47 522 47 453 q 72 642 47 590 q 138 729 97 694 q 230 781 179 764 q 331 799 281 799 q 442 783 390 799 q 540 739 494 767 q 623 675 585 711 q 694 597 661 639 m 143 522 q 158 444 143 478 q 199 388 174 411 q 259 352 225 364 q 329 340 293 340 q 499 391 425 340 q 633 522 572 442 q 499 653 572 601 q 329 704 425 704 q 259 692 293 704 q 199 656 225 679 q 158 599 174 633 q 143 522 143 565 m 756 522 q 890 391 815 442 q 1060 340 964 340 q 1129 352 1096 340 q 1188 388 1163 364 q 1229 444 1214 411 q 1244 522 1244 478 q 1229 599 1244 565 q 1188 656 1214 633 q 1129 692 1163 679 q 1060 704 1096 704 q 890 653 964 704 q 756 522 815 601 z "},"∠":{"ha":1389,"x_min":142,"x_max":1221,"o":"m 367 133 l 1221 133 l 1221 38 l 142 38 l 142 43 l 1063 965 l 1129 897 l 367 138 l 367 133 z "},"∧":{"ha":1389,"x_min":157,"x_max":1232,"o":"m 692 1069 l 697 1069 l 1232 32 l 1147 -12 l 696 869 l 693 869 l 242 -12 l 157 32 l 692 1069 z "},"∨":{"ha":1389,"x_min":157,"x_max":1232,"o":"m 697 -26 l 692 -26 l 157 1011 l 242 1056 l 693 174 l 696 174 l 1147 1056 l 1232 1011 l 697 -26 z "},"∩":{"ha":1389,"x_min":247,"x_max":1142,"o":"m 247 576 q 281 762 247 676 q 376 910 315 847 q 518 1008 436 972 q 694 1043 600 1043 q 871 1008 789 1043 q 1013 910 953 972 q 1108 762 1074 847 q 1142 576 1142 676 l 1142 6 l 1046 6 l 1046 576 q 1019 724 1046 656 q 944 842 992 792 q 833 919 897 892 q 694 947 769 947 q 556 919 619 947 q 444 842 492 892 q 370 724 397 792 q 343 576 343 656 l 343 6 l 247 6 l 247 576 l 247 576 z "},"∪":{"ha":1389,"x_min":247,"x_max":1142,"o":"m 1142 467 q 1108 281 1142 367 q 1013 133 1074 196 q 871 35 953 71 q 694 0 789 0 q 518 35 600 0 q 376 133 436 71 q 281 281 315 196 q 247 467 247 367 l 247 1038 l 343 1038 l 343 467 q 370 319 343 388 q 444 201 397 251 q 556 124 492 151 q 694 96 619 96 q 833 124 769 96 q 944 201 897 151 q 1019 319 992 251 q 1046 467 1046 388 l 1046 1038 l 1142 1038 l 1142 467 l 1142 467 z "},"∫":{"ha":1389,"x_min":439,"x_max":950,"o":"m 639 840 q 662 1010 639 944 q 720 1113 685 1076 q 799 1162 756 1149 q 886 1175 843 1175 q 950 1168 918 1175 l 940 1067 q 894 1072 919 1072 q 842 1065 868 1072 q 796 1031 817 1057 q 763 956 775 1004 q 750 825 750 907 l 750 215 q 728 45 750 111 q 670 -57 706 -21 q 590 -106 635 -93 q 503 -119 546 -119 q 439 -112 471 -119 l 449 -11 q 494 -17 469 -17 q 547 -9 521 -17 q 593 25 572 -1 q 626 100 614 51 q 639 231 639 149 l 639 840 z "},"∬":{"ha":1389,"x_min":169,"x_max":1219,"o":"m 369 840 q 392 1010 369 944 q 451 1113 415 1076 q 530 1162 486 1149 q 617 1175 574 1175 q 681 1168 649 1175 l 671 1067 q 625 1072 650 1072 q 573 1065 599 1072 q 526 1031 547 1057 q 493 956 506 1004 q 481 825 481 907 l 481 215 q 458 45 481 111 q 401 -57 436 -21 q 321 -106 365 -93 q 233 -119 276 -119 q 169 -112 201 -119 l 179 -11 q 225 -17 200 -17 q 277 -9 251 -17 q 324 25 303 -1 q 357 100 344 51 q 369 231 369 149 l 369 840 m 908 840 q 931 1010 908 944 q 988 1113 953 1076 q 1068 1162 1024 1149 q 1156 1175 1113 1175 q 1219 1168 1188 1175 l 1210 1067 q 1164 1072 1189 1072 q 1112 1065 1138 1072 q 1065 1031 1086 1057 q 1032 956 1044 1004 q 1019 825 1019 907 l 1019 215 q 997 45 1019 111 q 938 -57 974 -21 q 859 -106 903 -93 q 772 -119 815 -119 q 708 -112 740 -119 l 718 -11 q 764 -17 739 -17 q 816 -9 790 -17 q 863 25 842 -1 q 896 100 883 51 q 908 231 908 149 l 908 840 z "},"∮":{"ha":1389,"x_min":439,"x_max":950,"o":"m 639 304 q 569 333 601 313 q 512 383 536 354 q 474 449 488 413 q 461 528 461 486 q 474 606 461 569 q 512 672 488 643 q 569 722 536 701 q 639 751 601 743 l 639 840 q 662 1010 639 944 q 720 1113 685 1076 q 799 1162 756 1149 q 886 1175 843 1175 q 950 1168 918 1175 l 940 1067 q 894 1072 919 1072 q 844 1065 869 1072 q 797 1033 818 1057 q 763 961 776 1008 q 750 835 750 914 l 750 751 q 820 722 788 743 q 877 672 853 701 q 915 606 901 643 q 928 528 928 569 q 915 449 928 486 q 877 383 901 413 q 820 333 853 354 q 750 304 788 313 l 750 215 q 728 45 750 111 q 670 -57 706 -21 q 590 -106 635 -93 q 503 -119 546 -119 q 439 -112 471 -119 l 449 -11 q 494 -17 469 -17 q 545 -9 519 -17 q 592 23 571 -1 q 626 94 613 47 q 639 221 639 142 l 639 304 m 639 693 q 551 632 586 678 q 517 528 517 586 q 551 424 517 469 q 639 363 586 378 l 639 693 m 750 363 q 838 424 803 378 q 872 528 872 469 q 838 632 872 586 q 750 693 803 678 l 750 363 z "},"∴":{"ha":1389,"x_min":226,"x_max":1163,"o":"m 594 850 q 624 920 594 890 q 694 950 653 950 q 765 920 736 950 q 794 850 794 890 q 765 778 794 808 q 694 749 736 749 q 624 778 653 749 q 594 850 594 808 m 226 193 q 256 265 226 235 q 328 294 286 294 q 399 265 369 294 q 428 193 428 235 q 399 123 428 153 q 328 93 369 93 q 256 123 286 93 q 226 193 226 153 m 961 193 q 991 265 961 235 q 1063 294 1021 294 q 1133 265 1104 294 q 1163 193 1163 235 q 1133 123 1163 153 q 1063 93 1104 93 q 991 123 1021 93 q 961 193 961 153 z "},"∵":{"ha":1389,"x_min":226,"x_max":1163,"o":"m 226 850 q 256 920 226 890 q 328 950 286 950 q 399 920 369 950 q 428 850 428 890 q 399 778 428 808 q 328 749 369 749 q 256 778 286 749 q 226 850 226 808 m 961 850 q 991 920 961 890 q 1063 950 1021 950 q 1133 920 1104 950 q 1163 850 1163 890 q 1133 778 1163 808 q 1063 749 1104 749 q 991 778 1021 749 q 961 850 961 808 m 594 193 q 624 265 594 235 q 694 294 653 294 q 765 265 736 294 q 794 193 794 235 q 765 123 794 153 q 694 93 736 93 q 624 123 653 93 q 594 193 594 153 z "},"∶":{"ha":1389,"x_min":594,"x_max":794,"o":"m 594 850 q 624 920 594 890 q 694 950 653 950 q 765 920 736 950 q 794 850 794 890 q 765 778 794 808 q 694 749 736 749 q 624 778 653 749 q 594 850 594 808 m 594 193 q 624 265 594 235 q 694 294 653 294 q 765 265 736 294 q 794 193 794 235 q 765 123 794 153 q 694 93 736 93 q 624 123 653 93 q 594 193 594 153 z "},"∽":{"ha":1389,"x_min":47,"x_max":1340,"o":"m 661 556 q 737 647 696 603 q 826 725 778 692 q 933 778 875 758 q 1057 799 990 799 q 1158 781 1107 799 q 1249 729 1208 764 q 1315 642 1290 694 q 1340 522 1340 590 q 1315 401 1340 453 q 1249 314 1290 349 q 1157 262 1208 279 q 1054 244 1106 244 q 989 249 1021 244 q 928 263 957 253 l 964 353 q 1057 340 1003 340 q 1128 352 1094 340 q 1188 388 1161 364 q 1229 444 1214 411 q 1244 522 1244 478 q 1229 599 1244 565 q 1188 656 1214 633 q 1129 692 1163 679 q 1060 704 1096 704 q 959 688 1006 704 q 872 641 913 671 q 795 572 831 611 q 728 486 760 532 q 652 394 693 438 q 562 317 611 350 q 456 264 513 283 q 331 244 399 244 q 230 262 281 244 q 138 314 179 279 q 72 401 97 349 q 47 522 47 453 q 73 644 47 592 q 139 730 99 696 q 231 781 179 764 q 333 799 282 799 q 460 781 404 799 l 425 692 q 332 704 383 704 q 260 692 294 704 q 200 656 226 679 q 158 599 174 633 q 143 522 143 565 q 158 444 143 478 q 199 388 174 411 q 259 352 225 364 q 329 340 293 340 q 429 357 383 340 q 516 403 475 374 q 592 471 557 432 q 661 556 628 510 z "},"≒":{"ha":1389,"x_min":190,"x_max":1199,"o":"m 342 926 q 371 998 342 968 q 442 1028 400 1028 q 513 998 483 1028 q 543 926 543 968 q 513 856 543 885 q 442 826 483 826 q 371 856 400 826 q 342 926 342 885 m 1199 703 l 1199 618 l 190 618 l 190 703 l 1199 703 m 1199 425 l 1199 340 l 190 340 l 190 425 l 1199 425 m 846 117 q 876 188 846 158 q 947 217 906 217 q 1018 188 989 217 q 1047 117 1047 158 q 1018 45 1047 75 q 947 15 989 15 q 876 45 906 15 q 846 117 846 75 z "},"≠":{"ha":1389,"x_min":190,"x_max":1199,"o":"m 781 619 l 708 418 l 1199 418 l 1199 322 l 674 322 l 567 31 l 478 64 l 571 322 l 190 322 l 190 418 l 606 418 l 679 619 l 190 619 l 190 715 l 714 715 l 822 1013 l 911 979 l 815 715 l 1199 715 l 1199 619 l 781 619 z "},"≡":{"ha":1389,"x_min":190,"x_max":1199,"o":"m 1199 867 l 1199 776 l 190 776 l 190 867 l 1199 867 m 1199 567 l 1199 476 l 190 476 l 190 567 l 1199 567 m 1199 267 l 1199 176 l 190 176 l 190 267 l 1199 267 z "},"≤":{"ha":1389,"x_min":142,"x_max":1214,"o":"m 1211 115 l 1211 25 l 178 25 l 178 115 l 1211 115 m 396 660 l 1214 329 l 1178 242 l 142 660 l 142 665 l 1178 1085 l 1214 996 l 396 665 l 396 660 z "},"≥":{"ha":1389,"x_min":175,"x_max":1247,"o":"m 178 115 l 1211 115 l 1211 25 l 178 25 l 178 115 m 993 660 l 993 665 l 175 996 l 211 1085 l 1247 665 l 1247 660 l 211 242 l 175 329 l 993 660 z "},"≪":{"ha":1389,"x_min":75,"x_max":1313,"o":"m 892 990 l 222 525 l 222 519 l 892 53 l 843 -17 l 75 519 l 75 525 l 843 1060 l 892 990 m 1313 990 l 642 525 l 642 519 l 1313 53 l 1264 -17 l 496 519 l 496 525 l 1264 1060 l 1313 990 z "},"≫":{"ha":1389,"x_min":76,"x_max":1314,"o":"m 893 525 l 893 519 l 125 -17 l 76 53 l 747 519 l 747 525 l 76 990 l 125 1060 l 893 525 m 1314 525 l 1314 519 l 546 -17 l 497 53 l 1167 519 l 1167 525 l 497 990 l 546 1060 l 1314 525 z "},"⊂":{"ha":1389,"x_min":172,"x_max":1211,"o":"m 639 74 q 455 108 540 74 q 307 203 369 143 q 208 346 244 264 q 172 522 172 428 q 208 698 172 617 q 307 840 244 779 q 455 935 369 900 q 639 969 540 969 l 1211 969 l 1211 874 l 639 874 q 492 847 560 874 q 374 772 424 819 q 297 661 325 725 q 268 522 268 597 q 297 383 268 447 q 374 271 325 318 q 492 197 424 224 q 639 169 560 169 l 1211 169 l 1211 74 l 639 74 l 639 74 z "},"⊃":{"ha":1389,"x_min":178,"x_max":1217,"o":"m 750 969 q 934 935 849 969 q 1082 840 1019 900 q 1181 698 1144 779 q 1217 522 1217 617 q 1181 346 1217 428 q 1082 203 1144 264 q 934 108 1019 143 q 750 74 849 74 l 178 74 l 178 169 l 750 169 q 897 197 829 169 q 1015 271 965 224 q 1092 383 1064 318 q 1121 522 1121 447 q 1092 661 1121 597 q 1015 772 1064 725 q 897 847 965 819 q 750 874 829 874 l 178 874 l 178 969 l 750 969 l 750 969 z "},"⊆":{"ha":1389,"x_min":172,"x_max":1211,"o":"m 568 964 q 439 942 494 964 q 345 882 383 919 q 288 796 307 844 q 268 694 268 747 q 288 592 268 642 q 345 506 307 543 q 439 446 383 468 q 568 424 494 424 l 1211 424 l 1211 328 l 568 328 q 401 358 475 328 q 277 438 328 388 q 199 555 226 489 q 172 694 172 621 q 199 833 172 767 q 277 949 226 899 q 401 1030 328 1000 q 568 1060 475 1060 l 1211 1060 l 1211 964 l 568 964 m 1211 79 l 1211 -17 l 178 -17 l 178 79 l 1211 79 z "},"⊇":{"ha":1389,"x_min":178,"x_max":1217,"o":"m 821 424 q 949 446 893 424 q 1044 506 1006 468 q 1101 592 1082 543 q 1121 694 1121 642 q 1101 796 1121 747 q 1044 882 1082 844 q 949 942 1006 919 q 821 964 893 964 l 178 964 l 178 1060 l 821 1060 q 987 1030 914 1060 q 1111 949 1060 1000 q 1190 833 1163 899 q 1217 694 1217 767 q 1190 555 1217 621 q 1111 438 1163 489 q 987 358 1060 388 q 821 328 914 328 l 178 328 l 178 424 l 821 424 m 1211 79 l 1211 -17 l 178 -17 l 178 79 l 1211 79 z "},"⊙":{"ha":1389,"x_min":181,"x_max":1208,"o":"m 694 14 q 494 54 588 14 q 331 165 401 94 q 221 328 261 235 q 181 528 181 421 q 221 727 181 633 q 331 891 261 821 q 494 1001 401 961 q 694 1042 588 1042 q 894 1001 800 1042 q 1058 891 988 961 q 1168 727 1128 821 q 1208 528 1208 633 q 1168 328 1208 421 q 1058 165 1128 235 q 894 54 988 94 q 694 14 800 14 m 276 528 q 309 365 276 442 q 399 232 342 289 q 532 142 456 175 q 694 110 608 110 q 857 142 781 110 q 990 232 933 175 q 1080 365 1047 289 q 1113 528 1113 442 q 1080 690 1113 614 q 990 824 1047 767 q 857 913 933 881 q 694 946 781 946 q 532 913 608 946 q 399 824 456 881 q 309 690 342 767 q 276 528 276 614 m 775 528 q 751 471 775 494 q 694 447 728 447 q 638 471 661 447 q 614 528 614 494 q 638 584 614 560 q 694 608 661 608 q 751 584 728 608 q 775 528 775 560 z "},"⊥":{"ha":1389,"x_min":146,"x_max":1243,"o":"m 1243 146 l 1243 50 l 146 50 l 146 146 l 647 146 l 647 1026 l 742 1026 l 742 146 l 1243 146 z "},"⌒":{"ha":1389,"x_min":33,"x_max":1356,"o":"m 33 897 q 326 1098 160 1022 q 694 1174 492 1174 q 1063 1098 897 1174 q 1356 897 1228 1022 l 1313 814 q 1034 1003 1188 935 q 694 1072 881 1072 q 355 1003 508 1072 q 76 814 201 935 l 33 897 l 33 897 z "},"①":{"ha":1389,"x_min":47,"x_max":1342,"o":"m 694 -119 q 443 -69 561 -119 q 237 70 325 -18 q 98 276 149 158 q 47 528 47 394 q 98 779 47 661 q 237 985 149 897 q 443 1124 325 1074 q 694 1175 561 1175 q 946 1124 828 1175 q 1152 985 1064 1074 q 1291 779 1240 897 q 1342 528 1342 661 q 1290 275 1342 393 q 1151 69 1239 157 q 945 -69 1063 -18 q 694 -119 828 -119 m 694 -75 q 929 -28 819 -75 q 1121 101 1039 19 q 1250 293 1203 183 q 1297 528 1297 403 q 1250 763 1297 653 q 1121 954 1203 872 q 929 1083 1039 1036 q 694 1131 819 1131 q 458 1083 568 1131 q 267 953 349 1035 q 139 761 186 871 q 92 528 92 651 q 139 293 92 403 q 268 101 186 183 q 460 -28 350 19 q 694 -75 569 -75 m 667 765 l 519 765 l 519 839 q 616 863 575 849 q 693 896 657 876 l 781 896 l 781 176 l 667 176 l 667 765 z "},"②":{"ha":1389,"x_min":47,"x_max":1342,"o":"m 694 -119 q 443 -69 561 -119 q 237 70 325 -18 q 98 276 149 158 q 47 528 47 394 q 98 779 47 661 q 237 985 149 897 q 443 1124 325 1074 q 694 1175 561 1175 q 946 1124 828 1175 q 1152 985 1064 1074 q 1291 779 1240 897 q 1342 528 1342 661 q 1290 275 1342 393 q 1151 69 1239 157 q 945 -69 1063 -18 q 694 -119 828 -119 m 694 -75 q 929 -28 819 -75 q 1121 101 1039 19 q 1250 293 1203 183 q 1297 528 1297 403 q 1250 763 1297 653 q 1121 954 1203 872 q 929 1083 1039 1036 q 694 1131 819 1131 q 458 1083 568 1131 q 267 953 349 1035 q 139 761 186 871 q 92 528 92 651 q 139 293 92 403 q 268 101 186 183 q 460 -28 350 19 q 694 -75 569 -75 m 454 243 q 610 383 542 319 q 725 500 678 446 q 797 600 772 554 q 821 689 821 646 q 786 785 821 750 q 679 821 751 821 q 585 796 628 821 q 510 739 543 771 l 444 800 q 557 884 497 856 q 690 913 617 913 q 867 853 803 913 q 932 697 932 794 q 908 597 932 647 q 842 493 883 546 q 743 384 800 440 q 619 268 686 328 q 688 272 651 271 q 761 274 725 274 l 965 274 l 965 176 l 454 176 l 454 243 z "},"③":{"ha":1389,"x_min":47,"x_max":1342,"o":"m 694 -119 q 443 -69 561 -119 q 237 70 325 -18 q 98 276 149 158 q 47 528 47 394 q 98 779 47 661 q 237 985 149 897 q 443 1124 325 1074 q 694 1175 561 1175 q 946 1124 828 1175 q 1152 985 1064 1074 q 1291 779 1240 897 q 1342 528 1342 661 q 1290 275 1342 393 q 1151 69 1239 157 q 945 -69 1063 -18 q 694 -119 828 -119 m 694 -75 q 929 -28 819 -75 q 1121 101 1039 19 q 1250 293 1203 183 q 1297 528 1297 403 q 1250 763 1297 653 q 1121 954 1203 872 q 929 1083 1039 1036 q 694 1131 819 1131 q 458 1083 568 1131 q 267 953 349 1035 q 139 761 186 871 q 92 528 92 651 q 139 293 92 403 q 268 101 186 183 q 460 -28 350 19 q 694 -75 569 -75 m 688 160 q 528 190 594 160 q 422 263 463 219 l 478 336 q 563 276 514 301 q 685 251 613 251 q 796 285 753 251 q 839 374 839 318 q 826 428 839 404 q 785 470 814 453 q 708 497 756 488 q 589 507 660 507 l 589 592 q 763 626 713 592 q 813 715 813 661 q 778 794 813 765 q 681 822 743 822 q 590 803 632 822 q 511 750 547 785 l 451 821 q 555 888 497 863 q 683 913 613 913 q 782 900 738 913 q 859 863 826 888 q 910 803 892 839 q 928 722 928 768 q 888 619 928 660 q 786 556 849 579 l 786 551 q 906 488 857 533 q 956 368 956 443 q 935 281 956 319 q 877 216 914 243 q 792 174 840 189 q 688 160 743 160 z "},"④":{"ha":1389,"x_min":47,"x_max":1342,"o":"m 733 456 l 733 639 q 734 710 733 669 q 738 783 735 751 l 732 783 q 703 734 717 754 q 669 685 689 714 l 496 456 l 733 456 m 842 456 l 949 456 l 949 368 l 842 368 l 842 176 l 733 176 l 733 368 l 378 368 l 378 444 l 711 896 l 842 896 l 842 456 m 694 -75 q 929 -28 819 -75 q 1121 101 1039 19 q 1250 293 1203 183 q 1297 528 1297 403 q 1250 763 1297 653 q 1121 954 1203 872 q 929 1083 1039 1036 q 694 1131 819 1131 q 458 1083 568 1131 q 267 953 349 1035 q 139 761 186 871 q 92 528 92 651 q 139 293 92 403 q 268 101 186 183 q 460 -28 350 19 q 694 -75 569 -75 m 694 1175 q 946 1124 828 1175 q 1152 985 1064 1074 q 1291 779 1240 897 q 1342 528 1342 661 q 1290 275 1342 393 q 1151 69 1239 157 q 945 -69 1063 -18 q 694 -119 828 -119 q 443 -69 561 -119 q 237 70 325 -18 q 98 276 149 158 q 47 528 47 394 q 98 779 47 661 q 237 985 149 897 q 443 1124 325 1074 q 694 1175 561 1175 z "},"⑤":{"ha":1389,"x_min":47,"x_max":1342,"o":"m 694 -119 q 443 -69 561 -119 q 237 70 325 -18 q 98 276 149 158 q 47 528 47 394 q 98 779 47 661 q 237 985 149 897 q 443 1124 325 1074 q 694 1175 561 1175 q 946 1124 828 1175 q 1152 985 1064 1074 q 1291 779 1240 897 q 1342 528 1342 661 q 1290 275 1342 393 q 1151 69 1239 157 q 945 -69 1063 -18 q 694 -119 828 -119 m 694 -75 q 929 -28 819 -75 q 1121 101 1039 19 q 1250 293 1203 183 q 1297 528 1297 403 q 1250 763 1297 653 q 1121 954 1203 872 q 929 1083 1039 1036 q 694 1131 819 1131 q 458 1083 568 1131 q 267 953 349 1035 q 139 761 186 871 q 92 528 92 651 q 139 293 92 403 q 268 101 186 183 q 460 -28 350 19 q 694 -75 569 -75 m 692 160 q 535 190 597 160 q 432 258 474 219 l 486 333 q 568 277 521 303 q 686 251 615 251 q 802 292 756 251 q 849 404 849 333 q 804 513 849 472 q 689 553 760 553 q 617 540 647 553 q 553 506 588 528 l 494 542 l 519 896 l 925 896 l 925 799 l 617 799 l 599 604 q 654 624 625 615 q 717 633 683 633 q 813 619 768 633 q 892 578 858 606 q 944 508 925 550 q 964 407 964 465 q 941 302 964 349 q 881 224 918 256 q 794 176 843 193 q 692 160 744 160 z "},"⑥":{"ha":1389,"x_min":47,"x_max":1342,"o":"m 697 249 q 792 288 753 249 q 832 392 832 328 q 795 497 832 458 q 686 535 758 535 q 606 515 650 535 q 522 446 563 494 q 578 297 533 344 q 697 249 622 249 m 861 763 q 801 803 838 788 q 726 818 765 818 q 649 803 685 818 q 584 755 613 789 q 538 666 556 721 q 519 531 521 611 q 608 595 557 571 q 713 619 660 619 q 878 563 815 619 q 940 394 940 507 q 921 297 940 340 q 868 224 901 254 q 790 176 835 193 q 696 160 746 160 q 583 181 635 160 q 493 246 532 203 q 433 355 454 289 q 411 511 411 421 q 437 694 411 618 q 506 818 463 769 q 606 890 549 867 q 724 913 663 913 q 840 890 792 913 q 924 833 889 867 l 861 763 m 694 -75 q 929 -28 819 -75 q 1121 101 1039 19 q 1250 293 1203 183 q 1297 528 1297 403 q 1250 763 1297 653 q 1121 954 1203 872 q 929 1083 1039 1036 q 694 1131 819 1131 q 458 1083 568 1131 q 267 953 349 1035 q 139 761 186 871 q 92 528 92 651 q 139 293 92 403 q 268 101 186 183 q 460 -28 350 19 q 694 -75 569 -75 m 694 1175 q 946 1124 828 1175 q 1152 985 1064 1074 q 1291 779 1240 897 q 1342 528 1342 661 q 1290 275 1342 393 q 1151 69 1239 157 q 945 -69 1063 -18 q 694 -119 828 -119 q 443 -69 561 -119 q 237 70 325 -18 q 98 276 149 158 q 47 528 47 394 q 98 779 47 661 q 237 985 149 897 q 443 1124 325 1074 q 694 1175 561 1175 z "},"⑦":{"ha":1389,"x_min":47,"x_max":1342,"o":"m 694 -119 q 443 -69 561 -119 q 237 70 325 -18 q 98 276 149 158 q 47 528 47 394 q 98 779 47 661 q 237 985 149 897 q 443 1124 325 1074 q 694 1175 561 1175 q 946 1124 828 1175 q 1152 985 1064 1074 q 1291 779 1240 897 q 1342 528 1342 661 q 1290 275 1342 393 q 1151 69 1239 157 q 945 -69 1063 -18 q 694 -119 828 -119 m 694 -75 q 929 -28 819 -75 q 1121 101 1039 19 q 1250 293 1203 183 q 1297 528 1297 403 q 1250 763 1297 653 q 1121 954 1203 872 q 929 1083 1039 1036 q 694 1131 819 1131 q 458 1083 568 1131 q 267 953 349 1035 q 139 761 186 871 q 92 528 92 651 q 139 293 92 403 q 268 101 186 183 q 460 -28 350 19 q 694 -75 569 -75 m 594 176 q 614 357 600 275 q 653 513 628 439 q 719 656 679 588 q 818 799 760 725 l 443 799 l 443 896 l 949 896 l 949 826 q 835 674 879 746 q 766 526 792 601 q 729 367 740 451 q 713 176 718 282 l 594 176 z "},"⑧":{"ha":1389,"x_min":47,"x_max":1342,"o":"m 694 -119 q 443 -69 561 -119 q 237 70 325 -18 q 98 276 149 158 q 47 528 47 394 q 98 779 47 661 q 237 985 149 897 q 443 1124 325 1074 q 694 1175 561 1175 q 946 1124 828 1175 q 1152 985 1064 1074 q 1291 779 1240 897 q 1342 528 1342 661 q 1290 275 1342 393 q 1151 69 1239 157 q 945 -69 1063 -18 q 694 -119 828 -119 m 694 -75 q 929 -28 819 -75 q 1121 101 1039 19 q 1250 293 1203 183 q 1297 528 1297 403 q 1250 763 1297 653 q 1121 954 1203 872 q 929 1083 1039 1036 q 694 1131 819 1131 q 458 1083 568 1131 q 267 953 349 1035 q 139 761 186 871 q 92 528 92 651 q 139 293 92 403 q 268 101 186 183 q 460 -28 350 19 q 694 -75 569 -75 m 694 160 q 588 174 636 160 q 503 215 539 189 q 448 278 468 242 q 428 356 428 314 q 441 421 428 392 q 475 474 454 450 q 523 517 496 499 q 578 549 550 535 l 578 554 q 498 624 532 582 q 464 722 464 665 q 482 801 464 765 q 531 861 500 836 q 605 899 563 886 q 696 913 647 913 q 867 858 806 913 q 929 721 929 804 q 919 665 929 692 q 893 617 908 639 q 858 578 878 596 q 819 547 838 560 l 819 543 q 872 511 846 528 q 917 472 897 494 q 948 422 936 450 q 960 357 960 393 q 940 279 960 315 q 886 217 921 243 q 803 175 851 190 q 694 160 754 160 m 747 574 q 808 640 786 604 q 831 711 831 675 q 794 797 831 763 q 693 831 758 831 q 602 801 638 831 q 567 722 567 772 q 581 670 567 693 q 621 630 596 647 q 678 599 646 613 q 747 574 711 586 m 699 243 q 810 274 768 243 q 853 360 853 306 q 837 415 853 392 q 792 457 821 439 q 726 490 764 475 q 644 519 688 504 q 565 456 599 493 q 531 371 531 419 q 544 319 531 343 q 579 279 557 296 q 632 253 601 263 q 699 243 663 243 z "},"⑨":{"ha":1389,"x_min":47,"x_max":1342,"o":"m 700 535 q 781 556 738 535 q 863 625 824 576 q 808 775 851 725 q 690 825 764 825 q 597 785 636 825 q 558 679 558 746 q 594 572 558 610 q 700 535 629 535 m 526 307 q 586 268 550 283 q 663 253 622 253 q 739 268 703 253 q 802 317 775 283 q 846 406 829 351 q 865 540 863 461 q 779 476 829 500 q 678 453 729 453 q 513 508 576 453 q 449 678 449 564 q 468 774 449 731 q 520 849 488 818 q 597 896 553 879 q 690 913 640 913 q 802 891 750 913 q 892 826 854 869 q 952 717 931 783 q 974 561 974 650 q 948 377 974 453 q 880 253 922 301 q 781 182 838 204 q 665 160 725 160 q 547 182 597 160 q 464 238 497 204 l 526 307 m 694 -75 q 929 -28 819 -75 q 1121 101 1039 19 q 1250 293 1203 183 q 1297 528 1297 403 q 1250 763 1297 653 q 1121 954 1203 872 q 929 1083 1039 1036 q 694 1131 819 1131 q 458 1083 568 1131 q 267 953 349 1035 q 139 761 186 871 q 92 528 92 651 q 139 293 92 403 q 268 101 186 183 q 460 -28 350 19 q 694 -75 569 -75 m 694 1175 q 946 1124 828 1175 q 1152 985 1064 1074 q 1291 779 1240 897 q 1342 528 1342 661 q 1290 275 1342 393 q 1151 69 1239 157 q 945 -69 1063 -18 q 694 -119 828 -119 q 443 -69 561 -119 q 237 70 325 -18 q 98 276 149 158 q 47 528 47 394 q 98 779 47 661 q 237 985 149 897 q 443 1124 325 1074 q 694 1175 561 1175 z "},"⑩":{"ha":1389,"x_min":47,"x_max":1342,"o":"m 694 -119 q 443 -69 561 -119 q 237 70 325 -18 q 98 276 149 158 q 47 528 47 394 q 98 779 47 661 q 237 985 149 897 q 443 1124 325 1074 q 694 1175 561 1175 q 946 1124 828 1175 q 1152 985 1064 1074 q 1291 779 1240 897 q 1342 528 1342 661 q 1290 275 1342 393 q 1151 69 1239 157 q 945 -69 1063 -18 q 694 -119 828 -119 m 694 -75 q 929 -28 819 -75 q 1121 101 1039 19 q 1250 293 1203 183 q 1297 528 1297 403 q 1250 763 1297 653 q 1121 954 1203 872 q 929 1083 1039 1036 q 694 1131 819 1131 q 458 1083 568 1131 q 267 953 349 1035 q 139 761 186 871 q 92 528 92 651 q 139 293 92 403 q 268 101 186 183 q 460 -28 350 19 q 694 -75 569 -75 m 406 765 l 288 765 l 288 839 q 368 863 335 849 q 431 896 401 876 l 514 896 l 514 176 l 406 176 l 406 765 m 871 160 q 778 186 819 160 q 707 261 736 213 q 662 381 678 310 q 646 539 646 451 q 707 815 646 717 q 871 913 768 913 q 1034 815 974 913 q 1094 539 1094 717 q 1078 381 1094 451 q 1033 261 1063 310 q 963 186 1004 213 q 871 160 922 160 m 871 253 q 954 322 922 253 q 986 539 986 392 q 954 753 986 686 q 871 821 922 821 q 788 753 819 821 q 756 539 756 686 q 788 322 756 392 q 871 253 819 253 z "},"⑪":{"ha":1389,"x_min":47,"x_max":1342,"o":"m 694 -119 q 443 -69 561 -119 q 237 70 325 -18 q 98 276 149 158 q 47 528 47 394 q 98 779 47 661 q 237 985 149 897 q 443 1124 325 1074 q 694 1175 561 1175 q 946 1124 828 1175 q 1152 985 1064 1074 q 1291 779 1240 897 q 1342 528 1342 661 q 1290 275 1342 393 q 1151 69 1239 157 q 945 -69 1063 -18 q 694 -119 828 -119 m 694 -75 q 929 -28 819 -75 q 1121 101 1039 19 q 1250 293 1203 183 q 1297 528 1297 403 q 1250 763 1297 653 q 1121 954 1203 872 q 929 1083 1039 1036 q 694 1131 819 1131 q 458 1083 568 1131 q 267 953 349 1035 q 139 761 186 871 q 92 528 92 651 q 139 293 92 403 q 268 101 186 183 q 460 -28 350 19 q 694 -75 569 -75 m 469 765 l 351 765 l 351 839 q 432 863 399 849 q 496 896 465 876 l 578 896 l 578 176 l 469 176 l 469 765 m 849 765 l 731 765 l 731 839 q 810 863 776 849 q 874 896 844 876 l 956 896 l 956 176 l 849 176 l 849 765 z "},"⑫":{"ha":1389,"x_min":47,"x_max":1342,"o":"m 694 -119 q 443 -69 561 -119 q 237 70 325 -18 q 98 276 149 158 q 47 528 47 394 q 98 779 47 661 q 237 985 149 897 q 443 1124 325 1074 q 694 1175 561 1175 q 946 1124 828 1175 q 1152 985 1064 1074 q 1291 779 1240 897 q 1342 528 1342 661 q 1290 275 1342 393 q 1151 69 1239 157 q 945 -69 1063 -18 q 694 -119 828 -119 m 694 -75 q 929 -28 819 -75 q 1121 101 1039 19 q 1250 293 1203 183 q 1297 528 1297 403 q 1250 763 1297 653 q 1121 954 1203 872 q 929 1083 1039 1036 q 694 1131 819 1131 q 458 1083 568 1131 q 267 953 349 1035 q 139 761 186 871 q 92 528 92 651 q 139 293 92 403 q 268 101 186 183 q 460 -28 350 19 q 694 -75 569 -75 m 406 765 l 288 765 l 288 839 q 367 863 333 849 q 429 896 401 876 l 513 896 l 513 176 l 406 176 l 406 765 m 658 243 q 776 383 724 319 q 864 500 828 446 q 919 600 900 554 q 939 689 939 646 q 913 785 939 750 q 833 821 886 821 q 767 799 797 821 q 713 746 736 778 l 651 806 q 741 885 693 858 q 847 913 789 913 q 990 853 938 913 q 1042 697 1042 794 q 1023 597 1042 647 q 972 493 1004 546 q 897 384 940 440 q 806 268 854 328 q 860 272 831 271 q 917 274 889 274 l 1067 274 l 1067 176 l 658 176 l 658 243 z "},"⑬":{"ha":1389,"x_min":47,"x_max":1342,"o":"m 694 -119 q 443 -69 561 -119 q 237 70 325 -18 q 98 276 149 158 q 47 528 47 394 q 98 779 47 661 q 237 985 149 897 q 443 1124 325 1074 q 694 1175 561 1175 q 946 1124 828 1175 q 1152 985 1064 1074 q 1291 779 1240 897 q 1342 528 1342 661 q 1290 275 1342 393 q 1151 69 1239 157 q 945 -69 1063 -18 q 694 -119 828 -119 m 694 -75 q 929 -28 819 -75 q 1121 101 1039 19 q 1250 293 1203 183 q 1297 528 1297 403 q 1250 763 1297 653 q 1121 954 1203 872 q 929 1083 1039 1036 q 694 1131 819 1131 q 458 1083 568 1131 q 267 953 349 1035 q 139 761 186 871 q 92 528 92 651 q 139 293 92 403 q 268 101 186 183 q 460 -28 350 19 q 694 -75 569 -75 m 408 765 l 289 765 l 289 839 q 369 863 336 849 q 432 896 403 876 l 515 896 l 515 176 l 408 176 l 408 765 m 847 160 q 724 188 776 160 q 639 257 671 217 l 694 326 q 760 273 724 294 q 846 251 796 251 q 926 285 894 251 q 958 374 958 318 q 949 428 958 404 q 919 470 940 453 q 860 497 897 488 q 769 507 824 507 l 769 592 q 900 626 863 592 q 938 715 938 661 q 911 794 938 765 q 840 822 885 822 q 719 760 774 822 l 660 826 q 744 890 699 867 q 847 913 790 913 q 990 863 935 913 q 1044 722 1044 814 q 1014 619 1044 660 q 933 556 983 579 l 933 551 q 1029 488 990 533 q 1068 368 1068 443 q 1051 281 1068 319 q 1003 216 1033 243 q 933 174 974 189 q 847 160 893 160 z "},"⑭":{"ha":1389,"x_min":47,"x_max":1342,"o":"m 288 839 q 367 863 333 849 q 429 896 401 876 l 513 896 l 513 176 l 406 176 l 406 765 l 288 765 l 288 839 m 907 456 l 907 639 q 908 710 907 669 q 911 783 908 751 l 906 783 q 882 734 892 754 q 858 685 872 714 l 732 456 l 907 456 m 1007 456 l 1088 456 l 1088 368 l 1007 368 l 1007 176 l 907 176 l 907 368 l 629 368 l 629 444 l 882 896 l 1007 896 l 1007 456 m 694 -75 q 929 -28 819 -75 q 1121 101 1039 19 q 1250 293 1203 183 q 1297 528 1297 403 q 1250 763 1297 653 q 1121 954 1203 872 q 929 1083 1039 1036 q 694 1131 819 1131 q 458 1083 568 1131 q 267 953 349 1035 q 139 761 186 871 q 92 528 92 651 q 139 293 92 403 q 268 101 186 183 q 460 -28 350 19 q 694 -75 569 -75 m 694 1175 q 946 1124 828 1175 q 1152 985 1064 1074 q 1291 779 1240 897 q 1342 528 1342 661 q 1290 275 1342 393 q 1151 69 1239 157 q 945 -69 1063 -18 q 694 -119 828 -119 q 443 -69 561 -119 q 237 70 325 -18 q 98 276 149 158 q 47 528 47 394 q 98 779 47 661 q 237 985 149 897 q 443 1124 325 1074 q 694 1175 561 1175 z "},"⑮":{"ha":1389,"x_min":47,"x_max":1342,"o":"m 694 -119 q 443 -69 561 -119 q 237 70 325 -18 q 98 276 149 158 q 47 528 47 394 q 98 779 47 661 q 237 985 149 897 q 443 1124 325 1074 q 694 1175 561 1175 q 946 1124 828 1175 q 1152 985 1064 1074 q 1291 779 1240 897 q 1342 528 1342 661 q 1290 275 1342 393 q 1151 69 1239 157 q 945 -69 1063 -18 q 694 -119 828 -119 m 694 -75 q 929 -28 819 -75 q 1121 101 1039 19 q 1250 293 1203 183 q 1297 528 1297 403 q 1250 763 1297 653 q 1121 954 1203 872 q 929 1083 1039 1036 q 694 1131 819 1131 q 458 1083 568 1131 q 267 953 349 1035 q 139 761 186 871 q 92 528 92 651 q 139 293 92 403 q 268 101 186 183 q 460 -28 350 19 q 694 -75 569 -75 m 406 765 l 288 765 l 288 839 q 367 863 333 849 q 429 896 401 876 l 513 896 l 513 176 l 406 176 l 406 765 m 853 160 q 728 189 778 160 q 643 256 678 218 l 693 329 q 757 276 721 300 q 846 251 793 251 q 932 292 897 251 q 967 404 967 333 q 935 513 967 472 q 850 553 903 553 q 795 540 818 553 q 746 506 772 528 l 694 542 l 713 896 l 1044 896 l 1044 799 l 803 799 l 792 604 q 833 624 811 615 q 879 633 856 633 q 955 619 919 633 q 1017 578 990 606 q 1060 508 1044 550 q 1075 407 1075 465 q 1056 302 1075 349 q 1007 224 1038 256 q 936 176 976 193 q 853 160 896 160 z "},"⑴":{"ha":1389,"x_min":44,"x_max":1344,"o":"m 218 -104 q 85 190 125 36 q 44 528 44 343 q 85 865 44 711 q 218 1160 125 1019 l 281 1140 q 160 851 194 1006 q 126 528 126 696 q 161 204 128 358 q 281 -85 194 50 l 218 -104 m 450 122 l 665 122 l 665 854 l 493 854 l 493 936 q 608 965 560 947 q 696 1008 656 983 l 792 1008 l 792 122 l 988 122 l 988 17 l 450 17 l 450 122 m 1108 -85 q 1228 204 1194 50 q 1263 528 1261 358 q 1228 851 1263 696 q 1108 1140 1194 1006 l 1171 1160 q 1304 865 1264 1019 q 1344 528 1344 711 q 1304 190 1344 343 q 1171 -104 1264 36 l 1108 -85 z "},"⑵":{"ha":1389,"x_min":44,"x_max":1344,"o":"m 218 -104 q 85 190 125 36 q 44 528 44 343 q 85 865 44 711 q 218 1160 125 1019 l 281 1140 q 160 851 194 1006 q 126 528 126 696 q 161 204 128 358 q 281 -85 194 50 l 218 -104 m 407 90 q 596 291 513 200 q 737 459 679 382 q 824 602 794 536 q 854 729 854 668 q 811 868 854 814 q 676 922 768 922 q 562 890 615 922 q 471 806 508 857 l 396 878 q 525 987 454 947 q 692 1026 596 1026 q 813 1006 760 1026 q 903 947 867 985 q 960 855 940 908 q 979 735 979 801 q 949 593 979 665 q 867 445 919 521 q 744 288 815 369 q 590 117 674 206 q 672 122 631 119 q 751 125 714 125 l 1025 125 l 1025 17 l 407 17 l 407 90 m 1108 -85 q 1228 204 1194 50 q 1263 528 1261 358 q 1228 851 1263 696 q 1108 1140 1194 1006 l 1171 1160 q 1304 865 1264 1019 q 1344 528 1344 711 q 1304 190 1344 343 q 1171 -104 1264 36 l 1108 -85 z "},"⑶":{"ha":1389,"x_min":44,"x_max":1344,"o":"m 218 -104 q 85 190 125 36 q 44 528 44 343 q 85 865 44 711 q 218 1160 125 1019 l 281 1140 q 160 851 194 1006 q 126 528 126 696 q 161 204 128 358 q 281 -85 194 50 l 218 -104 m 688 -1 q 495 40 575 -1 q 371 139 415 82 l 436 219 q 537 138 476 171 q 676 106 597 106 q 756 118 719 106 q 819 153 792 131 q 861 210 846 176 q 876 286 876 244 q 860 368 876 332 q 808 429 844 404 q 713 468 771 454 q 571 482 654 482 l 571 579 q 698 594 646 579 q 783 634 750 608 q 830 694 815 660 q 844 765 844 728 q 799 881 844 840 q 679 922 754 922 q 569 896 621 922 q 478 824 518 869 l 408 903 q 531 992 461 958 q 685 1026 601 1026 q 801 1010 749 1026 q 892 961 854 993 q 951 883 931 929 q 972 776 972 836 q 924 628 972 686 q 789 540 876 571 l 789 535 q 944 447 883 511 q 1006 281 1006 383 q 981 162 1006 214 q 913 74 956 110 q 812 18 869 38 q 688 -1 754 -1 m 1108 -85 q 1228 204 1194 50 q 1263 528 1261 358 q 1228 851 1263 696 q 1108 1140 1194 1006 l 1171 1160 q 1304 865 1264 1019 q 1344 528 1344 711 q 1304 190 1344 343 q 1171 -104 1264 36 l 1108 -85 z "},"⑷":{"ha":1389,"x_min":44,"x_max":1344,"o":"m 281 1140 q 160 851 194 1006 q 126 528 126 696 q 161 204 128 358 q 281 -85 194 50 l 218 -104 q 85 190 125 36 q 44 528 44 343 q 85 865 44 711 q 218 1160 125 1019 l 281 1140 m 771 393 l 771 700 q 772 785 771 740 q 776 878 774 829 l 771 878 q 731 804 749 839 q 692 732 714 769 l 472 393 l 771 393 m 892 393 l 1025 393 l 1025 292 l 892 292 l 892 17 l 771 17 l 771 292 l 343 292 l 343 376 l 749 1008 l 892 1008 l 892 393 m 1171 1160 q 1304 865 1264 1019 q 1344 528 1344 711 q 1304 190 1344 343 q 1171 -104 1264 36 l 1108 -85 q 1228 204 1194 50 q 1263 528 1261 358 q 1228 851 1263 696 q 1108 1140 1194 1006 l 1171 1160 z "},"⑸":{"ha":1389,"x_min":44,"x_max":1344,"o":"m 218 -104 q 85 190 125 36 q 44 528 44 343 q 85 865 44 711 q 218 1160 125 1019 l 281 1140 q 160 851 194 1006 q 126 528 126 696 q 161 204 128 358 q 281 -85 194 50 l 218 -104 m 674 -3 q 570 8 617 -3 q 485 38 524 19 q 417 82 447 57 q 361 133 386 107 l 425 215 q 522 138 465 171 q 661 104 578 104 q 744 120 706 104 q 813 165 783 136 q 858 236 842 194 q 875 331 875 278 q 819 492 875 433 q 672 550 764 550 q 587 535 622 550 q 510 489 551 519 l 443 531 l 475 1008 l 957 1008 l 957 899 l 586 899 l 558 603 q 628 635 594 625 q 711 644 663 644 q 824 626 771 644 q 917 570 878 608 q 981 474 957 532 q 1004 335 1004 415 q 976 191 1004 254 q 903 85 949 128 q 797 19 857 42 q 674 -3 738 -3 m 1108 -85 q 1228 204 1194 50 q 1263 528 1261 358 q 1228 851 1263 696 q 1108 1140 1194 1006 l 1171 1160 q 1304 865 1264 1019 q 1344 528 1344 711 q 1304 190 1344 343 q 1171 -104 1264 36 l 1108 -85 z "},"⑹":{"ha":1389,"x_min":44,"x_max":1344,"o":"m 281 1140 q 160 851 194 1006 q 126 528 126 696 q 161 204 128 358 q 281 -85 194 50 l 218 -104 q 85 190 125 36 q 44 528 44 343 q 85 865 44 711 q 218 1160 125 1019 l 281 1140 m 719 100 q 788 115 757 100 q 842 159 819 131 q 878 227 865 188 q 892 315 892 267 q 846 472 892 419 q 717 525 800 525 q 616 497 671 525 q 513 396 561 469 q 579 175 525 250 q 719 100 633 100 m 924 843 q 849 900 894 881 q 756 919 804 919 q 663 898 707 919 q 586 827 619 876 q 532 697 553 778 q 510 497 511 615 q 617 590 554 557 q 739 622 679 622 q 936 545 861 622 q 1011 315 1011 468 q 988 186 1011 244 q 926 86 965 128 q 833 22 886 44 q 721 -1 781 -1 q 591 28 651 -1 q 486 118 531 58 q 416 267 442 178 q 390 474 390 356 q 420 729 390 624 q 499 901 450 835 q 613 997 549 967 q 749 1026 678 1026 q 893 997 832 1026 q 996 922 954 968 l 924 843 m 1171 1160 q 1304 865 1264 1019 q 1344 528 1344 711 q 1304 190 1344 343 q 1171 -104 1264 36 l 1108 -85 q 1228 204 1194 50 q 1263 528 1261 358 q 1228 851 1263 696 q 1108 1140 1194 1006 l 1171 1160 z "},"⑺":{"ha":1389,"x_min":44,"x_max":1344,"o":"m 218 -104 q 85 190 125 36 q 44 528 44 343 q 85 865 44 711 q 218 1160 125 1019 l 281 1140 q 160 851 194 1006 q 126 528 126 696 q 161 204 128 358 q 281 -85 194 50 l 218 -104 m 575 17 q 599 274 581 157 q 650 494 617 390 q 732 697 683 599 q 847 901 781 796 l 390 901 l 390 1008 l 986 1008 l 986 931 q 856 715 907 817 q 772 506 804 613 q 725 281 740 400 q 704 17 710 163 l 575 17 m 1108 -85 q 1228 204 1194 50 q 1263 528 1261 358 q 1228 851 1263 696 q 1108 1140 1194 1006 l 1171 1160 q 1304 865 1264 1019 q 1344 528 1344 711 q 1304 190 1344 343 q 1171 -104 1264 36 l 1108 -85 z "},"⑻":{"ha":1389,"x_min":44,"x_max":1344,"o":"m 218 -104 q 85 190 125 36 q 44 528 44 343 q 85 865 44 711 q 218 1160 125 1019 l 281 1140 q 160 851 194 1006 q 126 528 126 696 q 161 204 128 358 q 281 -85 194 50 l 218 -104 m 699 -1 q 569 19 628 -1 q 467 75 510 39 q 401 161 425 111 q 378 271 378 211 q 394 363 378 322 q 435 437 410 404 q 494 494 461 469 q 561 539 526 519 l 561 544 q 460 644 500 589 q 421 778 421 699 q 442 880 421 833 q 500 958 463 926 q 588 1008 538 990 q 699 1026 639 1026 q 815 1008 764 1026 q 903 955 867 989 q 958 874 939 921 q 978 771 978 826 q 966 699 978 733 q 934 634 954 665 q 889 575 914 603 q 838 524 864 547 l 838 518 q 908 472 875 496 q 963 419 940 449 q 999 350 986 389 q 1013 258 1013 311 q 991 156 1013 203 q 929 74 969 108 q 831 19 889 39 q 699 -1 772 -1 m 763 557 q 839 657 811 608 q 867 764 867 706 q 855 830 867 799 q 822 884 843 861 q 768 920 800 907 q 696 933 736 933 q 583 892 629 933 q 538 778 538 850 q 554 704 538 736 q 601 647 571 672 q 672 599 631 621 q 763 557 713 578 m 701 93 q 840 139 790 93 q 890 261 890 185 q 871 345 890 311 q 816 406 851 379 q 733 454 781 432 q 628 500 685 476 q 576 457 600 479 q 533 408 551 435 q 503 351 514 382 q 493 282 493 319 q 508 206 493 240 q 551 146 524 171 q 617 107 579 121 q 701 93 656 93 m 1108 -85 q 1228 204 1194 50 q 1263 528 1261 358 q 1228 851 1263 696 q 1108 1140 1194 1006 l 1171 1160 q 1304 865 1264 1019 q 1344 528 1344 711 q 1304 190 1344 343 q 1171 -104 1264 36 l 1108 -85 z "},"⑼":{"ha":1389,"x_min":44,"x_max":1344,"o":"m 281 1140 q 160 851 194 1006 q 126 528 126 696 q 161 204 128 358 q 281 -85 194 50 l 218 -104 q 85 190 125 36 q 44 528 44 343 q 85 865 44 711 q 218 1160 125 1019 l 281 1140 m 672 500 q 773 528 718 500 q 876 629 828 556 q 810 851 864 776 q 669 926 757 926 q 547 867 594 926 q 499 710 499 808 q 544 553 499 606 q 672 500 589 500 m 465 183 q 540 125 494 144 q 633 106 585 106 q 726 127 682 106 q 803 199 769 149 q 856 329 836 249 q 879 529 876 410 q 772 437 835 469 q 650 404 710 404 q 453 481 528 404 q 378 710 378 558 q 401 839 378 781 q 463 939 424 897 q 556 1003 503 981 q 667 1026 608 1026 q 797 997 736 1026 q 902 908 857 967 q 973 759 947 849 q 999 551 999 669 q 969 297 999 401 q 890 125 940 192 q 776 28 840 58 q 640 -1 711 -1 q 496 28 557 -1 q 393 104 435 57 l 465 183 m 1171 1160 q 1304 865 1264 1019 q 1344 528 1344 711 q 1304 190 1344 343 q 1171 -104 1264 36 l 1108 -85 q 1228 204 1194 50 q 1263 528 1261 358 q 1228 851 1263 696 q 1108 1140 1194 1006 l 1171 1160 z "},"⑽":{"ha":1389,"x_min":44,"x_max":1344,"o":"m 1108 -85 q 1228 204 1194 50 q 1263 528 1261 358 q 1228 851 1263 696 q 1108 1140 1194 1006 l 1171 1160 q 1304 865 1264 1019 q 1344 528 1344 711 q 1304 190 1344 343 q 1171 -104 1264 36 l 1108 -85 m 892 96 q 951 119 925 96 q 997 192 978 142 q 1027 322 1017 242 q 1038 518 1038 403 q 1027 713 1038 633 q 997 840 1017 792 q 951 910 978 889 q 892 931 925 931 q 833 910 860 931 q 786 840 806 889 q 756 713 767 792 q 746 518 746 633 q 756 322 746 403 q 786 192 767 242 q 833 119 806 142 q 892 96 860 96 m 892 -1 q 792 28 838 -1 q 713 121 746 58 q 662 282 681 183 q 643 518 643 381 q 662 752 643 656 q 713 910 681 849 q 792 999 746 971 q 892 1026 838 1026 q 991 999 946 1026 q 1069 910 1036 971 q 1121 752 1103 849 q 1139 518 1139 656 q 1121 282 1139 381 q 1069 121 1103 183 q 991 28 1036 58 q 892 -1 946 -1 m 407 865 l 261 865 l 261 936 q 363 966 319 947 q 443 1008 406 985 l 507 1008 l 507 17 l 407 17 l 407 865 m 218 -104 q 85 190 125 36 q 44 528 44 343 q 85 865 44 711 q 218 1160 125 1019 l 281 1140 q 160 851 194 1006 q 126 528 126 696 q 161 204 128 358 q 281 -85 194 50 l 218 -104 z "},"⑾":{"ha":1389,"x_min":44,"x_max":1344,"o":"m 1108 -85 q 1228 204 1194 50 q 1263 528 1261 358 q 1228 851 1263 696 q 1108 1140 1194 1006 l 1171 1160 q 1304 865 1264 1019 q 1344 528 1344 711 q 1304 190 1344 343 q 1171 -104 1264 36 l 1108 -85 m 896 865 l 751 865 l 751 936 q 853 966 810 947 q 933 1008 896 985 l 997 1008 l 997 17 l 896 17 l 896 865 m 474 865 l 328 865 l 328 936 q 431 966 388 947 q 511 1008 474 985 l 574 1008 l 574 17 l 474 17 l 474 865 m 218 -104 q 85 190 125 36 q 44 528 44 343 q 85 865 44 711 q 218 1160 125 1019 l 281 1140 q 160 851 194 1006 q 126 528 126 696 q 161 204 128 358 q 281 -85 194 50 l 218 -104 z "},"⑿":{"ha":1389,"x_min":44,"x_max":1344,"o":"m 1108 -85 q 1228 204 1194 50 q 1263 528 1261 358 q 1228 851 1263 696 q 1108 1140 1194 1006 l 1171 1160 q 1304 865 1264 1019 q 1344 528 1344 711 q 1304 190 1344 343 q 1171 -104 1264 36 l 1108 -85 m 646 90 q 912 472 825 314 q 999 749 999 631 q 965 883 999 833 q 860 933 932 933 q 773 903 814 933 q 700 828 732 872 l 636 888 q 739 987 686 947 q 867 1026 792 1026 q 1035 951 975 1026 q 1096 751 1096 876 q 1012 454 1096 613 q 782 106 928 296 q 858 111 819 108 q 932 114 897 114 l 1128 114 l 1128 17 l 646 17 l 646 90 m 407 865 l 261 865 l 261 936 q 363 966 319 947 q 443 1008 406 985 l 507 1008 l 507 17 l 407 17 l 407 865 m 218 -104 q 85 190 125 36 q 44 528 44 343 q 85 865 44 711 q 218 1160 125 1019 l 281 1140 q 160 851 194 1006 q 126 528 126 696 q 161 204 128 358 q 281 -85 194 50 l 218 -104 z "},"⒀":{"ha":1389,"x_min":44,"x_max":1344,"o":"m 1108 -85 q 1228 204 1194 50 q 1263 528 1261 358 q 1228 851 1263 696 q 1108 1140 1194 1006 l 1171 1160 q 1304 865 1264 1019 q 1344 528 1344 711 q 1304 190 1344 343 q 1171 -104 1264 36 l 1108 -85 m 950 535 q 1022 502 988 524 q 1081 449 1056 481 q 1120 374 1106 417 q 1135 281 1135 332 q 1114 162 1135 214 q 1058 74 1093 110 q 974 18 1022 38 q 872 -1 926 -1 q 719 36 782 -1 q 619 121 657 74 l 678 193 q 756 124 711 153 q 868 96 801 96 q 985 144 936 96 q 1033 279 1033 192 q 974 431 1033 375 q 779 486 914 486 l 779 576 q 883 592 840 576 q 954 634 926 607 q 994 697 982 661 q 1007 774 1007 732 q 969 891 1007 849 q 868 933 931 933 q 785 911 824 933 q 717 851 747 889 l 653 921 q 751 997 697 968 q 869 1026 804 1026 q 1042 962 976 1026 q 1108 776 1108 897 q 1065 627 1108 686 q 950 540 1021 568 l 950 535 m 407 865 l 261 865 l 261 936 q 363 966 319 947 q 443 1008 406 985 l 507 1008 l 507 17 l 407 17 l 407 865 m 218 -104 q 85 190 125 36 q 44 528 44 343 q 85 865 44 711 q 218 1160 125 1019 l 281 1140 q 160 851 194 1006 q 126 528 126 696 q 161 204 128 358 q 281 -85 194 50 l 218 -104 z "},"⒁":{"ha":1389,"x_min":44,"x_max":1344,"o":"m 281 1140 q 160 851 194 1006 q 126 528 126 696 q 161 204 128 358 q 281 -85 194 50 l 218 -104 q 85 190 125 36 q 44 528 44 343 q 85 865 44 711 q 218 1160 125 1019 l 281 1140 m 261 936 q 363 966 319 947 q 443 1008 406 985 l 507 1008 l 507 17 l 407 17 l 407 865 l 261 865 l 261 936 m 939 393 l 939 681 q 940 726 939 701 q 941 778 940 751 q 942 831 942 806 q 944 878 943 857 l 939 878 q 909 803 924 838 q 876 728 894 768 l 707 393 l 939 393 m 1033 303 l 1033 17 l 939 17 l 939 303 l 607 303 l 607 376 l 929 1008 l 1033 1008 l 1033 393 l 1138 393 l 1138 303 l 1033 303 m 1171 1160 q 1304 865 1264 1019 q 1344 528 1344 711 q 1304 190 1344 343 q 1171 -104 1264 36 l 1108 -85 q 1228 204 1194 50 q 1263 528 1261 358 q 1228 851 1263 696 q 1108 1140 1194 1006 l 1171 1160 z "},"⒂":{"ha":1389,"x_min":44,"x_max":1344,"o":"m 1108 -85 q 1228 204 1194 50 q 1263 528 1261 358 q 1228 851 1263 696 q 1108 1140 1194 1006 l 1171 1160 q 1304 865 1264 1019 q 1344 528 1344 711 q 1304 190 1344 343 q 1171 -104 1264 36 l 1108 -85 m 758 597 q 815 628 788 617 q 879 639 842 639 q 969 621 926 639 q 1043 565 1011 603 q 1094 471 1075 528 q 1113 335 1113 414 q 1091 191 1113 254 q 1033 85 1069 128 q 951 19 997 42 q 854 -3 904 -3 q 772 8 808 -3 q 705 35 735 18 q 651 73 675 51 q 607 117 626 94 l 665 189 q 738 122 697 151 q 840 93 779 93 q 908 110 876 93 q 962 157 939 126 q 998 232 985 188 q 1011 331 1011 276 q 968 495 1011 435 q 857 556 925 556 q 792 540 819 556 q 735 496 765 524 l 669 533 l 699 1008 l 1078 1008 l 1078 910 l 782 910 l 758 597 m 407 865 l 261 865 l 261 936 q 363 966 319 947 q 443 1008 406 985 l 507 1008 l 507 17 l 407 17 l 407 865 m 218 -104 q 85 190 125 36 q 44 528 44 343 q 85 865 44 711 q 218 1160 125 1019 l 281 1140 q 160 851 194 1006 q 126 528 126 696 q 161 204 128 358 q 281 -85 194 50 l 218 -104 z "},"⒜":{"ha":1389,"x_min":44,"x_max":1344,"o":"m 218 -104 q 85 190 125 36 q 44 528 44 343 q 85 865 44 711 q 218 1160 125 1019 l 281 1140 q 160 851 194 1006 q 126 528 126 696 q 161 204 128 358 q 281 -85 194 50 l 218 -104 m 610 128 q 524 142 564 128 q 456 185 485 157 q 410 252 426 213 q 393 343 393 292 q 501 531 393 465 q 846 624 610 597 q 839 694 846 660 q 815 754 832 728 q 769 797 799 781 q 696 813 740 813 q 576 787 632 813 q 475 731 519 761 l 425 821 q 552 887 476 856 q 718 918 628 918 q 914 834 853 918 q 975 607 975 750 l 975 147 l 869 147 l 858 236 l 853 236 q 740 160 800 192 q 610 128 679 128 m 647 233 q 747 258 700 233 q 846 332 793 283 l 846 538 q 692 510 754 526 q 592 470 631 493 q 538 418 554 447 q 521 353 521 389 q 557 261 521 289 q 647 233 593 233 m 1108 -85 q 1228 204 1194 50 q 1263 528 1261 358 q 1228 851 1263 696 q 1108 1140 1194 1006 l 1171 1160 q 1304 865 1264 1019 q 1344 528 1344 711 q 1304 190 1344 343 q 1171 -104 1264 36 l 1108 -85 z "},"⒝":{"ha":1389,"x_min":44,"x_max":1344,"o":"m 218 -104 q 85 190 125 36 q 44 528 44 343 q 85 865 44 711 q 218 1160 125 1019 l 281 1140 q 160 851 194 1006 q 126 528 126 696 q 161 204 128 358 q 281 -85 194 50 l 218 -104 m 733 0 q 631 24 685 0 q 528 93 576 49 l 525 93 l 513 19 l 408 19 l 408 1122 l 539 1122 l 539 822 l 535 686 q 642 760 585 731 q 761 790 700 790 q 886 763 832 790 q 978 686 940 736 q 1034 566 1015 636 q 1053 408 1053 496 q 1026 235 1053 311 q 956 108 1000 160 q 855 28 913 56 q 733 0 797 0 m 713 110 q 794 130 757 110 q 860 188 832 150 q 903 281 888 226 q 918 406 918 336 q 908 519 918 468 q 874 606 897 569 q 815 661 851 642 q 729 681 779 681 q 539 579 643 681 l 539 188 q 631 127 586 144 q 713 110 676 110 m 1108 -85 q 1228 204 1194 50 q 1263 528 1261 358 q 1228 851 1263 696 q 1108 1140 1194 1006 l 1171 1160 q 1304 865 1264 1019 q 1344 528 1344 711 q 1304 190 1344 343 q 1171 -104 1264 36 l 1108 -85 z "},"⒞":{"ha":1389,"x_min":44,"x_max":1344,"o":"m 218 -104 q 85 190 125 36 q 44 528 44 343 q 85 865 44 711 q 218 1160 125 1019 l 281 1140 q 160 851 194 1006 q 126 528 126 696 q 161 204 128 358 q 281 -85 194 50 l 218 -104 m 744 128 q 605 154 669 128 q 493 232 540 181 q 419 356 446 283 q 392 524 392 429 q 422 690 392 617 q 501 815 451 764 q 617 892 551 865 q 754 918 682 918 q 883 891 829 918 q 975 828 938 864 l 910 744 q 841 792 876 774 q 761 811 806 811 q 667 790 710 811 q 592 731 624 769 q 543 640 561 693 q 525 524 525 588 q 542 406 525 458 q 590 315 560 353 q 663 257 621 278 q 757 236 706 236 q 854 258 810 236 q 933 313 899 281 l 990 226 q 876 154 939 181 q 744 128 813 128 m 1108 -85 q 1228 204 1194 50 q 1263 528 1261 358 q 1228 851 1263 696 q 1108 1140 1194 1006 l 1171 1160 q 1304 865 1264 1019 q 1344 528 1344 711 q 1304 190 1344 343 q 1171 -104 1264 36 l 1108 -85 z "},"⒟":{"ha":1389,"x_min":44,"x_max":1344,"o":"m 218 -104 q 85 190 125 36 q 44 528 44 343 q 85 865 44 711 q 218 1160 125 1019 l 281 1140 q 160 851 194 1006 q 126 528 126 696 q 161 204 128 358 q 281 -85 194 50 l 218 -104 m 639 0 q 515 26 571 0 q 420 103 460 53 q 359 227 381 154 q 338 394 338 300 q 364 560 338 486 q 434 684 390 633 q 535 763 478 735 q 654 790 592 790 q 763 768 717 790 q 857 706 810 746 l 851 832 l 851 1122 l 983 1122 l 983 19 l 875 19 l 863 107 l 860 107 q 761 31 818 63 q 639 0 704 0 m 668 110 q 851 211 763 110 l 851 604 q 764 663 806 646 q 678 681 722 681 q 597 660 635 681 q 533 603 560 640 q 490 513 506 565 q 474 396 474 460 q 524 185 474 260 q 668 110 574 110 m 1108 -85 q 1228 204 1194 50 q 1263 528 1261 358 q 1228 851 1263 696 q 1108 1140 1194 1006 l 1171 1160 q 1304 865 1264 1019 q 1344 528 1344 711 q 1304 190 1344 343 q 1171 -104 1264 36 l 1108 -85 z "},"⒠":{"ha":1389,"x_min":44,"x_max":1344,"o":"m 218 -104 q 85 190 125 36 q 44 528 44 343 q 85 865 44 711 q 218 1160 125 1019 l 281 1140 q 160 851 194 1006 q 126 528 126 696 q 161 204 128 358 q 281 -85 194 50 l 218 -104 m 743 128 q 606 155 669 128 q 494 233 542 182 q 418 357 446 283 q 390 524 390 431 q 418 688 390 615 q 492 813 446 761 q 597 891 538 864 q 721 918 657 918 q 844 893 790 918 q 936 822 899 868 q 993 711 974 776 q 1013 565 1013 646 q 1012 527 1013 546 q 1008 494 1011 508 l 519 494 q 591 302 526 372 q 758 232 656 232 q 853 248 811 232 q 936 292 896 264 l 983 207 q 876 151 935 174 q 743 128 818 128 m 899 581 q 853 756 899 696 q 722 815 807 815 q 650 799 685 815 q 588 753 615 783 q 541 680 560 724 q 517 581 522 636 l 899 581 m 1108 -85 q 1228 204 1194 50 q 1263 528 1261 358 q 1228 851 1263 696 q 1108 1140 1194 1006 l 1171 1160 q 1304 865 1264 1019 q 1344 528 1344 711 q 1304 190 1344 343 q 1171 -104 1264 36 l 1108 -85 z "},"⒡":{"ha":1389,"x_min":44,"x_max":1344,"o":"m 281 1140 q 160 851 194 1006 q 126 528 126 696 q 161 204 128 358 q 281 -85 194 50 l 218 -104 q 85 190 125 36 q 44 528 44 343 q 85 865 44 711 q 218 1160 125 1019 l 281 1140 m 553 889 q 606 1072 553 1004 q 775 1140 660 1140 q 842 1133 810 1140 q 901 1114 875 1125 l 874 1015 q 789 1035 831 1035 q 683 889 683 1035 l 683 772 l 843 772 l 843 667 l 683 667 l 683 19 l 553 19 l 553 667 l 450 667 l 450 765 l 553 772 l 553 889 m 1171 1160 q 1304 865 1264 1019 q 1344 528 1344 711 q 1304 190 1344 343 q 1171 -104 1264 36 l 1108 -85 q 1228 204 1194 50 q 1263 528 1261 358 q 1228 851 1263 696 q 1108 1140 1194 1006 l 1171 1160 z "},"⒢":{"ha":1389,"x_min":44,"x_max":1344,"o":"m 218 -104 q 85 190 125 36 q 44 528 44 343 q 85 865 44 711 q 218 1160 125 1019 l 281 1140 q 160 851 194 1006 q 126 528 126 696 q 161 204 128 358 q 281 -85 194 50 l 218 -104 m 685 -43 q 570 -31 622 -43 q 481 6 518 -18 q 424 65 444 29 q 403 147 403 101 q 428 233 403 192 q 500 306 454 275 l 500 311 q 453 359 472 331 q 433 429 433 388 q 460 508 433 474 q 515 563 488 542 l 515 568 q 449 647 479 597 q 418 764 418 697 q 439 872 418 824 q 496 954 460 921 q 580 1006 532 988 q 681 1024 628 1024 q 771 1006 735 1024 l 1021 1006 l 1021 906 l 878 906 q 919 844 901 882 q 936 761 936 806 q 917 654 936 701 q 863 574 897 607 q 781 523 828 540 q 681 506 735 506 q 638 511 664 506 q 589 528 613 517 q 557 495 571 513 q 543 450 543 478 q 567 397 543 418 q 658 376 592 376 l 771 376 q 958 335 896 376 q 1021 206 1021 294 q 997 110 1021 156 q 930 31 974 65 q 824 -23 886 -3 q 685 -43 761 -43 m 681 592 q 782 638 742 592 q 822 764 822 685 q 782 887 822 843 q 681 931 742 931 q 581 887 622 931 q 540 764 540 843 q 551 692 540 724 q 582 639 563 661 q 626 605 601 617 q 681 593 651 593 l 681 592 m 703 46 q 781 58 746 46 q 842 89 817 69 q 880 133 867 108 q 893 183 893 157 q 858 250 893 232 q 756 268 822 268 l 661 268 q 624 270 646 268 q 579 279 601 272 q 532 224 546 254 q 518 164 518 193 q 567 78 518 110 q 703 46 615 46 m 1108 -85 q 1228 204 1194 50 q 1263 528 1261 358 q 1228 851 1263 696 q 1108 1140 1194 1006 l 1171 1160 q 1304 865 1264 1019 q 1344 528 1344 711 q 1304 190 1344 343 q 1171 -104 1264 36 l 1108 -85 z "},"⒣":{"ha":1389,"x_min":44,"x_max":1344,"o":"m 218 -104 q 85 190 125 36 q 44 528 44 343 q 85 865 44 711 q 218 1160 125 1019 l 281 1140 q 160 851 194 1006 q 126 528 126 696 q 161 204 128 358 q 281 -85 194 50 l 218 -104 m 407 1122 l 538 1122 l 538 822 l 532 667 q 586 715 558 692 q 644 754 614 738 q 707 781 674 771 q 779 790 740 790 q 949 715 896 790 q 1003 496 1003 640 l 1003 19 l 874 19 l 874 479 q 842 631 874 583 q 738 679 810 679 q 637 649 681 679 q 538 564 593 619 l 538 19 l 407 19 l 407 1122 m 1108 -85 q 1228 204 1194 50 q 1263 528 1261 358 q 1228 851 1263 696 q 1108 1140 1194 1006 l 1171 1160 q 1304 865 1264 1019 q 1344 528 1344 711 q 1304 190 1344 343 q 1171 -104 1264 36 l 1108 -85 z "},"⒤":{"ha":1389,"x_min":44,"x_max":1344,"o":"m 218 -104 q 85 190 125 36 q 44 528 44 343 q 85 865 44 711 q 218 1160 125 1019 l 281 1140 q 160 851 194 1006 q 126 528 126 696 q 161 204 128 358 q 281 -85 194 50 l 218 -104 m 628 772 l 760 772 l 760 19 l 628 19 l 628 772 m 696 925 q 631 949 657 925 q 606 1010 606 974 q 631 1070 606 1047 q 696 1093 657 1093 q 758 1070 732 1093 q 785 1010 785 1047 q 758 949 785 974 q 696 925 732 925 m 1108 -85 q 1228 204 1194 50 q 1263 528 1261 358 q 1228 851 1263 696 q 1108 1140 1194 1006 l 1171 1160 q 1304 865 1264 1019 q 1344 528 1344 711 q 1304 190 1344 343 q 1171 -104 1264 36 l 1108 -85 z "},"⒥":{"ha":1389,"x_min":44,"x_max":1344,"o":"m 218 -104 q 85 190 125 36 q 44 528 44 343 q 85 865 44 711 q 218 1160 125 1019 l 281 1140 q 160 851 194 1006 q 126 528 126 696 q 161 204 128 358 q 281 -85 194 50 l 218 -104 m 578 -206 q 515 -199 543 -206 q 467 -186 486 -193 l 492 -86 q 526 -95 507 -92 q 564 -99 544 -99 q 639 -59 621 -99 q 657 49 657 -19 l 657 883 l 786 883 l 786 49 q 775 -57 786 -10 q 739 -137 764 -104 q 674 -187 714 -169 q 578 -206 635 -206 m 722 1038 q 658 1061 683 1038 q 633 1121 633 1085 q 658 1183 633 1160 q 722 1206 683 1206 q 785 1183 760 1206 q 811 1121 811 1160 q 785 1061 811 1085 q 722 1038 760 1038 m 1108 -85 q 1228 204 1194 50 q 1263 528 1261 358 q 1228 851 1263 696 q 1108 1140 1194 1006 l 1171 1160 q 1304 865 1264 1019 q 1344 528 1344 711 q 1304 190 1344 343 q 1171 -104 1264 36 l 1108 -85 z "},"⒦":{"ha":1389,"x_min":44,"x_max":1344,"o":"m 218 -104 q 85 190 125 36 q 44 528 44 343 q 85 865 44 711 q 218 1160 125 1019 l 281 1140 q 160 851 194 1006 q 126 528 126 696 q 161 204 128 358 q 281 -85 194 50 l 218 -104 m 418 1122 l 546 1122 l 546 379 l 551 379 l 853 772 l 997 772 l 758 469 l 1031 19 l 888 19 l 683 379 l 546 217 l 546 19 l 418 19 l 418 1122 m 1108 -85 q 1228 204 1194 50 q 1263 528 1261 358 q 1228 851 1263 696 q 1108 1140 1194 1006 l 1171 1160 q 1304 865 1264 1019 q 1344 528 1344 711 q 1304 190 1344 343 q 1171 -104 1264 36 l 1108 -85 z "},"⒧":{"ha":1389,"x_min":44,"x_max":1344,"o":"m 218 -104 q 85 190 125 36 q 44 528 44 343 q 85 865 44 711 q 218 1160 125 1019 l 281 1140 q 160 851 194 1006 q 126 528 126 696 q 161 204 128 358 q 281 -85 194 50 l 218 -104 m 760 0 q 654 45 686 0 q 622 174 622 90 l 622 1122 l 754 1122 l 754 164 q 765 121 754 133 q 789 108 775 108 q 800 108 794 108 q 817 111 806 108 l 835 13 q 803 4 819 8 q 760 0 786 0 m 1108 -85 q 1228 204 1194 50 q 1263 528 1261 358 q 1228 851 1263 696 q 1108 1140 1194 1006 l 1171 1160 q 1304 865 1264 1019 q 1344 528 1344 711 q 1304 190 1344 343 q 1171 -104 1264 36 l 1108 -85 z "},"⒨":{"ha":1389,"x_min":44,"x_max":1344,"o":"m 218 -104 q 85 190 125 36 q 44 528 44 343 q 85 865 44 711 q 218 1160 125 1019 l 281 1140 q 160 851 194 1006 q 126 528 126 696 q 161 204 128 358 q 281 -85 194 50 l 218 -104 m 303 900 l 397 900 l 408 819 l 413 819 q 492 890 449 861 q 586 918 535 918 q 683 888 649 918 q 735 804 717 857 q 822 887 778 856 q 925 918 867 918 q 1053 853 1011 918 q 1094 660 1094 788 l 1094 147 l 979 147 l 979 643 q 958 768 979 729 q 893 807 938 807 q 825 785 857 807 q 757 719 793 764 l 757 147 l 644 147 l 644 643 q 622 768 644 729 q 556 807 600 807 q 487 785 517 807 q 421 719 457 764 l 421 147 l 303 147 l 303 900 m 1108 -85 q 1228 204 1194 50 q 1263 528 1261 358 q 1228 851 1263 696 q 1108 1140 1194 1006 l 1171 1160 q 1304 865 1264 1019 q 1344 528 1344 711 q 1304 190 1344 343 q 1171 -104 1264 36 l 1108 -85 z "},"⒩":{"ha":1389,"x_min":44,"x_max":1344,"o":"m 218 -104 q 85 190 125 36 q 44 528 44 343 q 85 865 44 711 q 218 1160 125 1019 l 281 1140 q 160 851 194 1006 q 126 528 126 696 q 161 204 128 358 q 281 -85 194 50 l 218 -104 m 401 900 l 508 900 l 521 794 l 525 794 q 637 883 578 847 q 774 918 696 918 q 945 844 892 918 q 999 626 999 769 l 999 147 l 868 147 l 868 610 q 836 760 868 714 q 732 807 804 807 q 631 778 675 807 q 533 694 588 750 l 533 147 l 401 147 l 401 900 m 1108 -85 q 1228 204 1194 50 q 1263 528 1261 358 q 1228 851 1263 696 q 1108 1140 1194 1006 l 1171 1160 q 1304 865 1264 1019 q 1344 528 1344 711 q 1304 190 1344 343 q 1171 -104 1264 36 l 1108 -85 z "},"⒪":{"ha":1389,"x_min":44,"x_max":1344,"o":"m 218 -104 q 85 190 125 36 q 44 528 44 343 q 85 865 44 711 q 218 1160 125 1019 l 281 1140 q 160 851 194 1006 q 126 528 126 696 q 161 204 128 358 q 281 -85 194 50 l 218 -104 m 694 128 q 564 154 626 128 q 453 232 501 181 q 377 356 406 283 q 349 524 349 429 q 377 690 349 617 q 453 815 406 764 q 564 892 501 865 q 694 918 626 918 q 825 892 763 918 q 935 815 888 865 q 1010 690 982 764 q 1039 524 1039 617 q 1010 356 1039 429 q 935 232 982 283 q 825 154 888 181 q 694 128 763 128 m 694 236 q 781 257 742 236 q 847 315 819 278 q 890 406 875 353 q 906 524 906 458 q 890 640 906 588 q 847 731 875 693 q 781 790 819 769 q 694 811 742 811 q 608 790 647 811 q 541 731 569 769 q 497 640 513 693 q 482 524 482 588 q 497 406 482 458 q 541 315 513 353 q 608 257 569 278 q 694 236 647 236 m 1108 -85 q 1228 204 1194 50 q 1263 528 1261 358 q 1228 851 1263 696 q 1108 1140 1194 1006 l 1171 1160 q 1304 865 1264 1019 q 1344 528 1344 711 q 1304 190 1344 343 q 1171 -104 1264 36 l 1108 -85 z "},"⒫":{"ha":1389,"x_min":44,"x_max":1344,"o":"m 218 -104 q 85 190 125 36 q 44 528 44 343 q 85 865 44 711 q 218 1160 125 1019 l 281 1140 q 160 851 194 1006 q 126 528 126 696 q 161 204 128 358 q 281 -85 194 50 l 218 -104 m 404 1006 l 511 1006 l 524 919 l 526 919 q 638 993 578 963 q 761 1024 697 1024 q 889 997 833 1024 q 982 919 944 969 q 1038 799 1019 869 q 1057 642 1057 729 q 1031 469 1057 544 q 959 341 1004 393 q 856 262 914 289 q 733 235 797 235 q 633 257 685 235 q 531 321 582 279 l 535 190 l 535 -10 l 404 -10 l 404 1006 m 713 343 q 795 363 757 343 q 861 422 833 383 q 905 515 889 460 q 921 639 921 569 q 910 752 921 701 q 877 839 900 803 q 817 895 854 875 q 729 915 781 915 q 636 889 683 915 q 535 814 589 863 l 535 421 q 629 361 583 379 q 713 343 675 343 m 1108 -85 q 1228 204 1194 50 q 1263 528 1261 358 q 1228 851 1263 696 q 1108 1140 1194 1006 l 1171 1160 q 1304 865 1264 1019 q 1344 528 1344 711 q 1304 190 1344 343 q 1171 -104 1264 36 l 1108 -85 z "},"⒬":{"ha":1389,"x_min":44,"x_max":1344,"o":"m 218 -104 q 85 190 125 36 q 44 528 44 343 q 85 865 44 711 q 218 1160 125 1019 l 281 1140 q 160 851 194 1006 q 126 528 126 696 q 161 204 128 358 q 281 -85 194 50 l 218 -104 m 854 203 l 861 336 q 760 265 817 294 q 639 235 703 235 q 513 261 569 235 q 417 338 457 288 q 354 461 376 388 q 332 629 332 535 q 358 794 332 721 q 429 918 385 867 q 532 997 474 969 q 654 1024 590 1024 q 767 1001 718 1024 q 865 935 815 979 l 869 935 l 881 1006 l 986 1006 l 986 -10 l 854 -10 l 854 203 m 668 343 q 763 368 718 343 q 854 446 808 393 l 854 839 q 764 897 807 879 q 676 915 721 915 q 594 894 632 915 q 528 836 557 874 q 484 746 500 799 q 468 629 468 693 q 519 418 468 493 q 668 343 571 343 m 1108 -85 q 1228 204 1194 50 q 1263 528 1261 358 q 1228 851 1263 696 q 1108 1140 1194 1006 l 1171 1160 q 1304 865 1264 1019 q 1344 528 1344 711 q 1304 190 1344 343 q 1171 -104 1264 36 l 1108 -85 z "},"⒭":{"ha":1389,"x_min":44,"x_max":1344,"o":"m 218 -104 q 85 190 125 36 q 44 528 44 343 q 85 865 44 711 q 218 1160 125 1019 l 281 1140 q 160 851 194 1006 q 126 528 126 696 q 161 204 128 358 q 281 -85 194 50 l 218 -104 m 517 900 l 625 900 l 636 764 l 642 764 q 736 877 681 836 q 856 918 792 918 q 899 915 881 918 q 936 903 917 913 l 910 789 q 876 799 892 796 q 838 801 861 801 q 738 763 790 801 q 649 629 686 724 l 649 147 l 517 147 l 517 900 m 1108 -85 q 1228 204 1194 50 q 1263 528 1261 358 q 1228 851 1263 696 q 1108 1140 1194 1006 l 1171 1160 q 1304 865 1264 1019 q 1344 528 1344 711 q 1304 190 1344 343 q 1171 -104 1264 36 l 1108 -85 z "},"⒮":{"ha":1389,"x_min":44,"x_max":1344,"o":"m 218 -104 q 85 190 125 36 q 44 528 44 343 q 85 865 44 711 q 218 1160 125 1019 l 281 1140 q 160 851 194 1006 q 126 528 126 696 q 161 204 128 358 q 281 -85 194 50 l 218 -104 m 694 128 q 540 158 614 128 q 414 235 467 189 l 476 319 q 578 255 526 279 q 699 231 629 231 q 808 264 772 231 q 844 344 844 297 q 829 395 844 374 q 790 433 814 417 q 735 463 767 450 q 674 488 704 476 q 593 519 633 501 q 521 563 553 538 q 469 622 489 588 q 449 704 449 657 q 467 789 449 750 q 518 856 485 828 q 600 901 551 885 q 710 918 649 918 q 841 894 781 918 q 944 835 901 869 l 882 751 q 802 799 843 779 q 713 818 761 818 q 608 785 642 818 q 575 711 575 753 q 589 665 575 683 q 626 631 603 646 q 679 605 649 617 q 742 582 710 593 q 823 549 782 567 q 897 505 864 531 q 950 442 929 479 q 971 351 971 406 q 953 265 971 306 q 899 194 935 224 q 813 146 864 164 q 694 128 761 128 m 1108 -85 q 1228 204 1194 50 q 1263 528 1261 358 q 1228 851 1263 696 q 1108 1140 1194 1006 l 1171 1160 q 1304 865 1264 1019 q 1344 528 1344 711 q 1304 190 1344 343 q 1171 -104 1264 36 l 1108 -85 z "},"⒯":{"ha":1389,"x_min":44,"x_max":1344,"o":"m 218 -104 q 85 190 125 36 q 44 528 44 343 q 85 865 44 711 q 218 1160 125 1019 l 281 1140 q 160 851 194 1006 q 126 528 126 696 q 161 204 128 358 q 281 -85 194 50 l 218 -104 m 796 68 q 694 86 735 68 q 627 138 653 104 q 590 217 601 171 q 579 321 579 264 l 579 733 l 468 733 l 468 832 l 586 839 l 601 1050 l 710 1050 l 710 839 l 914 839 l 914 733 l 710 733 l 710 318 q 735 211 710 249 q 825 174 761 174 q 869 180 844 174 q 911 194 893 186 l 936 96 q 868 76 904 85 q 796 68 832 68 m 1108 -85 q 1228 204 1194 50 q 1263 528 1261 358 q 1228 851 1263 696 q 1108 1140 1194 1006 l 1171 1160 q 1304 865 1264 1019 q 1344 528 1344 711 q 1304 190 1344 343 q 1171 -104 1264 36 l 1108 -85 z "},"⒰":{"ha":1389,"x_min":44,"x_max":1344,"o":"m 218 -104 q 85 190 125 36 q 44 528 44 343 q 85 865 44 711 q 218 1160 125 1019 l 281 1140 q 160 851 194 1006 q 126 528 126 696 q 161 204 128 358 q 281 -85 194 50 l 218 -104 m 621 128 q 448 202 503 128 q 393 419 393 276 l 393 900 l 524 900 l 524 438 q 556 288 524 333 q 661 242 589 242 q 760 271 717 242 q 856 365 803 300 l 856 900 l 986 900 l 986 147 l 879 147 l 867 263 l 863 263 q 753 165 811 201 q 621 128 696 128 m 1108 -85 q 1228 204 1194 50 q 1263 528 1261 358 q 1228 851 1263 696 q 1108 1140 1194 1006 l 1171 1160 q 1304 865 1264 1019 q 1344 528 1344 711 q 1304 190 1344 343 q 1171 -104 1264 36 l 1108 -85 z "},"⒱":{"ha":1389,"x_min":44,"x_max":1344,"o":"m 218 -104 q 85 190 125 36 q 44 528 44 343 q 85 865 44 711 q 218 1160 125 1019 l 281 1140 q 160 851 194 1006 q 126 528 126 696 q 161 204 128 358 q 281 -85 194 50 l 218 -104 m 350 900 l 485 900 l 625 475 q 660 363 643 419 q 696 253 678 306 l 701 253 q 736 363 718 306 q 769 475 754 419 l 911 900 l 1039 900 l 774 147 l 621 147 l 350 900 m 1108 -85 q 1228 204 1194 50 q 1263 528 1261 358 q 1228 851 1263 696 q 1108 1140 1194 1006 l 1171 1160 q 1304 865 1264 1019 q 1344 528 1344 711 q 1304 190 1344 343 q 1171 -104 1264 36 l 1108 -85 z "},"⒲":{"ha":1389,"x_min":44,"x_max":1344,"o":"m 218 -104 q 85 190 125 36 q 44 528 44 343 q 85 865 44 711 q 218 1160 125 1019 l 281 1140 q 160 851 194 1006 q 126 528 126 696 q 161 204 128 358 q 281 -85 194 50 l 218 -104 m 231 900 l 356 900 l 446 468 q 465 362 457 414 q 485 257 474 310 l 490 257 q 512 362 503 310 q 533 468 521 414 l 635 900 l 763 900 l 863 468 q 885 363 875 415 q 907 257 894 310 l 913 257 q 933 362 924 310 q 954 468 943 414 l 1042 900 l 1158 900 l 990 147 l 833 147 l 740 549 q 718 656 728 603 q 697 767 708 708 l 690 767 q 670 654 679 708 q 647 547 661 600 l 558 147 l 404 147 l 231 900 m 1108 -85 q 1228 204 1194 50 q 1263 528 1261 358 q 1228 851 1263 696 q 1108 1140 1194 1006 l 1171 1160 q 1304 865 1264 1019 q 1344 528 1344 711 q 1304 190 1344 343 q 1171 -104 1264 36 l 1108 -85 z "},"⒳":{"ha":1389,"x_min":44,"x_max":1344,"o":"m 218 -104 q 85 190 125 36 q 44 528 44 343 q 85 865 44 711 q 218 1160 125 1019 l 281 1140 q 160 851 194 1006 q 126 528 126 696 q 161 204 128 358 q 281 -85 194 50 l 218 -104 m 615 540 l 388 900 l 529 900 l 629 736 q 665 674 646 706 q 703 611 683 643 l 708 611 q 742 674 726 643 q 776 736 758 706 l 867 900 l 1004 900 l 776 526 l 1021 147 l 879 147 l 769 321 q 730 389 750 354 q 689 456 710 424 l 682 456 q 644 390 663 424 q 607 321 626 356 l 506 147 l 369 147 l 615 540 m 1108 -85 q 1228 204 1194 50 q 1263 528 1261 358 q 1228 851 1263 696 q 1108 1140 1194 1006 l 1171 1160 q 1304 865 1264 1019 q 1344 528 1344 711 q 1304 190 1344 343 q 1171 -104 1264 36 l 1108 -85 z "},"⒴":{"ha":1389,"x_min":44,"x_max":1344,"o":"m 218 -104 q 85 190 125 36 q 44 528 44 343 q 85 865 44 711 q 218 1160 125 1019 l 281 1140 q 160 851 194 1006 q 126 528 126 696 q 161 204 128 358 q 281 -85 194 50 l 218 -104 m 490 -15 q 393 0 435 -15 l 418 104 q 450 97 432 100 q 483 93 468 93 q 583 122 546 93 q 636 201 621 150 l 650 251 l 350 1006 l 485 1006 l 635 593 q 672 488 654 543 q 708 379 689 432 l 714 379 q 747 486 731 431 q 778 593 763 542 l 908 1006 l 1036 1006 l 756 197 q 717 111 739 150 q 663 44 694 72 q 589 0 632 15 q 490 -15 546 -15 m 1108 -85 q 1228 204 1194 50 q 1263 528 1261 358 q 1228 851 1263 696 q 1108 1140 1194 1006 l 1171 1160 q 1304 865 1264 1019 q 1344 528 1344 711 q 1304 190 1344 343 q 1171 -104 1264 36 l 1108 -85 z "},"⒵":{"ha":1389,"x_min":44,"x_max":1344,"o":"m 218 -104 q 85 190 125 36 q 44 528 44 343 q 85 865 44 711 q 218 1160 125 1019 l 281 1140 q 160 851 194 1006 q 126 528 126 696 q 161 204 128 358 q 281 -85 194 50 l 218 -104 m 414 217 l 807 794 l 458 794 l 458 900 l 972 900 l 972 831 l 578 253 l 985 253 l 985 147 l 414 147 l 414 217 m 1108 -85 q 1228 204 1194 50 q 1263 528 1261 358 q 1228 851 1263 696 q 1108 1140 1194 1006 l 1171 1160 q 1304 865 1264 1019 q 1344 528 1344 711 q 1304 190 1344 343 q 1171 -104 1264 36 l 1108 -85 z "},"ⓐ":{"ha":1389,"x_min":47,"x_max":1342,"o":"m 694 -119 q 443 -69 561 -119 q 237 70 325 -18 q 98 276 149 158 q 47 528 47 394 q 98 779 47 661 q 237 985 149 897 q 443 1124 325 1074 q 694 1175 561 1175 q 946 1124 828 1175 q 1152 985 1064 1074 q 1291 779 1240 897 q 1342 528 1342 661 q 1290 275 1342 393 q 1151 69 1239 157 q 945 -69 1063 -18 q 694 -119 828 -119 m 694 -75 q 929 -28 819 -75 q 1121 101 1039 19 q 1250 293 1203 183 q 1297 528 1297 403 q 1250 763 1297 653 q 1121 954 1203 872 q 929 1083 1039 1036 q 694 1131 819 1131 q 458 1083 568 1131 q 267 953 349 1035 q 139 761 186 871 q 92 528 92 651 q 139 293 92 403 q 268 101 186 183 q 460 -28 350 19 q 694 -75 569 -75 m 639 257 q 529 297 571 257 q 488 404 488 338 q 560 530 488 486 q 793 589 633 574 q 773 669 792 638 q 700 701 754 701 q 617 685 660 701 q 543 649 575 668 l 508 717 q 600 761 546 740 q 715 782 654 782 q 850 728 807 782 q 893 574 893 674 l 893 269 l 814 269 l 803 328 l 796 328 q 726 278 765 300 q 639 257 688 257 m 669 336 q 793 397 731 336 l 793 526 q 630 485 676 515 q 583 413 583 454 q 606 354 583 372 q 669 336 629 336 z "},"ⓑ":{"ha":1389,"x_min":47,"x_max":1342,"o":"m 694 -119 q 443 -69 561 -119 q 237 70 325 -18 q 98 276 149 158 q 47 528 47 394 q 98 779 47 661 q 237 985 149 897 q 443 1124 325 1074 q 694 1175 561 1175 q 946 1124 828 1175 q 1152 985 1064 1074 q 1291 779 1240 897 q 1342 528 1342 661 q 1290 275 1342 393 q 1151 69 1239 157 q 945 -69 1063 -18 q 694 -119 828 -119 m 694 -75 q 929 -28 819 -75 q 1121 101 1039 19 q 1250 293 1203 183 q 1297 528 1297 403 q 1250 763 1297 653 q 1121 954 1203 872 q 929 1083 1039 1036 q 694 1131 819 1131 q 458 1083 568 1131 q 267 953 349 1035 q 139 761 186 871 q 92 528 92 651 q 139 293 92 403 q 268 101 186 183 q 460 -28 350 19 q 694 -75 569 -75 m 743 196 q 673 212 710 196 q 604 258 636 228 l 597 258 l 586 208 l 513 208 l 513 935 l 610 935 l 610 740 l 606 651 q 678 701 640 681 q 760 721 715 721 q 908 652 857 721 q 960 468 960 583 q 942 352 960 403 q 895 267 925 301 q 826 214 865 232 q 743 196 786 196 m 729 278 q 822 326 785 278 q 860 465 860 375 q 830 593 860 547 q 736 639 800 639 q 610 575 674 639 l 610 325 q 672 289 640 300 q 729 278 703 278 z "},"ⓒ":{"ha":1389,"x_min":47,"x_max":1342,"o":"m 694 -119 q 443 -69 561 -119 q 237 70 325 -18 q 98 276 149 158 q 47 528 47 394 q 98 779 47 661 q 237 985 149 897 q 443 1124 325 1074 q 694 1175 561 1175 q 946 1124 828 1175 q 1152 985 1064 1074 q 1291 779 1240 897 q 1342 528 1342 661 q 1290 275 1342 393 q 1151 69 1239 157 q 945 -69 1063 -18 q 694 -119 828 -119 m 694 -75 q 929 -28 819 -75 q 1121 101 1039 19 q 1250 293 1203 183 q 1297 528 1297 403 q 1250 763 1297 653 q 1121 954 1203 872 q 929 1083 1039 1036 q 694 1131 819 1131 q 458 1083 568 1131 q 267 953 349 1035 q 139 761 186 871 q 92 528 92 651 q 139 293 92 403 q 268 101 186 183 q 460 -28 350 19 q 694 -75 569 -75 m 719 257 q 623 274 667 257 q 547 326 579 292 q 497 409 515 360 q 479 521 479 458 q 499 631 479 582 q 553 713 519 679 q 631 764 586 746 q 724 782 675 782 q 815 765 778 782 q 876 728 853 747 l 829 664 q 783 692 806 683 q 728 701 761 701 q 622 651 664 701 q 581 521 581 600 q 622 389 581 439 q 729 339 663 339 q 795 351 768 339 q 843 381 822 363 l 883 317 q 817 276 857 294 q 719 257 778 257 z "},"ⓓ":{"ha":1389,"x_min":47,"x_max":1342,"o":"m 694 -119 q 443 -69 561 -119 q 237 70 325 -18 q 98 276 149 158 q 47 528 47 394 q 98 779 47 661 q 237 985 149 897 q 443 1124 325 1074 q 694 1175 561 1175 q 946 1124 828 1175 q 1152 985 1064 1074 q 1291 779 1240 897 q 1342 528 1342 661 q 1290 275 1342 393 q 1151 69 1239 157 q 945 -69 1063 -18 q 694 -119 828 -119 m 694 -75 q 929 -28 819 -75 q 1121 101 1039 19 q 1250 293 1203 183 q 1297 528 1297 403 q 1250 763 1297 653 q 1121 954 1203 872 q 929 1083 1039 1036 q 694 1131 819 1131 q 458 1083 568 1131 q 267 953 349 1035 q 139 761 186 871 q 92 528 92 651 q 139 293 92 403 q 268 101 186 183 q 460 -28 350 19 q 694 -75 569 -75 m 664 196 q 508 267 565 196 q 451 468 451 338 q 469 573 451 526 q 518 653 488 619 q 588 703 549 686 q 668 721 626 721 q 743 706 710 721 q 808 664 776 690 l 803 751 l 803 935 l 900 935 l 900 208 l 821 208 l 811 263 l 807 263 q 742 216 776 236 q 664 196 707 196 m 686 278 q 744 294 717 278 q 803 340 772 310 l 803 590 q 742 629 771 618 q 685 640 713 640 q 592 594 631 640 q 554 468 554 547 q 586 327 554 376 q 686 278 618 278 z "},"ⓔ":{"ha":1389,"x_min":47,"x_max":1342,"o":"m 694 -119 q 443 -69 561 -119 q 237 70 325 -18 q 98 276 149 158 q 47 528 47 394 q 98 779 47 661 q 237 985 149 897 q 443 1124 325 1074 q 694 1175 561 1175 q 946 1124 828 1175 q 1152 985 1064 1074 q 1291 779 1240 897 q 1342 528 1342 661 q 1290 275 1342 393 q 1151 69 1239 157 q 945 -69 1063 -18 q 694 -119 828 -119 m 694 -75 q 929 -28 819 -75 q 1121 101 1039 19 q 1250 293 1203 183 q 1297 528 1297 403 q 1250 763 1297 653 q 1121 954 1203 872 q 929 1083 1039 1036 q 694 1131 819 1131 q 458 1083 568 1131 q 267 953 349 1035 q 139 761 186 871 q 92 528 92 651 q 139 293 92 403 q 268 101 186 183 q 460 -28 350 19 q 694 -75 569 -75 m 722 257 q 627 274 672 257 q 549 326 582 292 q 496 409 515 360 q 476 521 476 458 q 495 629 476 581 q 546 712 514 678 q 620 764 578 746 q 710 782 663 782 q 808 760 768 782 q 871 704 847 738 q 905 630 894 671 q 915 551 915 589 q 914 526 915 536 q 910 497 913 515 l 574 497 q 621 378 578 421 q 733 336 664 336 q 801 347 769 336 q 860 375 833 358 l 897 313 q 818 274 861 290 q 722 257 775 257 m 829 560 q 823 612 829 586 q 803 658 817 638 q 767 690 789 678 q 711 703 744 703 q 618 666 654 703 q 574 560 582 629 l 829 560 z "},"ⓕ":{"ha":1389,"x_min":47,"x_max":1342,"o":"m 613 771 q 649 901 613 849 q 767 953 685 953 q 815 949 794 953 q 857 936 836 944 l 836 863 q 811 870 825 867 q 779 874 797 874 q 726 848 743 874 q 710 778 710 822 l 710 708 l 815 708 l 815 631 l 710 631 l 710 208 l 613 208 l 613 631 l 542 631 l 542 704 l 613 708 l 613 771 m 694 -75 q 929 -28 819 -75 q 1121 101 1039 19 q 1250 293 1203 183 q 1297 528 1297 403 q 1250 763 1297 653 q 1121 954 1203 872 q 929 1083 1039 1036 q 694 1131 819 1131 q 458 1083 568 1131 q 267 953 349 1035 q 139 761 186 871 q 92 528 92 651 q 139 293 92 403 q 268 101 186 183 q 460 -28 350 19 q 694 -75 569 -75 m 694 1175 q 946 1124 828 1175 q 1152 985 1064 1074 q 1291 779 1240 897 q 1342 528 1342 661 q 1290 275 1342 393 q 1151 69 1239 157 q 945 -69 1063 -18 q 694 -119 828 -119 q 443 -69 561 -119 q 237 70 325 -18 q 98 276 149 158 q 47 528 47 394 q 98 779 47 661 q 237 985 149 897 q 443 1124 325 1074 q 694 1175 561 1175 z "},"ⓖ":{"ha":1389,"x_min":47,"x_max":1342,"o":"m 694 -119 q 443 -69 561 -119 q 237 70 325 -18 q 98 276 149 158 q 47 528 47 394 q 98 779 47 661 q 237 985 149 897 q 443 1124 325 1074 q 694 1175 561 1175 q 946 1124 828 1175 q 1152 985 1064 1074 q 1291 779 1240 897 q 1342 528 1342 661 q 1290 275 1342 393 q 1151 69 1239 157 q 945 -69 1063 -18 q 694 -119 828 -119 m 694 -75 q 929 -28 819 -75 q 1121 101 1039 19 q 1250 293 1203 183 q 1297 528 1297 403 q 1250 763 1297 653 q 1121 954 1203 872 q 929 1083 1039 1036 q 694 1131 819 1131 q 458 1083 568 1131 q 267 953 349 1035 q 139 761 186 871 q 92 528 92 651 q 139 293 92 403 q 268 101 186 183 q 460 -28 350 19 q 694 -75 569 -75 m 683 122 q 533 156 590 122 q 476 256 476 189 q 494 315 476 288 q 547 363 513 343 l 547 368 q 515 401 528 381 q 503 451 503 421 q 519 503 503 481 q 558 542 536 526 l 558 549 q 512 601 531 567 q 493 679 493 635 q 508 756 493 722 q 550 812 524 789 q 612 847 576 835 q 686 860 647 860 q 765 844 731 860 l 938 844 l 938 769 l 840 769 q 867 731 857 756 q 876 678 876 706 q 861 604 876 636 q 820 550 846 572 q 760 516 794 528 q 686 504 725 504 q 651 507 669 504 q 613 519 632 510 q 592 497 601 508 q 583 467 583 485 q 602 431 583 443 q 669 418 621 418 l 767 418 q 901 390 858 418 q 944 296 944 361 q 926 228 944 260 q 874 174 908 197 q 792 136 840 150 q 683 122 743 122 m 686 569 q 759 599 729 569 q 789 679 789 629 q 759 760 789 732 q 686 789 729 789 q 613 760 642 789 q 585 679 585 732 q 613 599 585 629 q 686 569 642 569 m 699 190 q 808 218 767 190 q 850 282 850 246 q 826 325 850 314 q 753 336 801 336 l 672 336 q 641 337 660 336 q 607 343 622 338 q 560 269 560 310 q 596 210 560 231 q 699 190 632 190 z "},"ⓗ":{"ha":1389,"x_min":47,"x_max":1342,"o":"m 694 -119 q 443 -69 561 -119 q 237 70 325 -18 q 98 276 149 158 q 47 528 47 394 q 98 779 47 661 q 237 985 149 897 q 443 1124 325 1074 q 694 1175 561 1175 q 946 1124 828 1175 q 1152 985 1064 1074 q 1291 779 1240 897 q 1342 528 1342 661 q 1290 275 1342 393 q 1151 69 1239 157 q 945 -69 1063 -18 q 694 -119 828 -119 m 694 -75 q 929 -28 819 -75 q 1121 101 1039 19 q 1250 293 1203 183 q 1297 528 1297 403 q 1250 763 1297 653 q 1121 954 1203 872 q 929 1083 1039 1036 q 694 1131 819 1131 q 458 1083 568 1131 q 267 953 349 1035 q 139 761 186 871 q 92 528 92 651 q 139 293 92 403 q 268 101 186 183 q 460 -28 350 19 q 694 -75 569 -75 m 497 935 l 593 935 l 593 742 l 589 639 q 663 696 621 671 q 757 721 706 721 q 878 666 843 721 q 914 524 914 611 l 914 208 l 817 208 l 817 510 q 799 603 817 568 q 722 638 781 638 q 663 619 693 638 q 593 564 632 601 l 593 208 l 497 208 l 497 935 z "},"ⓘ":{"ha":1389,"x_min":47,"x_max":1342,"o":"m 694 -119 q 443 -69 561 -119 q 237 70 325 -18 q 98 276 149 158 q 47 528 47 394 q 98 779 47 661 q 237 985 149 897 q 443 1124 325 1074 q 694 1175 561 1175 q 946 1124 828 1175 q 1152 985 1064 1074 q 1291 779 1240 897 q 1342 528 1342 661 q 1290 275 1342 393 q 1151 69 1239 157 q 945 -69 1063 -18 q 694 -119 828 -119 m 694 -75 q 929 -28 819 -75 q 1121 101 1039 19 q 1250 293 1203 183 q 1297 528 1297 403 q 1250 763 1297 653 q 1121 954 1203 872 q 929 1083 1039 1036 q 694 1131 819 1131 q 458 1083 568 1131 q 267 953 349 1035 q 139 761 186 871 q 92 528 92 651 q 139 293 92 403 q 268 101 186 183 q 460 -28 350 19 q 694 -75 569 -75 m 646 708 l 744 708 l 744 208 l 646 208 l 646 708 m 696 804 q 650 821 668 804 q 632 864 632 838 q 650 909 632 892 q 696 926 668 926 q 744 909 726 926 q 763 864 763 892 q 744 821 763 838 q 696 804 726 804 z "},"ⓙ":{"ha":1389,"x_min":47,"x_max":1342,"o":"m 694 -119 q 443 -69 561 -119 q 237 70 325 -18 q 98 276 149 158 q 47 528 47 394 q 98 779 47 661 q 237 985 149 897 q 443 1124 325 1074 q 694 1175 561 1175 q 946 1124 828 1175 q 1152 985 1064 1074 q 1291 779 1240 897 q 1342 528 1342 661 q 1290 275 1342 393 q 1151 69 1239 157 q 945 -69 1063 -18 q 694 -119 828 -119 m 694 -75 q 929 -28 819 -75 q 1121 101 1039 19 q 1250 293 1203 183 q 1297 528 1297 403 q 1250 763 1297 653 q 1121 954 1203 872 q 929 1083 1039 1036 q 694 1131 819 1131 q 458 1083 568 1131 q 267 953 349 1035 q 139 761 186 871 q 92 528 92 651 q 139 293 92 403 q 268 101 186 183 q 460 -28 350 19 q 694 -75 569 -75 m 613 42 q 571 44 588 42 q 538 54 554 47 l 556 131 q 576 124 567 126 q 601 122 586 122 q 649 146 638 122 q 660 214 660 169 l 660 764 l 757 764 l 757 219 q 724 89 757 136 q 613 42 692 42 m 710 860 q 664 876 682 860 q 646 919 646 893 q 664 965 646 947 q 710 982 682 982 q 759 965 740 982 q 778 919 778 947 q 759 876 778 893 q 710 860 740 860 z "},"ⓚ":{"ha":1389,"x_min":47,"x_max":1342,"o":"m 694 -119 q 443 -69 561 -119 q 237 70 325 -18 q 98 276 149 158 q 47 528 47 394 q 98 779 47 661 q 237 985 149 897 q 443 1124 325 1074 q 694 1175 561 1175 q 946 1124 828 1175 q 1152 985 1064 1074 q 1291 779 1240 897 q 1342 528 1342 661 q 1290 275 1342 393 q 1151 69 1239 157 q 945 -69 1063 -18 q 694 -119 828 -119 m 694 -75 q 929 -28 819 -75 q 1121 101 1039 19 q 1250 293 1203 183 q 1297 528 1297 403 q 1250 763 1297 653 q 1121 954 1203 872 q 929 1083 1039 1036 q 694 1131 819 1131 q 458 1083 568 1131 q 267 953 349 1035 q 139 761 186 871 q 92 528 92 651 q 139 293 92 403 q 268 101 186 183 q 460 -28 350 19 q 694 -75 569 -75 m 518 935 l 614 935 l 614 461 l 621 461 l 821 708 l 932 708 l 758 504 l 951 208 l 844 208 l 700 438 l 614 335 l 614 208 l 518 208 l 518 935 z "},"ⓛ":{"ha":1389,"x_min":47,"x_max":1342,"o":"m 694 -119 q 443 -69 561 -119 q 237 70 325 -18 q 98 276 149 158 q 47 528 47 394 q 98 779 47 661 q 237 985 149 897 q 443 1124 325 1074 q 694 1175 561 1175 q 946 1124 828 1175 q 1152 985 1064 1074 q 1291 779 1240 897 q 1342 528 1342 661 q 1290 275 1342 393 q 1151 69 1239 157 q 945 -69 1063 -18 q 694 -119 828 -119 m 694 -75 q 929 -28 819 -75 q 1121 101 1039 19 q 1250 293 1203 183 q 1297 528 1297 403 q 1250 763 1297 653 q 1121 954 1203 872 q 929 1083 1039 1036 q 694 1131 819 1131 q 458 1083 568 1131 q 267 953 349 1035 q 139 761 186 871 q 92 528 92 651 q 139 293 92 403 q 268 101 186 183 q 460 -28 350 19 q 694 -75 569 -75 m 736 196 q 656 230 678 196 q 633 325 633 264 l 633 935 l 731 935 l 731 317 q 738 286 731 294 q 757 278 746 278 q 767 278 763 278 q 778 281 771 278 l 792 206 q 768 199 781 203 q 736 196 756 196 z "},"ⓜ":{"ha":1389,"x_min":47,"x_max":1342,"o":"m 694 -119 q 443 -69 561 -119 q 237 70 325 -18 q 98 276 149 158 q 47 528 47 394 q 98 779 47 661 q 237 985 149 897 q 443 1124 325 1074 q 694 1175 561 1175 q 946 1124 828 1175 q 1152 985 1064 1074 q 1291 779 1240 897 q 1342 528 1342 661 q 1290 275 1342 393 q 1151 69 1239 157 q 945 -69 1063 -18 q 694 -119 828 -119 m 694 -75 q 929 -28 819 -75 q 1121 101 1039 19 q 1250 293 1203 183 q 1297 528 1297 403 q 1250 763 1297 653 q 1121 954 1203 872 q 929 1083 1039 1036 q 694 1131 819 1131 q 458 1083 568 1131 q 267 953 349 1035 q 139 761 186 871 q 92 528 92 651 q 139 293 92 403 q 268 101 186 183 q 460 -28 350 19 q 694 -75 569 -75 m 342 769 l 421 769 l 431 699 l 433 699 q 503 758 465 733 q 592 782 540 782 q 678 758 642 782 q 731 688 714 735 q 808 753 767 725 q 899 782 849 782 q 1018 727 982 782 q 1054 585 1054 672 l 1054 269 l 957 269 l 957 571 q 938 664 957 629 q 865 699 919 699 q 811 681 839 699 q 747 626 783 664 l 747 269 l 649 269 l 649 571 q 630 664 649 629 q 558 699 611 699 q 503 681 531 699 q 439 626 475 664 l 439 269 l 342 269 l 342 769 z "},"ⓝ":{"ha":1389,"x_min":47,"x_max":1342,"o":"m 694 -119 q 443 -69 561 -119 q 237 70 325 -18 q 98 276 149 158 q 47 528 47 394 q 98 779 47 661 q 237 985 149 897 q 443 1124 325 1074 q 694 1175 561 1175 q 946 1124 828 1175 q 1152 985 1064 1074 q 1291 779 1240 897 q 1342 528 1342 661 q 1290 275 1342 393 q 1151 69 1239 157 q 945 -69 1063 -18 q 694 -119 828 -119 m 694 -75 q 929 -28 819 -75 q 1121 101 1039 19 q 1250 293 1203 183 q 1297 528 1297 403 q 1250 763 1297 653 q 1121 954 1203 872 q 929 1083 1039 1036 q 694 1131 819 1131 q 458 1083 568 1131 q 267 953 349 1035 q 139 761 186 871 q 92 528 92 651 q 139 293 92 403 q 268 101 186 183 q 460 -28 350 19 q 694 -75 569 -75 m 489 769 l 568 769 l 578 699 l 581 699 q 658 758 615 733 q 750 782 700 782 q 872 727 836 782 q 907 585 907 672 l 907 269 l 810 269 l 810 571 q 792 664 810 629 q 717 699 774 699 q 656 681 686 699 q 588 625 625 663 l 588 269 l 489 269 l 489 769 z "},"ⓞ":{"ha":1389,"x_min":47,"x_max":1342,"o":"m 694 -119 q 443 -69 561 -119 q 237 70 325 -18 q 98 276 149 158 q 47 528 47 394 q 98 779 47 661 q 237 985 149 897 q 443 1124 325 1074 q 694 1175 561 1175 q 946 1124 828 1175 q 1152 985 1064 1074 q 1291 779 1240 897 q 1342 528 1342 661 q 1290 275 1342 393 q 1151 69 1239 157 q 945 -69 1063 -18 q 694 -119 828 -119 m 694 -75 q 929 -28 819 -75 q 1121 101 1039 19 q 1250 293 1203 183 q 1297 528 1297 403 q 1250 763 1297 653 q 1121 954 1203 872 q 929 1083 1039 1036 q 694 1131 819 1131 q 458 1083 568 1131 q 267 953 349 1035 q 139 761 186 871 q 92 528 92 651 q 139 293 92 403 q 268 101 186 183 q 460 -28 350 19 q 694 -75 569 -75 m 693 257 q 603 275 646 257 q 528 327 560 293 q 476 410 496 361 q 457 519 457 458 q 476 631 457 582 q 528 713 496 679 q 603 764 560 746 q 693 782 646 782 q 784 764 740 782 q 860 713 828 746 q 911 631 892 679 q 931 519 931 582 q 911 410 931 458 q 860 327 892 361 q 784 275 828 293 q 693 257 740 257 m 693 339 q 793 389 757 339 q 829 519 829 439 q 793 652 829 603 q 693 701 757 701 q 594 652 631 701 q 558 519 558 603 q 594 389 558 439 q 693 339 631 339 z "},"ⓟ":{"ha":1389,"x_min":47,"x_max":1342,"o":"m 694 -119 q 443 -69 561 -119 q 237 70 325 -18 q 98 276 149 158 q 47 528 47 394 q 98 779 47 661 q 237 985 149 897 q 443 1124 325 1074 q 694 1175 561 1175 q 946 1124 828 1175 q 1152 985 1064 1074 q 1291 779 1240 897 q 1342 528 1342 661 q 1290 275 1342 393 q 1151 69 1239 157 q 945 -69 1063 -18 q 694 -119 828 -119 m 694 -75 q 929 -28 819 -75 q 1121 101 1039 19 q 1250 293 1203 183 q 1297 528 1297 403 q 1250 763 1297 653 q 1121 954 1203 872 q 929 1083 1039 1036 q 694 1131 819 1131 q 458 1083 568 1131 q 267 953 349 1035 q 139 761 186 871 q 92 528 92 651 q 139 293 92 403 q 268 101 186 183 q 460 -28 350 19 q 694 -75 569 -75 m 500 847 l 576 847 l 588 790 l 593 790 q 662 839 622 818 q 746 860 701 860 q 896 791 844 860 q 947 607 947 722 q 930 491 947 542 q 883 406 913 440 q 814 353 853 371 q 732 335 775 335 q 660 350 699 335 q 592 393 622 365 l 596 297 l 596 147 l 500 147 l 500 847 m 715 417 q 809 465 772 417 q 846 604 846 514 q 817 732 846 686 q 724 778 788 778 q 596 714 663 778 l 596 464 q 658 428 628 439 q 715 417 689 417 z "},"ⓠ":{"ha":1389,"x_min":47,"x_max":1342,"o":"m 694 -119 q 443 -69 561 -119 q 237 70 325 -18 q 98 276 149 158 q 47 528 47 394 q 98 779 47 661 q 237 985 149 897 q 443 1124 325 1074 q 694 1175 561 1175 q 946 1124 828 1175 q 1152 985 1064 1074 q 1291 779 1240 897 q 1342 528 1342 661 q 1290 275 1342 393 q 1151 69 1239 157 q 945 -69 1063 -18 q 694 -119 828 -119 m 694 -75 q 929 -28 819 -75 q 1121 101 1039 19 q 1250 293 1203 183 q 1297 528 1297 403 q 1250 763 1297 653 q 1121 954 1203 872 q 929 1083 1039 1036 q 694 1131 819 1131 q 458 1083 568 1131 q 267 953 349 1035 q 139 761 186 871 q 92 528 92 651 q 139 293 92 403 q 268 101 186 183 q 460 -28 350 19 q 694 -75 569 -75 m 804 307 l 810 397 q 745 352 782 369 q 668 335 708 335 q 511 404 568 335 q 454 599 454 474 q 472 708 454 660 q 521 790 490 757 q 591 842 551 824 q 672 860 631 860 q 813 797 750 860 l 817 797 l 826 847 l 901 847 l 901 147 l 804 147 l 804 307 m 688 418 q 804 474 749 418 l 804 728 q 744 767 775 756 q 686 778 714 778 q 637 765 661 778 q 594 730 613 753 q 565 674 576 707 q 554 599 554 640 q 587 466 554 514 q 688 418 619 418 z "},"ⓡ":{"ha":1389,"x_min":47,"x_max":1342,"o":"m 694 -119 q 443 -69 561 -119 q 237 70 325 -18 q 98 276 149 158 q 47 528 47 394 q 98 779 47 661 q 237 985 149 897 q 443 1124 325 1074 q 694 1175 561 1175 q 946 1124 828 1175 q 1152 985 1064 1074 q 1291 779 1240 897 q 1342 528 1342 661 q 1290 275 1342 393 q 1151 69 1239 157 q 945 -69 1063 -18 q 694 -119 828 -119 m 694 -75 q 929 -28 819 -75 q 1121 101 1039 19 q 1250 293 1203 183 q 1297 528 1297 403 q 1250 763 1297 653 q 1121 954 1203 872 q 929 1083 1039 1036 q 694 1131 819 1131 q 458 1083 568 1131 q 267 953 349 1035 q 139 761 186 871 q 92 528 92 651 q 139 293 92 403 q 268 101 186 183 q 460 -28 350 19 q 694 -75 569 -75 m 574 769 l 651 769 l 661 682 l 667 682 q 810 782 724 782 q 867 772 844 782 l 849 683 q 825 689 839 686 q 799 692 811 692 q 731 668 765 692 q 672 583 697 644 l 672 269 l 574 269 l 574 769 z "},"ⓢ":{"ha":1389,"x_min":47,"x_max":1342,"o":"m 694 -119 q 443 -69 561 -119 q 237 70 325 -18 q 98 276 149 158 q 47 528 47 394 q 98 779 47 661 q 237 985 149 897 q 443 1124 325 1074 q 694 1175 561 1175 q 946 1124 828 1175 q 1152 985 1064 1074 q 1291 779 1240 897 q 1342 528 1342 661 q 1290 275 1342 393 q 1151 69 1239 157 q 945 -69 1063 -18 q 694 -119 828 -119 m 694 -75 q 929 -28 819 -75 q 1121 101 1039 19 q 1250 293 1203 183 q 1297 528 1297 403 q 1250 763 1297 653 q 1121 954 1203 872 q 929 1083 1039 1036 q 694 1131 819 1131 q 458 1083 568 1131 q 267 953 349 1035 q 139 761 186 871 q 92 528 92 651 q 139 293 92 403 q 268 101 186 183 q 460 -28 350 19 q 694 -75 569 -75 m 697 257 q 592 277 643 257 q 504 325 542 297 l 551 390 q 622 349 586 365 q 699 333 658 333 q 766 353 743 333 q 789 404 789 374 q 779 433 789 421 q 754 456 769 446 q 719 474 739 465 q 678 490 699 482 q 625 513 651 500 q 577 542 599 525 q 542 583 556 560 q 529 639 529 607 q 575 740 529 697 q 701 782 621 782 q 796 765 756 782 q 868 725 836 749 l 819 663 q 765 694 792 682 q 706 706 739 706 q 644 686 664 706 q 624 643 624 667 q 657 593 624 610 q 735 560 690 576 q 788 538 761 549 q 835 510 814 526 q 869 469 856 493 q 882 411 882 446 q 833 301 882 344 q 697 257 783 257 z "},"ⓣ":{"ha":1389,"x_min":47,"x_max":1342,"o":"m 694 -119 q 443 -69 561 -119 q 237 70 325 -18 q 98 276 149 158 q 47 528 47 394 q 98 779 47 661 q 237 985 149 897 q 443 1124 325 1074 q 694 1175 561 1175 q 946 1124 828 1175 q 1152 985 1064 1074 q 1291 779 1240 897 q 1342 528 1342 661 q 1290 275 1342 393 q 1151 69 1239 157 q 945 -69 1063 -18 q 694 -119 828 -119 m 694 -75 q 929 -28 819 -75 q 1121 101 1039 19 q 1250 293 1203 183 q 1297 528 1297 403 q 1250 763 1297 653 q 1121 954 1203 872 q 929 1083 1039 1036 q 694 1131 819 1131 q 458 1083 568 1131 q 267 953 349 1035 q 139 761 186 871 q 92 528 92 651 q 139 293 92 403 q 268 101 186 183 q 460 -28 350 19 q 694 -75 569 -75 m 751 242 q 635 290 668 242 q 603 417 603 338 l 603 674 l 528 674 l 528 749 l 604 753 l 617 892 l 699 892 l 699 753 l 835 753 l 835 674 l 699 674 l 699 415 q 776 321 699 321 q 832 332 803 321 l 851 260 q 806 247 832 253 q 751 242 779 242 z "},"ⓤ":{"ha":1389,"x_min":47,"x_max":1342,"o":"m 694 -119 q 443 -69 561 -119 q 237 70 325 -18 q 98 276 149 158 q 47 528 47 394 q 98 779 47 661 q 237 985 149 897 q 443 1124 325 1074 q 694 1175 561 1175 q 946 1124 828 1175 q 1152 985 1064 1074 q 1291 779 1240 897 q 1342 528 1342 661 q 1290 275 1342 393 q 1151 69 1239 157 q 945 -69 1063 -18 q 694 -119 828 -119 m 694 -75 q 929 -28 819 -75 q 1121 101 1039 19 q 1250 293 1203 183 q 1297 528 1297 403 q 1250 763 1297 653 q 1121 954 1203 872 q 929 1083 1039 1036 q 694 1131 819 1131 q 458 1083 568 1131 q 267 953 349 1035 q 139 761 186 871 q 92 528 92 651 q 139 293 92 403 q 268 101 186 183 q 460 -28 350 19 q 694 -75 569 -75 m 643 257 q 569 272 599 257 q 520 312 539 286 q 493 374 501 338 q 485 453 485 410 l 485 769 l 583 769 l 583 468 q 601 375 583 407 q 676 343 618 343 q 738 360 707 343 q 807 414 769 376 l 807 769 l 904 769 l 904 269 l 825 269 l 814 339 l 810 339 q 736 282 778 307 q 643 257 694 257 z "},"ⓥ":{"ha":1389,"x_min":47,"x_max":1342,"o":"m 694 -119 q 443 -69 561 -119 q 237 70 325 -18 q 98 276 149 158 q 47 528 47 394 q 98 779 47 661 q 237 985 149 897 q 443 1124 325 1074 q 694 1175 561 1175 q 946 1124 828 1175 q 1152 985 1064 1074 q 1291 779 1240 897 q 1342 528 1342 661 q 1290 275 1342 393 q 1151 69 1239 157 q 945 -69 1063 -18 q 694 -119 828 -119 m 694 -75 q 929 -28 819 -75 q 1121 101 1039 19 q 1250 293 1203 183 q 1297 528 1297 403 q 1250 763 1297 653 q 1121 954 1203 872 q 929 1083 1039 1036 q 694 1131 819 1131 q 458 1083 568 1131 q 267 953 349 1035 q 139 761 186 871 q 92 528 92 651 q 139 293 92 403 q 268 101 186 183 q 460 -28 350 19 q 694 -75 569 -75 m 458 769 l 556 769 l 646 497 l 693 347 l 699 347 l 747 497 l 836 769 l 933 769 l 753 269 l 638 269 l 458 769 z "},"ⓦ":{"ha":1389,"x_min":47,"x_max":1342,"o":"m 694 -119 q 443 -69 561 -119 q 237 70 325 -18 q 98 276 149 158 q 47 528 47 394 q 98 779 47 661 q 237 985 149 897 q 443 1124 325 1074 q 694 1175 561 1175 q 946 1124 828 1175 q 1152 985 1064 1074 q 1291 779 1240 897 q 1342 528 1342 661 q 1290 275 1342 393 q 1151 69 1239 157 q 945 -69 1063 -18 q 694 -119 828 -119 m 694 -75 q 929 -28 819 -75 q 1121 101 1039 19 q 1250 293 1203 183 q 1297 528 1297 403 q 1250 763 1297 653 q 1121 954 1203 872 q 929 1083 1039 1036 q 694 1131 819 1131 q 458 1083 568 1131 q 267 953 349 1035 q 139 761 186 871 q 92 528 92 651 q 139 293 92 403 q 268 101 186 183 q 460 -28 350 19 q 694 -75 569 -75 m 342 769 l 443 769 l 510 493 l 539 350 l 546 350 l 578 493 l 651 769 l 740 769 l 817 493 l 853 350 l 857 350 l 889 493 l 954 769 l 1049 769 l 914 269 l 796 269 l 729 522 l 697 664 l 693 664 l 663 522 l 596 269 l 479 269 l 342 769 z "},"ⓧ":{"ha":1389,"x_min":47,"x_max":1342,"o":"m 694 -119 q 443 -69 561 -119 q 237 70 325 -18 q 98 276 149 158 q 47 528 47 394 q 98 779 47 661 q 237 985 149 897 q 443 1124 325 1074 q 694 1175 561 1175 q 946 1124 828 1175 q 1152 985 1064 1074 q 1291 779 1240 897 q 1342 528 1342 661 q 1290 275 1342 393 q 1151 69 1239 157 q 945 -69 1063 -18 q 694 -119 828 -119 m 694 -75 q 929 -28 819 -75 q 1121 101 1039 19 q 1250 293 1203 183 q 1297 528 1297 403 q 1250 763 1297 653 q 1121 954 1203 872 q 929 1083 1039 1036 q 694 1131 819 1131 q 458 1083 568 1131 q 267 953 349 1035 q 139 761 186 871 q 92 528 92 651 q 139 293 92 403 q 268 101 186 183 q 460 -28 350 19 q 694 -75 569 -75 m 635 531 l 481 769 l 589 769 l 651 667 l 701 588 l 707 588 l 749 667 l 806 769 l 908 769 l 757 521 l 919 269 l 813 269 l 744 376 l 692 461 l 686 461 l 633 376 l 572 269 l 468 269 l 635 531 z "},"ⓨ":{"ha":1389,"x_min":47,"x_max":1342,"o":"m 694 -119 q 443 -69 561 -119 q 237 70 325 -18 q 98 276 149 158 q 47 528 47 394 q 98 779 47 661 q 237 985 149 897 q 443 1124 325 1074 q 694 1175 561 1175 q 946 1124 828 1175 q 1152 985 1064 1074 q 1291 779 1240 897 q 1342 528 1342 661 q 1290 275 1342 393 q 1151 69 1239 157 q 945 -69 1063 -18 q 694 -119 828 -119 m 694 -75 q 929 -28 819 -75 q 1121 101 1039 19 q 1250 293 1203 183 q 1297 528 1297 403 q 1250 763 1297 653 q 1121 954 1203 872 q 929 1083 1039 1036 q 694 1131 819 1131 q 458 1083 568 1131 q 267 953 349 1035 q 139 761 186 871 q 92 528 92 651 q 139 293 92 403 q 268 101 186 183 q 460 -28 350 19 q 694 -75 569 -75 m 564 142 q 500 151 528 142 l 519 229 q 557 221 542 221 q 625 249 597 221 q 667 321 653 276 l 676 351 l 475 847 l 574 847 l 671 586 q 694 516 682 551 q 719 443 707 481 l 725 443 q 747 515 736 479 q 768 586 757 550 l 849 847 l 944 847 l 761 321 q 688 192 732 242 q 564 142 643 142 z "},"ⓩ":{"ha":1389,"x_min":47,"x_max":1342,"o":"m 694 -119 q 443 -69 561 -119 q 237 70 325 -18 q 98 276 149 158 q 47 528 47 394 q 98 779 47 661 q 237 985 149 897 q 443 1124 325 1074 q 694 1175 561 1175 q 946 1124 828 1175 q 1152 985 1064 1074 q 1291 779 1240 897 q 1342 528 1342 661 q 1290 275 1342 393 q 1151 69 1239 157 q 945 -69 1063 -18 q 694 -119 828 -119 m 694 -75 q 929 -28 819 -75 q 1121 101 1039 19 q 1250 293 1203 183 q 1297 528 1297 403 q 1250 763 1297 653 q 1121 954 1203 872 q 929 1083 1039 1036 q 694 1131 819 1131 q 458 1083 568 1131 q 267 953 349 1035 q 139 761 186 871 q 92 528 92 651 q 139 293 92 403 q 268 101 186 183 q 460 -28 350 19 q 694 -75 569 -75 m 503 324 l 761 690 l 533 690 l 533 769 l 886 769 l 886 714 l 628 349 l 893 349 l 893 269 l 503 269 l 503 324 z "},"▒":{"ha":1389,"x_min":0,"x_max":1389,"o":"m 1042 1222 l 1111 1222 l 1389 944 l 1389 875 l 1042 1222 m 694 1222 l 764 1222 l 1389 597 l 1389 528 l 694 1222 m 347 1222 l 417 1222 l 1389 250 l 1389 181 l 347 1222 m 0 1222 l 69 1222 l 1389 -97 l 1389 -167 l 0 1222 m 0 875 l 0 944 l 1111 -167 l 1042 -167 l 0 875 m 0 528 l 0 597 l 764 -167 l 694 -167 l 0 528 m 0 181 l 0 250 l 417 -167 l 347 -167 l 0 181 m 0 -97 l 69 -167 l 0 -167 l 0 -97 z "},"■":{"ha":1389,"x_min":139,"x_max":1250,"o":"m 1250 1083 l 1250 -28 l 139 -28 l 139 1083 l 1250 1083 z "},"□":{"ha":1389,"x_min":139,"x_max":1250,"o":"m 1250 1083 l 1250 -28 l 139 -28 l 139 1083 l 1250 1083 m 190 24 l 1199 24 l 1199 1032 l 190 1032 l 190 24 z "},"▣":{"ha":1389,"x_min":139,"x_max":1250,"o":"m 1250 1083 l 1250 -28 l 139 -28 l 139 1083 l 1250 1083 m 190 24 l 1199 24 l 1199 1032 l 190 1032 l 190 24 m 464 758 l 925 758 l 925 297 l 464 297 l 464 758 z "},"▤":{"ha":1389,"x_min":139,"x_max":1250,"o":"m 1199 24 l 1199 236 l 190 236 l 190 24 l 1199 24 m 190 501 l 190 288 l 1199 288 l 1199 501 l 190 501 m 1199 554 l 1199 768 l 190 768 l 190 554 l 1199 554 m 190 1032 l 190 819 l 1199 819 l 1199 1032 l 190 1032 m 1250 1083 l 1250 -28 l 139 -28 l 139 1083 l 1250 1083 z "},"▥":{"ha":1389,"x_min":139,"x_max":1250,"o":"m 1199 1032 l 986 1032 l 986 24 l 1199 24 l 1199 1032 m 190 24 l 403 24 l 403 1032 l 190 1032 l 190 24 m 668 1032 l 454 1032 l 454 24 l 668 24 l 668 1032 m 721 24 l 935 24 l 935 1032 l 721 1032 l 721 24 m 1250 1083 l 1250 -28 l 139 -28 l 139 1083 l 1250 1083 z "},"▦":{"ha":1389,"x_min":139,"x_max":1250,"o":"m 1199 24 l 1199 236 l 986 236 l 986 24 l 1199 24 m 190 24 l 403 24 l 403 236 l 190 236 l 190 24 m 190 1032 l 190 819 l 403 819 l 403 1032 l 190 1032 m 1199 554 l 1199 768 l 986 768 l 986 554 l 1199 554 m 986 288 l 1199 288 l 1199 501 l 986 501 l 986 288 m 935 288 l 935 501 l 721 501 l 721 288 l 935 288 m 721 24 l 935 24 l 935 236 l 721 236 l 721 24 m 454 236 l 454 24 l 668 24 l 668 236 l 454 236 m 454 288 l 668 288 l 668 501 l 454 501 l 454 288 m 190 501 l 190 288 l 403 288 l 403 501 l 190 501 m 403 768 l 190 768 l 190 554 l 403 554 l 403 768 m 454 768 l 454 554 l 668 554 l 668 768 l 454 768 m 668 1032 l 454 1032 l 454 819 l 668 819 l 668 1032 m 721 768 l 721 554 l 935 554 l 935 768 l 721 768 m 935 819 l 935 1032 l 721 1032 l 721 819 l 935 819 m 1199 1032 l 986 1032 l 986 819 l 1199 819 l 1199 1032 m 1250 1083 l 1250 -28 l 139 -28 l 139 1083 l 1250 1083 z "},"▧":{"ha":1389,"x_min":139,"x_max":1250,"o":"m 190 24 l 372 24 l 190 206 l 190 24 m 1199 1032 l 1017 1032 l 1199 850 l 1199 1032 m 682 1032 l 490 1032 l 1199 324 l 1199 515 l 682 1032 m 1199 776 l 943 1032 l 756 1032 l 1199 589 l 1199 776 m 1199 58 l 1199 253 l 419 1032 l 226 1032 l 1199 58 m 968 24 l 1163 24 l 190 996 l 190 801 l 968 24 m 704 24 l 897 24 l 190 731 l 190 539 l 704 24 m 190 278 l 443 24 l 633 24 l 190 467 l 190 278 m 1250 1083 l 1250 -28 l 139 -28 l 139 1083 l 1250 1083 z "},"▨":{"ha":1389,"x_min":139,"x_max":1250,"o":"m 1199 24 l 1199 201 l 1022 24 l 1199 24 m 190 1032 l 190 847 l 375 1032 l 190 1032 m 190 250 l 190 56 l 1167 1032 l 974 1032 l 190 250 m 636 1032 l 447 1032 l 190 775 l 190 586 l 636 1032 m 190 514 l 190 322 l 900 1032 l 708 1032 l 190 514 m 1199 799 l 1199 993 l 229 24 l 425 24 l 1199 799 m 761 24 l 949 24 l 1199 275 l 1199 463 l 761 24 m 1199 536 l 1199 728 l 496 24 l 686 24 l 1199 536 m 1250 1083 l 1250 -28 l 139 -28 l 139 1083 l 1250 1083 z "},"▩":{"ha":1389,"x_min":139,"x_max":1250,"o":"m 1199 850 l 1199 993 l 1128 922 l 1199 850 m 1199 58 l 1199 201 l 1128 129 l 1199 58 m 1022 24 l 1163 24 l 1092 94 l 1022 24 m 761 24 l 897 24 l 829 92 l 761 24 m 496 24 l 633 24 l 564 93 l 496 24 m 229 24 l 372 24 l 301 96 l 229 24 m 190 206 l 190 56 l 265 131 l 190 206 m 190 996 l 190 847 l 265 922 l 190 996 m 375 1032 l 226 1032 l 300 957 l 375 1032 m 636 1032 l 490 1032 l 564 960 l 636 1032 m 900 1032 l 756 1032 l 828 960 l 900 1032 m 1092 957 l 1167 1032 l 1017 1032 l 1092 957 m 1056 921 l 958 1017 l 864 924 l 961 826 l 1056 921 m 1188 788 l 1090 885 l 997 792 l 1094 693 l 1188 788 m 1199 589 l 1199 728 l 1129 658 l 1199 589 m 1199 324 l 1199 463 l 1129 393 l 1199 324 m 1090 167 l 1188 264 l 1094 357 l 997 260 l 1090 167 m 864 128 l 958 33 l 1056 131 l 961 225 l 864 128 m 828 165 l 925 263 l 829 357 l 732 260 l 828 165 m 600 128 l 696 33 l 792 129 l 696 225 l 600 128 m 565 164 l 661 260 l 564 358 l 467 261 l 565 164 m 336 131 l 435 33 l 529 128 l 432 226 l 336 131 m 204 264 l 301 167 l 396 261 l 299 358 l 204 264 m 190 467 l 190 322 l 263 394 l 190 467 m 190 731 l 190 586 l 263 658 l 190 731 m 301 886 l 204 789 l 299 694 l 396 792 l 301 886 m 528 924 l 433 1018 l 336 921 l 431 826 l 528 924 m 564 888 l 467 790 l 563 694 l 660 792 l 564 888 m 792 924 l 696 1019 l 600 924 l 696 828 l 792 924 m 925 790 l 828 886 l 732 790 l 829 694 l 925 790 m 1057 657 l 960 754 l 864 658 l 961 561 l 1057 657 m 1093 431 l 1189 526 l 1093 621 l 997 525 l 1093 431 m 864 393 l 960 297 l 1057 394 l 961 490 l 864 393 m 829 428 l 926 525 l 829 624 l 732 526 l 829 428 m 599 393 l 696 296 l 793 393 l 696 490 l 599 393 m 696 561 l 793 658 l 696 756 l 600 658 l 696 561 m 564 429 l 661 526 l 564 622 l 467 525 l 564 429 m 335 394 l 432 297 l 528 393 l 431 490 l 335 394 m 431 563 l 528 660 l 432 756 l 335 658 l 431 563 m 299 622 l 203 526 l 299 431 l 394 526 l 299 622 m 1250 1083 l 1250 -28 l 139 -28 l 139 1083 l 1250 1083 z "},"▲":{"ha":1389,"x_min":42,"x_max":1347,"o":"m 1347 17 l 42 17 l 694 1147 l 1347 17 z "},"△":{"ha":1389,"x_min":42,"x_max":1347,"o":"m 1347 17 l 42 17 l 694 1147 l 1347 17 m 131 68 l 1258 68 l 694 1044 l 131 68 z "},"▶":{"ha":1389,"x_min":169,"x_max":1300,"o":"m 169 -129 l 169 1176 l 1300 524 l 169 -129 z "},"▷":{"ha":1389,"x_min":169,"x_max":1300,"o":"m 169 -129 l 169 1176 l 1300 524 l 169 -129 m 221 1088 l 221 -40 l 1197 524 l 221 1088 z "},"▼":{"ha":1389,"x_min":42,"x_max":1347,"o":"m 1347 1039 l 694 -92 l 42 1039 l 1347 1039 z "},"▽":{"ha":1389,"x_min":42,"x_max":1347,"o":"m 1347 1039 l 694 -92 l 42 1039 l 1347 1039 m 131 988 l 694 11 l 1258 988 l 131 988 z "},"◀":{"ha":1389,"x_min":89,"x_max":1219,"o":"m 1219 -129 l 89 524 l 1219 1176 l 1219 -129 z "},"◁":{"ha":1389,"x_min":89,"x_max":1219,"o":"m 1219 -129 l 89 524 l 1219 1176 l 1219 -129 m 1168 1088 l 192 524 l 1168 -40 l 1168 1088 z "},"◆":{"ha":1389,"x_min":17,"x_max":1372,"o":"m 1372 528 l 694 -150 l 17 528 l 694 1206 l 1372 528 z "},"◇":{"ha":1389,"x_min":17,"x_max":1372,"o":"m 1372 528 l 694 -150 l 17 528 l 694 1206 l 1372 528 m 90 528 l 694 -76 l 1299 528 l 694 1132 l 90 528 z "},"◈":{"ha":1389,"x_min":17,"x_max":1372,"o":"m 1372 528 l 694 -150 l 17 528 l 694 1206 l 1372 528 m 90 528 l 694 -76 l 1299 528 l 694 1132 l 90 528 m 694 997 l 1164 528 l 694 58 l 225 528 l 694 997 z "},"○":{"ha":1389,"x_min":69,"x_max":1319,"o":"m 694 -97 q 451 -48 565 -97 q 253 86 338 1 q 119 285 168 171 q 69 528 69 399 q 119 771 69 657 q 253 969 168 885 q 451 1103 338 1054 q 694 1153 565 1153 q 938 1103 824 1153 q 1136 969 1051 1054 q 1270 771 1221 885 q 1319 528 1319 657 q 1270 285 1319 399 q 1136 86 1221 171 q 938 -48 1051 1 q 694 -97 824 -97 m 121 528 q 166 304 121 408 q 289 122 211 200 q 471 -1 367 44 q 694 -46 575 -46 q 917 -1 813 -46 q 1100 122 1022 44 q 1223 304 1178 200 q 1268 528 1268 408 q 1223 751 1268 646 q 1100 933 1178 856 q 917 1056 1022 1011 q 694 1101 813 1101 q 471 1056 575 1101 q 289 933 367 1011 q 166 751 211 856 q 121 528 121 646 z "},"◎":{"ha":1389,"x_min":69,"x_max":1319,"o":"m 69 528 q 119 771 69 657 q 253 969 168 885 q 451 1103 338 1054 q 694 1153 565 1153 q 938 1103 824 1153 q 1136 969 1051 1054 q 1270 771 1221 885 q 1319 528 1319 657 q 1270 285 1319 399 q 1136 86 1221 171 q 938 -48 1051 1 q 694 -97 824 -97 q 451 -48 565 -97 q 253 86 338 1 q 119 285 168 171 q 69 528 69 399 m 1268 528 q 1223 751 1268 646 q 1100 933 1178 856 q 917 1056 1022 1011 q 694 1101 813 1101 q 471 1056 575 1101 q 289 933 367 1011 q 166 751 211 856 q 121 528 121 646 q 166 304 121 408 q 289 122 211 200 q 471 -1 367 44 q 694 -46 575 -46 q 917 -1 813 -46 q 1100 122 1022 44 q 1223 304 1178 200 q 1268 528 1268 408 m 283 528 q 315 688 283 613 q 403 819 347 763 q 534 907 460 875 q 694 939 608 939 q 854 907 779 939 q 985 819 929 875 q 1074 688 1042 763 q 1106 528 1106 613 q 1074 367 1106 442 q 985 237 1042 293 q 854 149 929 181 q 694 117 779 117 q 534 149 608 117 q 403 237 460 181 q 315 367 347 293 q 283 528 283 442 m 1063 528 q 1033 671 1063 604 q 954 788 1004 738 q 838 867 904 838 q 694 896 771 896 q 551 867 618 896 q 435 788 485 838 q 356 671 385 738 q 326 528 326 604 q 356 385 326 451 q 435 268 385 318 q 551 189 485 218 q 694 160 618 160 q 838 189 771 160 q 954 268 904 218 q 1033 385 1004 318 q 1063 528 1063 451 z "},"●":{"ha":1389,"x_min":69,"x_max":1319,"o":"m 694 -97 q 451 -48 565 -97 q 253 86 338 1 q 119 285 168 171 q 69 528 69 399 q 119 771 69 657 q 253 969 168 885 q 451 1103 338 1054 q 694 1153 565 1153 q 938 1103 824 1153 q 1136 969 1051 1054 q 1270 771 1221 885 q 1319 528 1319 657 q 1270 285 1319 399 q 1136 86 1221 171 q 938 -48 1051 1 q 694 -97 824 -97 z "},"◐":{"ha":1389,"x_min":83,"x_max":1306,"o":"m 1306 528 q 1258 290 1306 401 q 1126 96 1210 179 q 932 -35 1043 13 q 694 -83 821 -83 q 457 -35 568 -83 q 263 96 346 13 q 131 290 179 179 q 83 528 83 401 q 131 765 83 654 q 263 960 179 876 q 457 1091 346 1043 q 694 1139 568 1139 q 932 1091 821 1139 q 1126 960 1043 1043 q 1258 765 1210 876 q 1306 528 1306 654 m 694 -42 q 917 3 813 -42 q 1098 124 1021 47 q 1219 306 1175 201 q 1264 528 1264 410 q 1219 750 1264 646 q 1098 931 1175 854 q 917 1053 1021 1008 q 694 1097 813 1097 l 694 -42 z "},"◑":{"ha":1389,"x_min":83,"x_max":1306,"o":"m 1306 528 q 1258 290 1306 401 q 1126 96 1210 179 q 932 -35 1043 13 q 694 -83 821 -83 q 457 -35 568 -83 q 263 96 346 13 q 131 290 179 179 q 83 528 83 401 q 131 765 83 654 q 263 960 179 876 q 457 1091 346 1043 q 694 1139 568 1139 q 932 1091 821 1139 q 1126 960 1043 1043 q 1258 765 1210 876 q 1306 528 1306 654 m 694 1097 q 472 1053 576 1097 q 291 931 368 1008 q 169 750 214 854 q 125 528 125 646 q 169 306 125 410 q 291 124 214 201 q 472 3 368 47 q 694 -42 576 -42 l 694 1097 z "},"☃":{"ha":1389,"x_min":174,"x_max":1229,"o":"m 713 657 q 647 688 671 658 q 618 758 624 718 q 618 833 611 794 q 654 900 625 872 q 721 924 682 926 q 785 893 760 922 q 815 827 807 868 q 814 747 822 786 q 781 681 806 708 q 713 657 756 654 m 715 893 q 679 879 694 893 q 720 872 704 885 q 745 839 736 860 q 754 792 754 818 q 747 744 754 767 q 723 708 739 722 q 683 697 707 694 q 725 688 703 685 q 763 711 747 692 q 781 748 776 726 q 785 789 785 769 q 781 824 785 806 q 770 857 778 842 q 749 883 763 872 q 715 893 736 893 m 1124 489 q 1144 493 1128 490 q 1177 498 1160 496 q 1208 499 1194 500 q 1225 492 1222 497 q 1221 474 1229 478 q 1203 468 1213 469 q 1177 465 1193 467 q 1146 462 1161 464 q 1119 458 1131 460 q 1106 456 1107 457 q 1092 444 1103 454 q 1069 422 1081 433 q 1043 397 1057 411 q 1031 379 1029 382 q 1042 363 1033 375 q 1061 325 1050 350 q 1072 293 1071 299 q 1076 293 1072 292 q 1086 295 1081 294 q 1101 294 1092 296 q 1119 290 1111 293 q 1167 243 1153 279 q 1172 227 1169 236 q 1172 212 1174 218 q 1169 199 1171 206 q 1167 189 1167 192 q 1172 181 1167 186 q 1181 167 1176 176 q 1182 140 1186 158 q 1164 108 1178 122 q 1138 90 1146 92 q 1128 88 1131 88 q 1124 83 1125 88 q 1121 74 1122 78 q 1117 67 1119 71 q 1105 56 1111 60 q 1093 49 1099 51 q 1078 46 1088 47 q 1061 44 1068 44 q 1055 31 1060 42 q 1033 -3 1050 21 q 1000 -38 1018 -22 q 960 -68 982 -54 q 840 -113 903 -100 q 713 -131 776 -126 q 560 -126 636 -135 q 413 -82 483 -118 q 313 9 351 -47 q 268 138 274 65 q 272 218 265 178 q 293 294 279 258 q 308 327 300 313 q 326 356 317 342 q 332 364 331 363 q 329 369 333 365 q 320 381 328 371 q 303 404 313 392 q 272 442 293 417 q 258 449 271 443 q 231 460 246 454 q 202 471 215 465 q 183 479 189 476 q 176 488 178 482 q 176 498 174 493 q 183 506 178 503 q 196 507 189 508 q 227 495 213 501 q 257 482 242 489 q 248 513 254 494 q 235 551 242 532 q 225 584 229 569 q 223 606 221 599 q 236 614 225 613 q 253 604 247 615 q 259 583 253 604 q 274 535 265 561 q 290 485 282 508 q 303 456 299 461 q 328 424 317 440 q 351 390 340 407 q 361 401 361 397 q 360 413 361 404 q 358 426 358 421 q 367 476 358 460 q 378 496 375 493 q 376 503 381 500 q 362 517 374 506 q 344 535 350 528 q 308 594 322 561 q 292 663 294 628 q 301 731 290 697 q 338 790 313 764 q 353 803 344 797 q 369 813 361 808 q 388 821 386 819 q 393 842 390 824 q 422 925 401 882 q 469 990 442 961 q 535 1036 497 1018 q 531 1047 532 1042 q 529 1079 531 1053 q 528 1121 528 1106 q 538 1143 528 1139 q 564 1144 549 1147 q 593 1134 579 1139 q 635 1118 607 1129 q 653 1149 647 1138 q 666 1174 660 1161 q 678 1197 672 1186 q 697 1217 685 1208 q 729 1221 710 1226 q 769 1208 742 1217 q 827 1191 796 1200 q 887 1173 858 1182 q 929 1160 915 1164 q 960 1117 961 1149 q 958 1095 960 1111 q 953 1063 956 1079 q 949 1032 950 1046 q 947 1018 947 1018 q 958 1013 947 1017 q 983 1006 969 1010 q 1008 998 996 1001 q 1030 992 1021 994 q 1043 983 1039 989 q 1038 963 1047 976 q 1015 935 1029 949 q 990 910 1001 921 q 976 897 978 899 q 979 887 975 896 q 990 860 983 878 q 997 831 994 844 q 1001 801 1000 817 q 995 685 1007 742 q 947 582 983 629 q 965 567 958 576 q 976 549 972 558 q 993 494 989 521 q 983 431 1001 444 q 995 417 986 426 q 1007 406 1004 408 q 1079 474 1026 422 q 1091 498 1083 479 q 1107 539 1099 517 q 1123 582 1115 561 q 1135 614 1131 603 q 1156 624 1142 628 q 1167 604 1169 619 q 1160 585 1165 600 q 1147 553 1154 571 q 1134 517 1140 535 q 1124 489 1128 499 m 1138 229 q 1119 258 1132 249 q 1081 264 1107 267 q 1074 78 1101 171 q 1093 83 1088 78 q 1101 97 1099 89 q 1103 113 1103 106 q 1104 121 1103 119 q 1122 124 1106 124 q 1146 138 1138 124 q 1149 160 1156 149 q 1140 169 1146 167 q 1131 176 1133 172 q 1129 185 1128 181 q 1133 192 1131 189 q 1138 229 1144 210 m 954 657 q 968 721 965 686 q 968 790 971 756 q 958 854 965 825 q 942 900 950 883 q 902 913 922 906 q 863 925 882 919 q 898 830 890 882 q 903 729 906 778 q 878 637 900 681 q 819 561 856 593 q 863 570 840 567 q 906 582 885 574 q 932 607 919 586 q 944 632 939 619 q 954 657 949 644 m 600 1008 q 587 1013 593 1011 q 574 1018 581 1015 q 562 1013 568 1015 q 549 1008 556 1011 q 564 1000 557 1007 q 567 997 567 997 q 574 1000 568 997 q 587 1005 581 1003 q 600 1008 593 1007 m 513 978 q 481 955 494 971 q 460 928 467 939 q 484 921 474 928 q 501 903 494 914 q 513 881 508 893 q 519 857 517 868 q 524 872 521 865 q 538 878 528 878 q 550 856 553 874 q 538 826 547 840 q 514 803 528 811 q 562 745 546 781 q 578 672 578 710 q 567 601 579 635 q 539 536 556 568 q 642 528 588 521 q 743 554 697 536 q 819 607 788 574 q 864 686 850 640 q 872 748 872 717 q 869 810 872 779 q 856 865 865 838 q 831 915 847 892 l 817 935 q 781 952 801 943 q 737 969 760 961 q 692 981 714 976 q 657 986 669 986 q 629 984 640 986 q 610 979 618 982 q 593 972 601 976 q 575 964 585 968 q 560 959 564 957 q 549 971 556 961 q 532 981 543 979 q 513 978 521 982 m 460 896 q 446 888 451 896 q 437 867 440 879 q 431 844 433 856 q 429 828 429 833 q 437 835 436 826 q 440 853 438 843 q 447 875 442 863 q 460 889 451 885 q 476 882 469 893 q 460 896 471 896 m 363 769 q 340 737 347 756 q 328 702 332 718 q 325 676 325 686 q 325 669 325 667 q 338 606 325 636 q 372 550 350 575 q 424 508 394 525 q 485 485 453 490 q 507 542 490 515 q 535 600 524 569 q 546 655 544 625 q 540 712 547 685 q 516 760 533 739 q 469 792 499 782 q 414 794 442 800 q 363 769 386 789 m 1054 142 q 1056 217 1060 179 q 1040 290 1051 254 q 1028 320 1035 306 q 1011 351 1021 335 q 989 385 1003 367 q 965 408 975 403 q 953 412 956 413 q 926 403 951 411 q 891 392 900 394 q 882 390 882 390 q 886 347 883 381 q 892 276 889 314 q 896 205 894 238 q 893 164 897 172 q 864 146 888 151 q 813 140 840 140 q 763 144 786 140 q 736 150 740 147 q 719 186 721 157 q 722 249 718 215 q 731 315 725 283 q 738 358 736 346 q 620 348 679 350 q 503 349 561 346 q 458 353 481 350 q 415 366 436 356 q 390 378 393 376 q 379 374 386 381 q 358 347 372 367 q 318 271 333 314 q 299 183 303 228 q 306 96 296 139 q 344 18 317 53 q 407 -40 371 -17 q 483 -76 443 -62 q 567 -94 524 -89 q 650 -100 610 -100 q 799 -90 724 -101 q 942 -42 875 -79 q 1002 12 979 -19 q 1036 72 1025 43 q 1054 142 1050 107 m 467 264 q 476 288 467 278 q 500 297 486 297 q 524 288 514 297 q 533 264 533 278 q 524 240 533 250 q 500 231 514 231 q 476 240 486 231 q 467 264 467 250 m 456 158 q 465 182 456 172 q 489 192 475 192 q 513 182 503 192 q 522 158 522 172 q 513 135 522 144 q 489 125 503 125 q 465 135 475 125 q 456 158 456 144 z "},"★":{"ha":1389,"x_min":53,"x_max":1336,"o":"m 1336 674 l 1336 668 l 943 383 l 1097 -86 l 1093 -87 l 694 201 l 296 -87 l 292 -86 l 446 383 l 53 668 l 53 674 l 539 674 l 692 1140 l 697 1140 l 850 674 l 1336 674 z "},"☆":{"ha":1389,"x_min":51,"x_max":1338,"o":"m 689 1140 l 700 1140 l 850 674 l 1336 674 l 1338 661 l 943 383 l 1100 -82 l 1090 -90 l 694 201 l 299 -90 l 289 -82 l 446 383 l 51 661 l 53 674 l 539 674 l 689 1140 m 315 622 l 178 629 l 178 626 l 299 550 l 507 403 l 429 172 l 372 25 l 375 24 l 500 122 l 694 265 l 889 122 l 1014 24 l 1017 25 l 960 172 l 882 403 l 1090 550 l 1211 626 l 1211 629 l 1072 622 l 813 622 l 732 871 l 696 1006 l 693 1006 l 656 871 l 576 622 l 315 622 z "},"☎":{"ha":1389,"x_min":56,"x_max":1333,"o":"m 308 792 l 365 644 q 370 613 372 628 q 347 593 368 597 l 94 550 q 56 589 56 546 q 58 646 56 611 q 68 716 60 681 q 91 783 76 751 q 131 835 106 815 q 226 894 174 868 q 346 938 279 921 q 498 965 413 956 q 694 974 583 974 q 890 965 804 974 q 1043 938 976 956 q 1162 894 1110 921 q 1258 835 1214 868 q 1298 783 1283 815 q 1321 716 1313 751 q 1331 646 1329 681 q 1333 589 1333 611 q 1294 550 1333 546 l 1042 593 q 1019 613 1021 597 q 1024 644 1017 628 l 1081 792 l 932 792 l 932 703 q 943 634 932 667 q 976 569 954 601 q 1028 504 997 538 q 1097 433 1058 471 q 1197 278 1169 363 q 1225 103 1225 194 q 1211 53 1225 69 q 1161 38 1197 38 l 228 38 q 178 53 192 38 q 164 103 164 69 q 192 278 164 194 q 292 433 219 363 q 361 504 331 471 q 413 569 392 538 q 446 634 435 601 q 457 703 457 667 l 457 792 l 308 792 m 576 792 l 576 658 l 813 658 l 813 792 l 576 792 m 461 347 q 479 256 461 299 q 529 182 497 214 q 603 132 561 150 q 694 114 646 114 q 785 132 743 114 q 860 182 828 150 q 910 256 892 214 q 928 347 928 299 q 910 438 928 396 q 860 513 892 481 q 785 563 828 544 q 694 581 743 581 q 603 563 646 581 q 529 513 561 544 q 479 438 497 481 q 461 347 461 396 z "},"☏":{"ha":1389,"x_min":36,"x_max":1353,"o":"m 947 347 q 927 250 947 296 q 872 169 907 204 q 792 115 838 135 q 694 94 746 94 q 597 115 643 94 q 517 169 551 135 q 462 250 482 204 q 442 347 442 296 q 462 444 442 399 q 517 525 482 490 q 597 580 551 560 q 694 600 643 600 q 792 580 746 600 q 872 525 838 560 q 927 444 907 490 q 947 347 947 399 m 481 347 q 497 264 481 303 q 543 196 514 225 q 611 150 572 167 q 694 133 650 133 q 778 150 739 133 q 846 196 817 167 q 892 264 875 225 q 908 347 908 303 q 892 431 908 392 q 846 499 875 469 q 778 544 817 528 q 694 561 739 561 q 611 544 650 561 q 543 499 572 528 q 497 431 514 469 q 481 347 481 392 m 557 811 l 832 811 l 832 639 l 557 639 l 557 811 m 596 772 l 596 678 l 793 678 l 793 772 l 596 772 m 281 811 l 476 811 l 476 703 q 464 628 476 664 q 429 559 451 593 q 376 491 407 525 q 306 419 344 457 q 209 273 235 353 q 183 103 183 193 q 192 67 183 76 q 228 57 201 57 l 1161 57 q 1197 67 1188 57 q 1206 103 1206 76 q 1180 273 1206 193 q 1083 419 1154 353 q 959 560 1006 494 q 913 703 913 625 l 913 811 l 1108 811 l 1042 638 l 1042 636 q 1044 613 1032 615 l 1297 569 q 1310 572 1307 568 q 1314 589 1314 576 q 1312 644 1314 611 q 1302 710 1310 676 q 1281 773 1294 743 q 1246 819 1268 803 q 1153 878 1203 853 q 1037 919 1103 903 q 888 945 971 936 q 694 954 804 954 q 501 945 585 954 q 352 919 418 936 q 236 878 286 903 q 143 819 186 853 q 108 773 121 803 q 87 710 94 743 q 77 644 79 676 q 75 589 75 611 q 78 572 75 576 q 92 569 82 568 l 343 613 q 347 636 357 614 l 347 638 l 281 811 m 336 772 l 383 651 l 383 653 q 389 631 388 643 q 388 607 390 618 q 376 587 385 596 q 350 574 367 578 l 97 531 q 53 544 71 528 q 36 589 36 561 q 39 647 36 611 q 50 721 42 683 q 74 794 58 758 q 118 850 90 829 q 217 912 163 885 q 340 957 271 939 q 496 984 408 975 q 694 993 583 993 q 893 984 806 993 q 1049 957 981 975 q 1172 912 1118 939 q 1271 850 1226 885 q 1315 794 1299 829 q 1339 721 1331 758 q 1350 647 1347 683 q 1353 589 1353 611 q 1335 544 1353 561 q 1292 531 1318 528 l 1038 574 q 1013 587 1021 578 q 1001 607 1004 596 q 1000 631 999 618 q 1006 653 1001 643 l 1006 651 l 1053 772 l 951 772 l 951 703 q 962 639 951 669 q 992 578 972 608 q 1042 517 1013 549 q 1111 447 1072 485 q 1215 285 1186 374 q 1244 103 1244 197 q 1224 41 1244 64 q 1161 18 1204 18 l 228 18 q 165 41 185 18 q 144 103 144 64 q 174 285 144 197 q 278 447 203 374 q 347 517 317 485 q 397 578 376 549 q 427 639 417 608 q 438 703 438 669 l 438 772 l 336 772 z "},"☜":{"ha":1389,"x_min":39,"x_max":1340,"o":"m 374 631 q 406 632 392 631 q 431 636 419 633 q 458 646 444 639 q 482 664 472 653 q 532 708 503 686 q 581 749 561 731 q 582 751 582 750 q 583 753 582 751 q 583 775 586 764 q 579 779 583 779 q 460 770 522 775 q 341 760 399 765 q 237 749 283 754 q 164 738 190 743 q 113 723 131 731 q 88 707 96 715 q 78 691 79 699 q 76 679 76 683 q 91 648 76 663 q 160 629 106 633 q 201 628 175 628 q 256 628 226 628 q 317 630 286 629 q 374 631 347 631 m 418 450 q 472 444 446 444 q 508 447 497 444 q 577 458 544 451 q 640 478 610 465 q 677 495 660 486 q 706 515 694 504 q 719 537 717 526 q 718 558 721 547 q 697 568 714 572 q 651 556 678 563 q 601 542 625 549 q 556 534 576 536 q 515 536 535 532 q 477 551 492 540 q 451 588 463 563 q 442 596 449 594 q 429 594 435 597 q 364 554 390 581 q 349 520 349 540 q 357 485 350 500 q 383 460 364 468 q 418 450 401 453 m 544 322 q 582 326 561 322 q 626 337 603 329 q 672 355 649 344 q 714 378 694 365 q 760 413 746 397 q 775 449 775 429 q 763 483 775 468 q 749 489 757 488 q 733 485 742 490 q 692 464 714 475 q 651 444 671 453 q 566 418 613 428 q 467 408 519 408 q 444 408 456 408 q 421 411 433 408 q 414 404 414 411 q 424 368 417 386 q 451 339 432 350 q 494 325 471 328 q 544 322 518 322 m 593 210 q 691 232 636 210 q 781 292 746 254 q 797 322 796 307 q 794 344 797 338 q 774 363 788 364 q 747 354 760 363 q 698 326 725 339 q 643 305 671 314 q 589 290 615 296 q 544 285 563 285 q 519 285 532 285 q 494 288 506 286 q 489 283 489 288 q 525 228 497 246 q 564 213 544 215 q 593 210 583 210 m 1214 660 q 1205 660 1210 660 q 1196 663 1200 660 q 1074 711 1135 689 q 958 749 1013 733 q 859 773 904 764 q 783 782 814 782 q 698 773 731 782 q 629 740 665 764 q 605 723 619 733 q 574 700 590 713 q 542 674 557 688 q 514 646 526 660 q 490 613 494 625 q 489 593 485 600 q 526 570 499 574 q 590 578 554 567 q 651 597 619 586 q 710 615 683 607 q 757 631 738 624 q 782 640 776 638 q 794 642 788 643 q 804 635 801 640 q 843 598 815 619 q 915 553 871 576 q 1007 517 960 529 q 1096 504 1054 504 q 1111 500 1103 504 q 1119 489 1119 496 q 1113 476 1119 482 q 1096 467 1106 469 q 1018 454 1057 456 q 926 458 979 453 q 865 437 883 463 q 846 379 846 411 q 839 320 846 347 q 818 275 832 293 q 769 233 797 250 q 713 201 740 215 q 710 199 710 201 q 713 197 711 197 q 788 196 749 194 q 869 204 828 197 q 1022 241 946 217 q 1181 304 1097 265 q 1190 307 1185 307 q 1199 307 1194 307 l 1286 296 q 1298 299 1293 296 q 1303 310 1303 303 l 1303 658 q 1289 669 1303 669 l 1214 660 m 1210 267 q 1181 263 1194 268 q 875 168 1025 190 q 813 160 843 163 q 754 158 782 158 q 718 160 738 158 q 680 163 699 161 q 647 168 661 165 q 624 174 632 171 q 619 174 619 174 q 606 173 613 174 q 593 172 600 172 q 553 176 578 172 q 504 197 529 181 q 450 294 454 229 q 447 299 450 299 q 440 302 443 301 q 432 306 436 303 q 375 415 379 338 q 369 425 375 424 q 324 468 336 442 q 313 528 308 496 q 338 581 317 560 q 343 585 340 583 q 344 590 346 588 q 339 592 342 592 q 288 591 314 592 q 237 590 261 590 q 192 590 213 590 q 157 592 171 590 q 63 623 88 597 q 39 679 39 649 q 50 721 39 704 q 78 748 61 738 q 117 765 96 758 q 157 775 138 771 q 228 785 183 779 q 327 796 272 790 q 442 806 382 801 q 559 815 503 811 q 663 822 615 819 q 742 824 711 824 q 945 792 826 824 q 1204 700 1064 760 q 1217 699 1208 699 l 1319 711 q 1335 706 1331 713 q 1340 692 1340 700 l 1340 274 q 1338 264 1340 269 q 1319 254 1332 254 l 1210 267 z "},"☞":{"ha":1389,"x_min":46,"x_max":1347,"o":"m 644 824 q 723 822 675 824 q 827 815 771 819 q 944 806 883 811 q 1059 796 1004 801 q 1158 785 1114 790 q 1229 775 1203 779 q 1269 765 1249 771 q 1308 748 1290 758 q 1336 721 1325 738 q 1347 679 1347 704 q 1323 623 1347 649 q 1229 592 1299 597 q 1194 590 1215 590 q 1149 590 1174 590 q 1099 591 1125 590 q 1047 592 1072 592 q 1042 590 1044 592 q 1043 585 1040 588 q 1049 581 1046 583 q 1074 528 1069 560 q 1063 468 1078 496 q 1017 425 1050 442 q 1011 415 1011 424 q 954 306 1007 338 q 947 302 950 303 q 939 299 943 301 q 936 294 936 299 q 882 197 932 229 q 833 176 857 181 q 793 172 808 172 q 780 173 786 172 q 767 174 774 174 q 763 174 767 174 q 740 168 754 171 q 706 163 725 165 q 668 160 688 161 q 632 158 649 158 q 574 160 604 158 q 511 168 543 163 q 206 263 361 190 q 176 267 190 268 l 67 254 q 49 264 54 254 q 46 274 46 269 l 46 692 q 51 706 46 700 q 67 711 56 713 l 169 699 q 182 700 178 699 q 441 792 322 760 q 644 824 560 824 m 206 304 q 365 241 289 265 q 517 204 440 217 q 598 196 558 197 q 674 197 638 194 q 676 199 675 197 q 674 201 676 201 q 617 233 646 215 q 568 275 589 250 q 547 320 554 293 q 540 379 540 347 q 522 437 540 411 q 460 458 503 463 q 368 454 407 453 q 290 467 329 456 q 274 476 281 469 q 267 489 267 482 q 275 500 267 496 q 290 504 283 504 q 379 517 332 504 q 471 553 426 529 q 543 598 515 576 q 582 635 571 619 q 592 642 585 640 q 604 640 599 643 q 629 631 610 638 q 676 615 649 624 q 735 597 703 607 q 796 578 767 586 q 860 570 832 567 q 897 593 888 574 q 897 613 901 600 q 872 646 892 625 q 844 674 860 660 q 813 700 829 688 q 781 723 796 713 q 757 740 767 733 q 688 773 721 764 q 603 782 656 782 q 527 773 572 782 q 428 749 482 764 q 313 711 374 733 q 190 663 251 689 q 181 660 186 660 q 172 660 176 660 l 97 669 q 83 658 83 669 l 83 310 q 88 299 83 303 q 100 296 93 296 l 188 307 q 197 307 192 307 q 206 304 201 307 m 793 210 q 822 213 803 210 q 861 228 842 215 q 897 283 889 246 q 892 288 897 288 q 867 285 881 286 q 842 285 854 285 q 797 290 822 285 q 743 305 771 296 q 688 326 715 314 q 639 354 661 339 q 613 363 626 363 q 592 344 599 364 q 590 322 589 338 q 606 292 590 307 q 695 232 640 254 q 793 210 750 210 m 842 322 q 892 325 868 322 q 935 339 915 328 q 962 368 954 350 q 972 404 969 386 q 965 411 972 411 q 942 408 953 408 q 919 408 931 408 q 820 418 867 408 q 735 444 774 428 q 694 464 715 453 q 653 485 672 475 q 637 489 644 490 q 624 483 629 488 q 611 449 611 468 q 626 413 611 429 q 672 378 640 397 q 715 355 692 365 q 760 337 738 344 q 804 326 783 329 q 842 322 825 322 m 968 450 q 1003 460 985 453 q 1029 485 1022 468 q 1037 520 1036 500 q 1022 554 1038 540 q 957 594 996 581 q 944 596 951 597 q 935 588 938 594 q 909 551 924 563 q 871 536 894 540 q 831 534 851 532 q 785 542 810 536 q 735 556 761 549 q 689 568 708 563 q 668 558 672 572 q 667 537 665 547 q 681 515 669 526 q 709 495 692 504 q 746 478 726 486 q 809 458 776 465 q 878 447 842 451 q 915 444 889 444 q 968 450 940 444 m 1013 631 q 1069 630 1039 631 q 1130 628 1100 629 q 1185 628 1160 628 q 1226 629 1211 628 q 1295 648 1281 633 q 1310 679 1310 663 q 1308 691 1310 683 q 1299 707 1307 699 q 1273 723 1290 715 q 1222 738 1256 731 q 1149 749 1196 743 q 1045 760 1103 754 q 926 770 988 765 q 807 779 864 775 q 803 775 803 779 q 803 753 800 764 q 804 751 804 751 q 806 749 804 750 q 854 708 825 731 q 904 664 883 686 q 928 646 914 653 q 956 636 942 639 q 981 632 967 633 q 1013 631 994 631 z "},"♀":{"ha":1389,"x_min":250,"x_max":1139,"o":"m 394 839 q 418 956 394 901 q 482 1052 442 1011 q 577 1116 522 1093 q 694 1139 632 1139 q 812 1116 757 1139 q 907 1052 867 1093 q 971 956 947 1011 q 994 839 994 901 q 975 734 994 783 q 922 645 956 685 q 842 579 889 606 q 742 544 796 553 l 742 394 l 1139 394 l 1139 300 l 742 300 l 742 -83 l 647 -83 l 647 300 l 250 300 l 250 394 l 647 394 l 647 544 q 547 579 593 553 q 467 645 500 606 q 414 734 433 685 q 394 839 394 783 m 899 839 q 883 919 899 882 q 839 983 867 956 q 774 1027 811 1011 q 694 1043 736 1043 q 615 1027 653 1043 q 550 983 578 1011 q 506 919 522 956 q 490 839 490 882 q 506 760 490 797 q 550 695 522 722 q 615 652 578 668 q 694 636 653 636 q 774 652 736 636 q 839 695 811 668 q 883 760 867 722 q 899 839 899 797 z "},"♂":{"ha":1389,"x_min":161,"x_max":1199,"o":"m 761 294 q 738 178 761 232 q 673 83 714 124 q 578 18 632 42 q 461 -6 524 -6 q 344 18 399 -6 q 249 83 290 42 q 185 178 208 124 q 161 294 161 232 q 185 411 161 357 q 249 506 208 465 q 344 571 290 547 q 461 594 399 594 q 552 580 508 594 q 633 538 596 565 l 1033 936 l 676 936 l 676 1032 l 1199 1032 l 1199 510 l 1103 510 l 1103 871 l 701 471 q 745 389 729 435 q 761 294 761 343 m 257 294 q 273 215 257 253 q 317 150 289 178 q 382 106 344 122 q 461 90 419 90 q 540 106 503 90 q 606 150 578 122 q 649 215 633 178 q 665 294 665 253 q 649 374 665 336 q 606 439 633 411 q 540 483 578 467 q 461 499 503 499 q 382 483 419 499 q 317 439 344 467 q 273 374 289 411 q 257 294 257 336 z "},"♠":{"ha":1389,"x_min":115,"x_max":1274,"o":"m 1010 832 q 1094 751 1047 796 q 1180 651 1140 706 q 1247 533 1219 597 q 1274 394 1274 469 q 1253 278 1274 333 q 1197 182 1233 224 q 1110 116 1161 140 q 996 92 1058 92 q 855 129 917 92 q 767 226 793 167 q 756 249 760 242 q 744 257 753 257 q 737 246 738 257 q 736 232 736 235 q 779 59 743 124 q 874 -54 815 -6 q 881 -74 885 -65 q 874 -82 878 -82 l 515 -82 q 507 -74 511 -82 q 515 -54 503 -65 q 610 59 574 -6 q 653 232 646 124 q 652 246 653 235 q 644 257 651 257 q 633 249 636 257 q 622 226 629 242 q 534 129 596 167 q 393 92 472 92 q 280 116 331 92 q 192 182 229 140 q 135 278 156 224 q 115 394 115 333 q 142 533 115 469 q 209 651 169 597 q 295 751 249 706 q 379 832 342 796 q 473 926 425 876 q 563 1022 521 975 q 639 1112 606 1069 q 692 1183 672 1154 q 697 1183 694 1189 q 749 1112 715 1154 q 826 1022 783 1069 q 916 926 868 975 q 1010 832 964 876 z "},"♡":{"ha":1389,"x_min":108,"x_max":1283,"o":"m 699 901 q 756 999 722 960 q 828 1063 789 1039 q 909 1098 867 1088 q 992 1108 951 1108 q 1105 1083 1051 1108 q 1198 1012 1158 1057 q 1260 905 1238 967 q 1283 772 1283 843 q 1256 628 1283 694 q 1188 505 1228 561 q 1099 401 1147 449 q 1013 317 1051 354 q 917 219 965 271 q 827 117 869 168 q 751 22 785 67 q 699 -54 718 -24 q 693 -54 696 -60 q 640 22 674 -24 q 565 117 607 67 q 474 219 522 168 q 379 317 426 271 q 292 401 339 354 q 204 506 244 449 q 136 628 164 563 q 108 772 108 694 q 131 905 108 843 q 194 1012 154 967 q 287 1083 233 1057 q 400 1108 340 1108 q 482 1098 440 1108 q 563 1063 524 1088 q 635 999 601 1039 q 693 901 668 960 q 699 901 696 893 m 1232 772 q 1213 885 1232 833 q 1160 976 1193 938 q 1084 1037 1128 1015 q 992 1058 1040 1058 q 839 1009 900 1058 q 733 856 778 960 q 696 819 718 819 q 658 856 674 819 q 553 1009 614 960 q 400 1058 492 1058 q 308 1037 351 1058 q 231 976 264 1015 q 179 885 199 938 q 160 772 160 833 q 186 645 160 706 q 251 531 213 585 q 333 433 289 478 q 415 353 378 388 q 502 267 460 311 q 581 181 544 222 q 645 101 617 139 q 693 33 674 63 q 699 33 696 28 q 746 101 717 63 q 812 181 775 139 q 890 267 849 222 q 978 353 932 311 q 1058 433 1014 389 q 1141 531 1103 478 q 1206 645 1179 585 q 1232 772 1232 706 z "},"♣":{"ha":1389,"x_min":89,"x_max":1300,"o":"m 644 257 q 634 249 636 257 q 622 226 632 242 q 517 124 583 165 q 368 82 451 82 q 258 103 310 82 q 169 161 207 124 q 110 250 132 199 q 89 364 89 301 q 110 475 89 424 q 168 565 131 526 q 257 625 206 603 q 369 647 308 647 q 433 638 401 647 q 489 615 465 628 q 493 614 490 614 q 499 618 496 614 q 499 626 500 622 q 494 631 497 629 q 433 717 458 665 q 408 831 408 768 q 431 942 408 890 q 492 1034 453 994 q 583 1097 531 1074 q 694 1119 635 1119 q 806 1097 754 1119 q 897 1035 858 1074 q 958 944 936 996 q 981 832 981 892 q 956 717 981 769 q 894 631 931 665 q 890 626 892 629 q 890 618 888 621 q 896 614 892 614 q 900 615 897 614 q 956 638 924 628 q 1018 647 989 647 q 1132 625 1081 647 q 1221 565 1183 603 q 1279 475 1258 526 q 1300 364 1300 424 q 1278 250 1300 301 q 1219 161 1257 199 q 1131 103 1182 124 q 1021 82 1079 82 q 876 121 942 82 q 767 226 810 160 q 755 249 757 242 q 744 257 753 257 q 737 246 738 257 q 736 232 736 235 q 751 135 740 178 q 779 59 761 93 q 821 -2 797 25 q 874 -54 844 -29 q 882 -74 886 -65 q 874 -82 878 -82 l 517 -82 q 508 -74 511 -82 q 515 -54 504 -65 q 610 59 574 -6 q 653 232 646 124 q 652 246 653 235 q 644 257 651 257 z "},"♤":{"ha":1389,"x_min":111,"x_max":1278,"o":"m 497 -85 q 490 -76 493 -85 q 497 -56 486 -67 q 544 -6 524 -31 q 579 47 564 19 q 605 105 594 74 q 621 175 615 136 q 624 206 624 192 q 624 219 625 219 l 619 211 q 607 192 614 201 q 515 115 574 143 q 390 88 457 88 q 276 113 328 88 q 188 179 225 138 q 131 276 151 221 q 111 393 111 332 q 138 533 111 468 q 206 652 165 597 q 292 753 246 707 q 376 835 339 799 q 472 928 424 879 q 562 1026 519 978 q 638 1116 604 1074 q 692 1189 672 1158 q 697 1189 694 1194 q 749 1116 715 1158 q 826 1026 783 1074 q 917 928 869 978 q 1013 835 965 879 q 1097 753 1050 799 q 1183 652 1143 707 q 1251 533 1224 597 q 1278 393 1278 468 q 1258 276 1278 332 q 1201 179 1238 221 q 1113 113 1164 138 q 999 88 1061 88 q 874 115 932 88 q 782 192 815 143 q 769 211 775 201 l 765 219 q 765 206 764 219 q 768 175 765 192 q 784 105 774 136 q 810 47 794 74 q 845 -6 825 19 q 892 -56 865 -31 q 900 -76 904 -67 q 892 -85 896 -85 l 497 -85 m 793 -33 q 792 -26 797 -33 q 779 -8 788 -19 q 734 83 753 31 q 715 218 715 136 q 722 274 715 250 q 749 299 729 299 q 775 284 764 299 q 806 243 786 269 q 888 167 840 194 q 999 139 935 139 q 1092 159 1050 139 q 1164 215 1135 179 q 1209 296 1193 250 q 1225 394 1225 342 q 1199 520 1225 461 q 1136 629 1174 579 q 1056 721 1099 679 q 979 794 1014 763 q 894 878 938 835 q 814 963 851 922 q 746 1041 776 1004 q 697 1104 715 1078 q 692 1104 694 1110 q 644 1041 675 1078 q 576 963 614 1004 q 494 878 538 922 q 410 794 451 835 q 332 721 375 763 q 251 629 289 679 q 188 520 214 579 q 163 394 163 461 q 178 296 163 342 q 224 215 194 250 q 296 159 254 179 q 390 139 338 139 q 501 167 454 139 q 583 243 549 194 q 614 284 603 269 q 640 299 625 299 q 667 274 660 299 q 674 218 674 250 q 655 83 674 136 q 610 -8 636 31 q 597 -26 601 -19 q 596 -33 592 -33 l 793 -33 z "},"♥":{"ha":1389,"x_min":110,"x_max":1279,"o":"m 701 883 q 811 1052 732 999 q 989 1106 890 1106 q 1101 1080 1049 1106 q 1194 1009 1154 1054 q 1256 903 1233 964 q 1279 771 1279 842 q 1251 627 1279 693 q 1183 505 1224 561 q 1096 402 1143 449 q 1010 318 1049 356 q 915 221 963 272 q 825 119 867 169 q 750 24 783 69 q 697 -51 717 -21 q 692 -51 694 -57 q 639 24 672 -21 q 564 119 606 69 q 474 221 522 169 q 379 318 426 272 q 293 402 340 356 q 206 505 246 449 q 138 628 165 561 q 110 771 110 694 q 133 903 110 842 q 195 1009 156 964 q 288 1080 235 1054 q 400 1106 340 1106 q 494 1092 449 1106 q 577 1052 539 1079 q 644 983 615 1025 q 688 883 672 942 q 694 874 690 874 q 701 883 699 874 z "}}}
